<svg xmlns="http://www.w3.org/2000/svg" width="1.6" height="1.6" viewBox="0 0 1.2 1.2" fill="#6dbf50" fill-rule="evenodd" xmlns:v="https://vecta.io/nano"><path d="M.579.186v.826L.001.946V.254zM.123.57c.003.021 0 .157.003.168l.009.001c.017.005.023.006.037.015s.02.022.025.026L.282.724.304.71.324.696.365.668C.313.607.267.661.229.609.216.592.207.556.192.547.168.533.128.568.123.57zM.3.381L.213.533C.22.544.22.539.23.56l.014.029c.015.025.029.024.062.024A.11.11 0 0 1 .318.589C.321.577.333.564.336.553l.04-.074C.383.463.39.454.392.448L.4.434C.409.422.313.377.3.381zm.122.061C.418.443.404.476.4.484L.393.497.379.522.366.548.33.615c.026.011.038.021.046.03C.381.641.393.614.397.607l.06-.118.001.001C.452.471.429.46.422.443zM.264.374L.224.372C.222.374.184.443.18.452L.136.534C.156.524.168.52.193.522.2.512.226.463.235.448L.276.376zm-.086.42L.166.778C.155.77.151.769.149.766S.133.762.126.761l.001.066C.13.827.169.799.178.794"/><path d="M.784.09c.017.112-.03.197.052.278.095.093.167.038.277.057.006.072.004.478.001.587-.001.061-.034.098-.094.101H.424c-.15 0-.189-.003-.197-.108L.173.998.154.997.144.995l.003.056c.012.071.07.13.141.142.049.008.469.003.556.003.162 0 .354.04.353-.212L1.196.427C1.191.334 1.132.298 1.089.255L.948.112C.899.06.863.01.775.005H.497c-.158 0-.347-.039-.353.2l.01-.002.019-.002.054-.006C.228.171.231.149.239.134.265.087.321.088.39.088zM.656.304h.091c.007.022.02.042.04.063.008.008.015.014.023.02H.656C.633.387.614.368.614.345S.633.304.656.304zm0 .187h.345c.023 0 .042.019.042.042s-.019.041-.042.041H.656C.633.574.614.555.614.533S.633.491.656.491zm0 .183h.345c.023 0 .042.018.042.041s-.019.041-.042.041H.656C.633.757.614.738.614.715S.633.674.656.674zm.008.174h.337c.023 0 .042.019.042.041s-.019.042-.042.042H.664C.641.931.622.913.622.89S.641.848.664.848"/></svg>