<?xml version="1.0" encoding="UTF-8" standalone="no"?>
<!DOCTYPE svg PUBLIC "-//W3C//DTD SVG 1.1//EN" "http://www.w3.org/Graphics/SVG/1.1/DTD/svg11.dtd">
<svg xmlns="http://www.w3.org/2000/svg" xmlns:xlink="http://www.w3.org/1999/xlink" version="1.1" width="1.1999pt" height="1.1999pt" viewBox="0 0 1.1999 1.1999">
<g enable-background="new">
<g id="Layer-1" data-name="Layer 1">
<path transform="matrix(1,0,0,-1,0,1.1999)" d="M .5791 1.0137 L .5791 .1874 L .0006 .254 L .0006 .9456 Z M .123 .6301 C .1264 .6094 .1227 .4731 .1264 .462 L .1358 .4609 C .1531 .4561 .1587 .4552 .1729 .4462 C .1911 .434 .193 .4238 .1981 .4201 L .2823 .4757 C .2897 .4805 .2968 .4853 .3039 .4898 C .3112 .4944 .3169 .4989 .3243 .5037 C .3317 .5085 .3609 .5272 .3654 .5315 C .3643 .5352 .3651 .5323 .3626 .5352 C .3132 .5927 .2667 .5389 .2288 .5907 C .2163 .6075 .2069 .644 .1922 .6525 C .1675 .6667 .1276 .6321 .123 .6301 Z M .2999 .8184 L .2134 .6667 C .22 .6557 .22 .6608 .2299 .6401 C .2347 .6301 .2384 .6202 .2435 .6114 C .258 .5868 .2721 .5876 .3059 .5879 C .307 .5916 .3152 .608 .318 .6106 C .3214 .6225 .3331 .6364 .3362 .6474 L .3764 .7214 C .3773 .7228 .3784 .7251 .379 .7265 C .3818 .7319 .3815 .7302 .3824 .7311 C .383 .737 .3898 .7464 .3923 .7515 L .4 .7662 C .4011 .7682 .4 .7668 .4014 .7685 C .4088 .7778 .3132 .8232 .2999 .8184 Z M .4215 .7571 C .4175 .7574 .4039 .724 .3997 .7163 C .3974 .7121 .396 .7075 .3929 .7036 L .3929 .703 C .3886 .6939 .3838 .6866 .3793 .6775 C .375 .6687 .3705 .6608 .3657 .6523 C .3535 .6299 .3424 .6072 .3302 .5851 C .3328 .5828 .3399 .5808 .3433 .5794 C .3563 .5743 .3679 .5638 .3767 .555 C .3807 .5593 .3929 .5856 .3966 .5933 L .4561 .7112 L .4567 .7098 C .4516 .7291 .4286 .7398 .4215 .7571 Z M .2642 .826 C .2551 .8266 .2341 .8286 .2239 .8277 C .2222 .826 .1843 .7571 .1797 .7478 C .1684 .7251 .146 .6877 .1358 .6664 C .1556 .6763 .1684 .6797 .1928 .678 C .1998 .6883 .2256 .7364 .235 .7523 C .2418 .7634 .2667 .8116 .2764 .824 C .2721 .8237 .2682 .8246 .2642 .826 Z M .178 .4056 C .178 .409 .1783 .4076 .1757 .411 L .1658 .4221 C .1636 .4238 .1638 .4235 .1616 .4255 C .1602 .4266 .159 .4272 .1573 .4283 C .1545 .4297 .1508 .4311 .1485 .434 C .1446 .434 .1327 .4382 .1256 .4391 L .1267 .373 C .1304 .3733 .1692 .4014 .178 .4056 " fill="#6dbf50" fill-rule="evenodd"/>
<path transform="matrix(1,0,0,-1,0,1.1999)" d="M .7838 1.1103 C .8011 .9986 .7537 .913 .8354 .8328 C .9303 .7396 1.0029 .7948 1.1123 .7753 C 1.118 .7036 1.1163 .2976 1.1134 .1882 C 1.112 .1273 1.0797 .0904 1.0191 .0876 C .8623 .0802 .5998 .0873 .4235 .0873 C .273 .0873 .2347 .0899 .2265 .1953 L .1729 .2015 L .1536 .203 L .1437 .2044 C .1446 .176 .1454 .1562 .1468 .1488 C .1587 .0782 .2169 .0187 .2877 .0071 C .3365 -.0009 .7566 .0045 .8433 .0045 C 1.0049 .0045 1.1971 -.036 1.1965 .2169 C 1.1962 .358 1.2027 .6534 1.1959 .773 C 1.1908 .8657 1.1316 .902 1.0888 .9445 C 1.0437 .9896 1.0094 1.0222 .9482 1.0877 C .8994 1.1398 .8629 1.1903 .7753 1.1948 C .6871 1.1993 .5868 1.1951 .4972 1.1951 C .3393 1.1951 .15 1.2345 .144 .9952 L .1536 .9967 L .1726 .9984 L .2262 1.0046 C .2276 1.0293 .2313 1.0514 .2387 1.0655 C .2645 1.1134 .3209 1.1123 .3895 1.1123 Z M .6559 .896 L .7472 .896 C .7543 .8742 .7668 .8535 .7877 .8328 C .7954 .8252 .8031 .8186 .8107 .813 L .6559 .813 C .633 .813 .6143 .8317 .6143 .8544 C .6143 .8773 .633 .896 .6559 .896 Z M .6559 .7089 L 1.0012 .7089 C 1.0242 .7089 1.0429 .6902 1.0429 .6673 C 1.0429 .6446 1.0242 .6259 1.0012 .6259 L .6559 .6259 C .633 .6259 .6143 .6446 .6143 .6673 C .6143 .6902 .633 .7089 .6559 .7089 Z M .6559 .5261 L 1.0012 .5261 C 1.0242 .5261 1.0429 .5077 1.0429 .4847 C 1.0429 .4618 1.0242 .4433 1.0012 .4433 L .6559 .4433 C .633 .4433 .6143 .4618 .6143 .4847 C .6143 .5077 .633 .5261 .6559 .5261 Z M .6639 .3518 L 1.0012 .3518 C 1.0242 .3518 1.0429 .3331 1.0429 .3104 C 1.0429 .2874 1.0242 .2687 1.0012 .2687 L .6639 .2687 C .6409 .2687 .6222 .2874 .6222 .3104 C .6222 .3331 .6409 .3518 .6639 .3518 " fill="#6dbf50" fill-rule="evenodd"/>
</g>
</g>
</svg>
