<?xml version="1.0" encoding="UTF-8" standalone="no"?>
<svg
   xmlns:dc="http://purl.org/dc/elements/1.1/"
   xmlns:cc="http://creativecommons.org/ns#"
   xmlns:rdf="http://www.w3.org/1999/02/22-rdf-syntax-ns#"
   xmlns:svg="http://www.w3.org/2000/svg"
   xmlns="http://www.w3.org/2000/svg"
   viewBox="0 0 1.5998667 1.5998667"
   height="1.5998667"
   width="1.5998667"
   xml:space="preserve"
   id="svg2"
   version="1.1"><metadata
     id="metadata8"><rdf:RDF><cc:Work
         rdf:about=""><dc:format>image/svg+xml</dc:format><dc:type
           rdf:resource="http://purl.org/dc/dcmitype/StillImage" /></cc:Work></rdf:RDF></metadata><defs
     id="defs6" /><g
     transform="matrix(1.3333333,0,0,-1.3333333,0,1.5998667)"
     id="g10"><path
       id="path12"
       style="fill:#27ae60;fill-opacity:1;fill-rule:evenodd;stroke:none"
       d="m 0.1259,1.1996 h 0.9479 c 0.0694,0 0.1258,-0.0564 0.1258,-0.1258 V 0.1259 C 1.1996,0.0564 1.1432,0 1.0738,0 H 0.1259 C 0.0564,0 0,0.0564 0,0.1259 v 0.9479 c 0,0.0694 0.0564,0.1258 0.1259,0.1258" /><path
       id="path14"
       style="fill:#ffffff;fill-opacity:1;fill-rule:evenodd;stroke:none"
       d="m 0.5998,1.0083 c 0.2256,0 0.4085,-0.1829 0.4085,-0.4085 0,-0.2256 -0.1829,-0.4085 -0.4085,-0.4085 -0.2256,0 -0.4085,0.1829 -0.4085,0.4085 0,0.2256 0.1829,0.4085 0.4085,0.4085 z m 0,-0.0428 c 0.2021,0 0.3657,-0.1636 0.3657,-0.3657 0,-0.2021 -0.1636,-0.3657 -0.3657,-0.3657 -0.2021,0 -0.3657,0.1636 -0.3657,0.3657 0,0.2021 0.1636,0.3657 0.3657,0.3657" /><path
       id="path16"
       style="fill:#ffffff;fill-opacity:1;fill-rule:evenodd;stroke:none"
       d="M 0.6094,0.7892 0.7985,0.6216 C 0.8357,0.5907 0.8133,0.5675 0.7475,0.5488 0.7472,0.4538 0.6735,0.4051 0.6001,0.4037 v 0 h -3e-4 -3e-4 v 0 C 0.5261,0.4051 0.4524,0.4538 0.4521,0.5488 0.3864,0.5675 0.364,0.5907 0.4011,0.6216 l 0.1891,0.1676 c 0.0122,0.009 0.0073,0.009 0.0192,0" /></g></svg>