<svg xmlns="http://www.w3.org/2000/svg" width="1.6" height="1.6" viewBox="0 0 1.2 1.2" fill-rule="evenodd" xmlns:v="https://vecta.io/nano"><path d="M.152 0h.896c.084 0 .152.068.152.152v.896c0 .084-.068.152-.152.152H.152C.068 1.2 0 1.132 0 1.048V.152C0 .068.068 0 .152 0" fill="#27ae60"/><g fill="#fff"><path d="M.613.353L.86.572c.048.04.019.071-.067.095C.793.791.696.854.6.856h0 0C.503.854.407.791.407.667.321.642.291.612.34.572L.587.353c.016-.012.01-.012.026 0"/><path d="M.6.156c.246 0 .445.199.445.445s-.199.445-.444.445S.155.846.155.6.354.156.6.156zm0 .048C.819.204.996.381.996.6S.819.997.6.997.203.819.203.6.381.204.6.204"/></g></svg>