<svg xmlns="http://www.w3.org/2000/svg" width="1.6" height="1.6" viewBox="0 0 1.2 1.2" fill="#2980b9" fill-rule="evenodd" xmlns:v="https://vecta.io/nano"><path d="M.579.187v.826L.001.946V.255zM.191.745L.135.455h.05l.035.199.043-.199H.32l.041.203.036-.203h.048l-.057.29H.337L.29.528.243.745z"/><path d="M.784.09c.017.112-.03.197.052.278.095.093.167.038.277.057.006.072.004.478.001.587-.001.061-.034.098-.094.101H.424c-.15 0-.189-.003-.197-.108L.173.998.154.997.144.995l.003.056c.012.071.07.13.141.142.049.008.469.003.556.003.162 0 .354.04.353-.212L1.196.427C1.191.334 1.132.298 1.089.255L.948.112C.899.06.863.01.775.005H.497c-.158 0-.347-.039-.353.2l.01-.002.019-.002.054-.006C.228.171.231.149.239.134.265.087.321.088.39.088zM.656.304h.091c.007.022.02.042.04.063.008.008.015.014.023.02H.656C.633.387.614.368.614.345S.633.304.656.304zm0 .187h.345c.023 0 .042.019.042.042s-.019.041-.042.041H.656C.633.574.614.555.614.533S.633.491.656.491zm0 .183h.345c.023 0 .042.018.042.041s-.019.041-.042.041H.656C.633.757.614.738.614.715S.633.674.656.674zm.008.174h.337c.023 0 .042.019.042.041s-.019.042-.042.042H.664C.641.931.622.913.622.89S.641.848.664.848"/></svg>