<?xml version="1.0" encoding="UTF-8" standalone="no"?>
<!DOCTYPE svg PUBLIC "-//W3C//DTD SVG 1.1//EN" "http://www.w3.org/Graphics/SVG/1.1/DTD/svg11.dtd">
<svg xmlns="http://www.w3.org/2000/svg" xmlns:xlink="http://www.w3.org/1999/xlink" version="1.1" width="4.7999pt" height="4.7999pt" viewBox="0 0 4.7999 4.7999">
<g enable-background="new">
<g id="Layer-1" data-name="Layer 1">
<path transform="matrix(1,0,0,-1,0,4.7999)" d="M 3.3239 .4706 L 3.3239 .252 C 3.3239 .1687 3.3917 .1012 3.4747 .1012 C 3.5583 .1012 3.6258 .1687 3.6258 .252 L 3.6258 .6287 C 3.7857 .7248 3.9455 .8374 4.1051 .9709 C 4.1394 .9995 4.1593 1.0417 4.1593 1.0865 L 4.1593 3.0688 L 4.714 3.3347 C 4.7665 3.3596 4.7999 3.4126 4.7999 3.4707 C 4.7999 3.5289 4.7665 3.5816 4.714 3.6068 L 2.465 4.6837 C 2.4239 4.7032 2.376 4.7032 2.3346 4.6837 L .0856 3.6068 C .0332 3.5816 -.0003 3.5289 -.0003 3.4707 C -.0003 3.4126 .0332 3.3596 .0856 3.3344 L .6401 3.0691 L .6401 1.0865 C .6401 1.042 .6599 .9995 .6942 .9709 C 1.26 .4972 1.8298 .2602 2.3995 .2602 C 2.7079 .2602 3.0163 .3319 3.3239 .4706 Z M 3.8574 1.158 C 3.78 1.0953 3.7029 1.0397 3.6258 .987 L 3.6258 2.8134 L 3.8574 2.9242 Z M 2.3998 4.3798 L 3.5323 3.8375 L 4.2993 3.4705 L 3.4775 3.077 L 2.4695 3.6043 C 2.3958 3.6431 2.3043 3.6142 2.2657 3.5402 C 2.2272 3.4665 2.2558 3.3752 2.3298 3.3367 L 3.1377 2.9143 L 2.3998 2.5611 L .5006 3.4705 Z M .942 2.9242 L 2.3346 2.2575 C 2.3553 2.2476 2.3777 2.2428 2.3998 2.2428 C 2.4219 2.2428 2.4443 2.2476 2.465 2.2575 L 3.3239 2.6688 L 3.3239 .8045 C 2.5285 .3923 1.7439 .5097 .942 1.158 Z " fill-rule="evenodd"/>
</g>
</g>
</svg>
