<?xml version="1.0" encoding="UTF-8" standalone="no"?>
<!DOCTYPE svg PUBLIC "-//W3C//DTD SVG 1.1//EN" "http://www.w3.org/Graphics/SVG/1.1/DTD/svg11.dtd">
<svg xmlns="http://www.w3.org/2000/svg" xmlns:xlink="http://www.w3.org/1999/xlink" version="1.1" width="4.7999pt" height="4.7999pt" viewBox="0 0 4.7999 4.7999">
<g enable-background="new">
<g id="Layer-1" data-name="Layer 1">
<path transform="matrix(1,0,0,-1,0,4.7999)" d="M 2.4001 4.0734 L .0601 3.2386 L 1.243 2.9188 L 1.243 2.3902 C 1.243 2.2127 1.7612 2.0684 2.4001 2.0684 C 3.0387 2.0684 3.5569 2.2127 3.5569 2.3902 L 3.5566 2.9188 L 3.9858 3.0348 L 4.7398 3.2386 L 2.4001 4.0731 Z " fill="#ffffff" fill-rule="evenodd"/>
<path transform="matrix(1,0,0,-1,0,4.7999)" d="M 4.1661 2.1438 C 4.1661 2.226 4.0853 2.2932 3.9861 2.2932 C 3.8866 2.2932 3.8058 2.226 3.8058 2.1438 C 3.8058 2.0614 3.8869 1.9942 3.9861 1.9942 C 4.0856 1.9942 4.1661 2.0614 4.1661 2.1438 Z M 4.191 1.7844 C 4.191 1.9851 4.011 1.9942 4.011 1.9942 L 3.9858 1.9942 C 3.9858 1.9942 3.9407 1.9919 3.8954 1.9644 C 3.8506 1.9369 3.8055 1.8845 3.8055 1.7844 C 3.8055 1.584 3.9183 1.2855 3.8055 1.1744 C 3.8055 1.1744 3.9033 1.1679 3.9986 1.2438 C 4.0935 1.1673 4.1916 1.1744 4.1916 1.1744 C 4.0791 1.2855 4.1916 1.584 4.1916 1.7844 Z " fill="#ffffff" fill-rule="evenodd"/>
<path transform="matrix(1,0,0,-1,0,4.7999)" stroke-width=".125" stroke-linecap="round" stroke-linejoin="round" fill="none" stroke="#231f20" d="M 3.9767 1.8454 L 3.9858 3.0348 M 3.5566 3.1266 L 3.5566 2.016 C 3.5566 2.1611 3.2122 2.2833 2.7388 2.3236 L 2.3995 2.232 L 2.0602 2.3236 C 1.5871 2.2836 1.2433 2.1611 1.2433 2.0163 L 1.2433 3.1269 C 1.2433 3.3043 1.7609 3.4486 2.3998 3.4486 C 3.0387 3.4486 3.5566 3.3043 3.5566 3.1266 Z M 4.1567 1.696 C 4.1567 1.777 4.0785 1.8434 3.9813 1.8454 L 3.9767 1.8454 C 3.8775 1.8454 3.7964 1.7782 3.7964 1.696 C 3.7964 1.6138 3.8767 1.5469 3.9756 1.5463 C 3.96 1.5452 3.7964 1.5276 3.7964 1.3365 C 3.7964 1.1361 3.9093 .8376 3.7964 .7265 C 3.7964 .7265 3.8942 .7191 3.9895 .7957 C 4.0844 .7191 4.1825 .7265 4.1825 .7265 C 4.07 .8376 4.1825 1.1361 4.1825 1.3365 L 4.1822 1.3365 C 4.1822 1.5369 4.002 1.5463 4.002 1.5463 L 3.9813 1.5463 C 4.0785 1.5486 4.1567 1.6149 4.1567 1.696 Z M 3.5566 2.0163 C 3.5566 1.8386 3.0387 1.6946 2.3995 1.6946 C 1.7609 1.6946 1.243 1.8386 1.243 2.0163 C 1.243 2.1614 1.5868 2.2836 2.0602 2.3238 L 2.3995 2.2323 L 2.7388 2.3238 C 3.2122 2.2833 3.5566 2.1609 3.5566 2.0163 Z M 3.5566 2.9188 L 3.5566 3.1263 C 3.5566 3.3038 3.0387 3.4481 2.3995 3.4481 C 1.7609 3.4481 1.243 3.3038 1.243 3.1263 L 1.243 2.9188 L .0598 3.2383 L 2.3995 4.0734 L 4.7395 3.2383 L 3.9858 3.0351 L 3.9858 3.0348 Z "/>
</g>
</g>
</svg>
