<?xml version="1.0" encoding="UTF-8" standalone="no"?>
<svg
   xmlns:dc="http://purl.org/dc/elements/1.1/"
   xmlns:cc="http://creativecommons.org/ns#"
   xmlns:rdf="http://www.w3.org/1999/02/22-rdf-syntax-ns#"
   xmlns:svg="http://www.w3.org/2000/svg"
   xmlns="http://www.w3.org/2000/svg"
   viewBox="0 0 6.3998666 6.3998666"
   height="6.3998666"
   width="6.3998666"
   xml:space="preserve"
   id="svg2"
   version="1.1"><metadata
     id="metadata8"><rdf:RDF><cc:Work
         rdf:about=""><dc:format>image/svg+xml</dc:format><dc:type
           rdf:resource="http://purl.org/dc/dcmitype/StillImage" /></cc:Work></rdf:RDF></metadata><defs
     id="defs6" /><g
     transform="matrix(1.3333333,0,0,-1.3333333,0,6.3998667)"
     id="g10"><path
       id="path12"
       style="fill:none;stroke:#5f5e5e;stroke-width:0.21600001;stroke-linecap:round;stroke-linejoin:round;stroke-miterlimit:22.92558479;stroke-dasharray:none;stroke-opacity:1"
       d="m 3.5442,2.1815 v 0.3549 c 0,0.3039 -0.5179,0.5505 -1.1571,0.5505 -0.6384,0 -1.1563,-0.2466 -1.1563,-0.5505 V 2.1815 L 0.0473,2.7283 2.3871,4.1564 4.7271,2.7283 3.9736,2.3808 v -5e-4 z m 0,-0.9022 c 0,-0.1778 -0.5179,-0.3218 -1.1571,-0.3218 -0.6384,0 -1.1563,0.144 -1.1563,0.3218 0,0.1448 0.3436,0.2673 0.8169,0.3073 L 2.3871,1.4953 2.7264,1.5866 C 3.1997,1.546 3.5442,1.4238 3.5442,1.2793 Z M 4.4189,1.2209 4.4283,2.5883 M 4.5989,1.0715 c 0,0.0796 -0.0754,0.1454 -0.1706,0.1494 H 4.4237 4.4189 c -0.0992,0 -0.1803,-0.0672 -0.1803,-0.1494 0,-0.0822 0.0805,-0.1491 0.1795,-0.1497 -0.0156,-0.0011 -0.1795,-0.0187 -0.1795,-0.21 0,-0.2004 0.1131,-0.4989 0,-0.61 0,0 0.0978,-0.0074 0.1934,0.0694 0.0946,-0.0768 0.1927,-0.0694 0.1927,-0.0694 -0.1122,0.1111 0,0.4096 0,0.61 h -3e-4 c 0,0.2004 -0.18,0.21 -0.18,0.21 H 4.4237 C 4.521,0.9241 4.5989,0.9904 4.5989,1.0715 Z M 3.5442,2.6804 V 1.279 c 0,0.1828 -0.3445,0.337 -0.8178,0.3883 L 2.3871,1.5517 2.0477,1.6673 C 1.5746,1.6169 1.2311,1.4618 1.2311,1.2793 v 1.402 c 0,0.2236 0.5176,0.4056 1.1562,0.4056 0.639,0 1.1569,-0.182 1.1569,-0.4065 z" /></g></svg>