<?xml version="1.0" encoding="UTF-8" standalone="no"?>
<svg
   xmlns:dc="http://purl.org/dc/elements/1.1/"
   xmlns:cc="http://creativecommons.org/ns#"
   xmlns:rdf="http://www.w3.org/1999/02/22-rdf-syntax-ns#"
   xmlns:svg="http://www.w3.org/2000/svg"
   xmlns="http://www.w3.org/2000/svg"
   viewBox="0 0 27.519867 27.519867"
   height="27.519867"
   width="27.519867"
   xml:space="preserve"
   id="svg2"
   version="1.1"><metadata
     id="metadata8"><rdf:RDF><cc:Work
         rdf:about=""><dc:format>image/svg+xml</dc:format><dc:type
           rdf:resource="http://purl.org/dc/dcmitype/StillImage" /></cc:Work></rdf:RDF></metadata><defs
     id="defs6" /><g
     transform="matrix(1.3333333,0,0,-1.3333333,0,27.519867)"
     id="g10"><g
       id="g12"><path
         id="path14"
         style="fill:none;stroke:#332d2b;stroke-width:0.21600001;stroke-linecap:butt;stroke-linejoin:miter;stroke-miterlimit:22.92558479;stroke-dasharray:none;stroke-opacity:1"
         d="m 16.9364,4.2667 c 0,-1.4842 -3.0018,-3.4081 -6.6571,-3.4081 -3.6493,0 -6.5727,1.9242 -6.5727,3.409 0,4.1876 5.692,2.7635 6.5727,1.0814 1.2739,1.6327 6.6957,3.1935 6.6571,-1.0823 z" /><path
         id="path16"
         style="fill:none;stroke:#332d2b;stroke-width:0.21600001;stroke-linecap:butt;stroke-linejoin:miter;stroke-miterlimit:22.92558479;stroke-dasharray:none;stroke-opacity:1"
         d="m 19.3232,5.1724 0.0414,6.0596" /><path
         id="path18"
         style="fill:#332d2b;fill-opacity:1;fill-rule:evenodd;stroke:#332d2b;stroke-width:0.21600001;stroke-linecap:butt;stroke-linejoin:miter;stroke-miterlimit:22.92558479;stroke-dasharray:none;stroke-opacity:1"
         d="m 20.1209,4.5105 c 0,0.3529 -0.3342,0.6443 -0.7563,0.6619 h -0.0201 -0.0213 c -0.4396,0 -0.7988,-0.2977 -0.7988,-0.6619 0,-0.3645 0.3566,-0.6608 0.7951,-0.6633 -0.0691,-0.0051 -0.7951,-0.0831 -0.7951,-0.9309 0,-0.8881 0.5012,-2.2108 0,-2.7034 0,0 0.4331,-0.0326 0.8566,0.3078 0.4196,-0.3404 0.8541,-0.3078 0.8541,-0.3078 -0.4975,0.4926 0,1.8153 0,2.7034 H 20.234 c 0,0.8881 -0.7977,0.9309 -0.7977,0.9309 h -0.0918 c 0.4308,0.0099 0.7764,0.3039 0.7764,0.6633 z" /><path
         id="path20"
         style="fill:none;stroke:#332d2b;stroke-width:0.21600001;stroke-linecap:butt;stroke-linejoin:miter;stroke-miterlimit:22.92558479;stroke-dasharray:none;stroke-opacity:1"
         d="m 10.584,13.4393 -0.093,0.0012 -0.1709,0.0011 H 10.319 10.1883 L 10.1494,13.4405 10.0565,13.4393 C 6.5265,13.3965 3.7066,12.4909 3.7066,11.3828 V 10.118 l -3.7559,1.7348 c 5.4578,11.5001 15.6228,11.3644 20.738,0 l -3.7523,-1.7337 v 1.2589 c 0,1.1129 -2.8213,2.0185 -6.3524,2.0613 z" /><path
         id="path22"
         style="fill:none;stroke:#332d2b;stroke-width:0.21600001;stroke-linecap:butt;stroke-linejoin:miter;stroke-miterlimit:22.92558479;stroke-dasharray:none;stroke-opacity:1"
         d="M 16.9364,11.378 V 4.2667 c 0.0383,4.2576 -5.3367,2.7281 -6.6401,1.103 L 10.2617,5.3799 C 9.3277,7.0481 3.7074,8.4291 3.7066,4.2684 v -6e-4 7.115 c 0,1.1356 2.9619,2.0588 6.6135,2.0588 3.653,0 6.6163,-0.9232 6.6163,-2.0636 z" /></g></g></svg>