<svg class="svg-icon" style="width: 1em; height: 1em;vertical-align: middle;fill: currentColor;overflow: hidden;" viewBox="0 0 1024 1024" version="1.1" xmlns="http://www.w3.org/2000/svg"><path d="M955.32573 450.563251C950.750576 206.405729 761.48587 9.18282 529.063355 9.18282h-34.128516c-232.422514 0-421.687221 197.224716-426.262375 441.349725C27.850098 474.179571 0 517.834089 0 568.323342v68.266064c0 75.295871 61.238065 136.532129 136.532129 136.532129 75.297677 0 136.533935-61.236258 136.533936-136.532129v-68.266064c-0.108373-74.833479-60.401785-135.654307-135.238876-136.405694 13.351574-197.791868 168.2078-354.47057 357.105843-354.47057h34.128517c188.930556 0 343.756076 156.676895 357.114875 354.47057-74.835285 0.751387-135.139534 61.570409-135.244295 136.405694v68.266064c0 61.633627 41.295596 113.24996 97.487083 130.147143a360.013857 360.013857 0 0 1-204.734976 132.782418c-11.550773-34.65232-43.954351-58.055506-80.483333-58.131367-47.124266 0-85.334839 38.210573-85.334838 85.336645 0 47.113428 38.210573 85.325807 85.334838 85.325807a85.007913 85.007913 0 0 0 72.393276-40.641744 429.271536 429.271536 0 0 0 296.790757-206.514102c53.189551-18.634766 91.615064-68.813349 91.615064-128.3048v-68.266064c0-50.489253-27.850098-94.143771-68.67427-117.760091z m-750.52573 117.760091v68.266064c0 37.64342-30.611807 68.266065-68.266065 68.266065-37.652451 0-68.266065-30.624451-68.266064-68.266065v-68.266064c0-37.652451 30.613614-68.266065 68.266064-68.266065 37.654257 0 68.266065 30.613614 68.266065 68.266065z m750.933935 68.26787c0 36.5922-29.016916 66.315348-65.191879 67.955395-0.88866-0.417237-1.77732-0.834473-2.667786-1.264353-0.234809 0.556316-0.610502 0.995227-0.847117 1.500968-37.504341-0.236615-67.783804-30.689475-67.827153-68.19201v-68.266064c0-37.652451 30.624451-68.266065 68.266065-68.266065 37.652451 0 68.266065 30.613614 68.266064 68.266065l0.001806 68.266064z" fill="#231815" /></svg>