<svg xmlns="http://www.w3.org/2000/svg" width="1.6" height="1.6" viewBox="0 0 1.2 1.2" fill-rule="evenodd" xmlns:v="https://vecta.io/nano"><path d="M1.2.619c0 .412-.188.581-.6.581S0 1.031 0 .619.188 0 .6 0s.6.207.6.619" fill="#27ae60"/><path d="M.6.212L.44.215C.399.216.371.223.346.232S.299.256.277.277a.19.19 0 0 0-.045.069.28.28 0 0 0-.018.094L.212.6.214.76a.28.28 0 0 0 .018.094.19.19 0 0 0 .045.069.19.19 0 0 0 .069.045.28.28 0 0 0 .094.018L.6.988.76.986A.28.28 0 0 0 .854.968.19.19 0 0 0 .923.923.2.2 0 0 0 .968.854C.978.828.984.801.985.76L.988.6.985.44C.984.399.977.371.968.346S.944.299.923.277A.18.18 0 0 0 .854.232C.828.222.801.216.76.215L.6.212zm0 .07l.157.002a.21.21 0 0 1 .072.013c.018.008.031.016.044.03s.022.027.029.045a.21.21 0 0 1 .013.072L.918.6.916.757C.914.795.908.815.902.829S.887.86.873.874.847.896.829.903a.21.21 0 0 1-.072.013L.6.918c-.104 0-.116 0-.157-.002S.385.908.371.903.34.887.326.874.304.847.297.829A.21.21 0 0 1 .284.757L.282.6.284.443A.21.21 0 0 1 .297.371C.304.353.313.34.326.327S.353.305.371.298A.21.21 0 0 1 .443.284L.6.282m0 .447C.528.729.471.672.471.6S.528.471.6.471.729.529.729.6A.13.13 0 0 1 .6.729zm0-.328A.2.2 0 0 0 .401.6.2.2 0 0 0 .6.799.2.2 0 0 0 .799.6.2.2 0 0 0 .6.401M.854.393C.854.419.833.44.807.44S.76.419.76.393.781.346.807.346.854.367.854.393" fill="#fff"/></svg>