<svg xmlns="http://www.w3.org/2000/svg" width="1.6" height="1.6" viewBox="0 0 1.2 1.2" xmlns:v="https://vecta.io/nano"><defs><clipPath id="A"><path d="M0 0h1v1.199H0zm0 0"/></clipPath><clipPath id="B"><path d="M0 0h1.199v1.199H0zm0 0"/></clipPath></defs><g fill-rule="evenodd"><g fill="#e8a617"><g clip-path="url(#A)"><path d="M.703.133v.922L0 .945V.254zm0 0"/></g><g clip-path="url(#B)"><path d="M.785.09C.801.203.754.285.836.367c.094.094.168.039.277.059a14.61 14.61 0 0 1 0 .586c0 .063-.035.098-.094.102H.422c-.148 0-.187-.004-.195-.109L.172 1 .152.996H.145v.055c.012.07.07.129.145.141.047.008.469.004.555.004.16 0 .355.039.352-.211L1.201.63V.563L1.195.426C1.191.336 1.133.297 1.09.254L.949.113C.898.059.863.008.773.004s-.187 0-.277 0C.34.004.148-.035.145.203L.227.188C.223.188.23.148.238.133.266.086.32.09.391.09zm-.02.211H.762c.012.031.039.074.066.082H.766C.742.383.723.363.723.344S.742.301.766.301zm.016.547H1c.023 0 .043.02.043.043S1.023.93 1 .93H.781C.762.93.742.914.742.891S.762.848.781.848zm0-.176H1c.023 0 .043.02.043.043S1.023.758 1 .758H.781C.762.758.742.738.742.715S.762.672.781.672zm0-.18H1c.023 0 .043.02.043.039S1.023.574 1 .574H.781C.762.574.742.555.742.531S.762.492.781.492"/></g></g><g fill="#fff"><path d="M.238.301C.242.324.223.332.219.336c-.008.016 0 .016.008.02s.008.023.008.023h.031C.27.363.242.355.242.355.238.34.25.332.25.32S.238.301.238.301m.211 0C.473.313.473.316.48.324s.016.012.02.02C.48.344.477.336.473.336S.465.332.453.328s-.027 0-.035 0c.016.012.012.02.027.02S.469.344.469.344c.016.02.02.02.02.027C.473.363.465.363.457.359.438.363.43.363.426.359.43.367.434.375.441.379S.461.371.465.371c.02.02.035.016.039.016.02.004.02.008.023.012C.5.395.492.395.484.395.469.391.457.391.457.391c.012.004.02.012.027.02s.02 0 .023 0C.53.419.538.415.538.415a.031.031 0 0 1 .016.016C.527.422.516.422.512.422c0 .008.004.016.012.02.023-.004.031 0 .031.004C.571.45.578.45.578.454c0 .016.004.023.008.027C.574.477.574.473.566.465S.551.453.543.453c.004.02.012.02.02.02S.57.484.578.488.594.5.594.504l.012.027C.594.523.59.508.586.504S.574.492.566.488C.563.508.563.508.57.512s.012.004.02.012.016.012.023.016l.004.012C.605.566.609.574.613.582.602.574.598.57.598.563S.594.543.59.539L.57.523c.008.02.008.027.008.035.02.012.02.02.02.023.016.016.016.027.012.035C.602.59.59.582.59.578.578.602.586.605.59.609s.008.012.008.023c.012.012.016.016.016.02C.594.668.59.684.59.684.59.664.594.66.594.652s0-.02-.008-.027C.57.648.578.648.582.656.578.684.59.691.59.691.578.699.578.711.578.711.563.719.559.727.559.727.563.711.563.707.566.707S.57.695.574.684.566.656.566.656C.563.676.559.676.555.684S.559.7.559.707L.551.719c0 .012.004.02 0 .023C.535.758.527.77.527.77L.543.738C.547.73.547.723.547.715.523.727.527.734.527.738.523.758.523.77.523.773l-.02.02-.016.016C.492.789.5.781.504.777S.52.766.52.754C.496.754.5.766.5.77S.496.781.492.789.488.809.484.813L.473.809C.457.82.445.82.445.82.453.816.461.809.465.805S.477.797.484.789C.492.77.496.754.496.754.484.77.48.77.473.773S.465.793.465.797L.441.82C.434.824.422.828.418.832.426.816.43.813.438.809S.445.797.453.793C.422.797.422.813.422.813s-.016.02-.02.02S.379.84.359.848L.32.844C.309.816.297.813.297.801.281.809.277.816.281.824c.004.02 0 .023 0 .023s-.008 0-.02.008S.246.867.246.871C.27.867.289.867.297.867.316.852.32.852.32.852s.02 0 .031.004C.328.867.301.887.301.887.324.891.324.887.328.883S.34.867.359.855a.1.1 0 0 1 .035.02c.008.008.023.012.027.008S.406.867.395.859C.387.859.379.855.367.852.387.84.402.84.402.84.414.844.422.848.43.848S.446.856.453.86.465.864.484.864.512.852.512.852C.484.855.484.852.477.848S.465.844.441.844.414.84.414.84C.434.836.438.836.441.836h.023c.028-.008.04 0 .048.004S.527.84.535.836.555.82.555.82C.535.824.527.824.512.824S.48.828.477.828C.492.816.5.813.512.813s.027-.004.039 0S.57.809.574.805A.11.11 0 0 0 .598.781C.59.785.582.785.574.785S.555.793.551.797.539.801.531.805V.793C.547.781.563.777.566.773S.582.773.594.77.613.754.613.746c-.027 0-.035.012-.039.02S.551.773.551.773C.563.754.57.75.57.75.555.754.547.758.547.758.563.738.563.742.578.742S.59.734.598.73.613.727.625.727.637.707.645.703C.621.703.617.707.613.711S.602.723.59.73.566.734.566.734C.59.723.586.719.59.715.59.695.598.691.598.691.613.688.633.68.633.68S.648.676.66.668s0-.027 0-.035C.641.648.641.66.637.664.621.676.605.684.605.684a.03.03 0 0 0 .008-.02c.004-.02.012-.02.02-.02S.641.629.641.621C.66.605.664.59.664.582S.656.563.656.563C.652.586.645.59.637.598s0 .02-.004.031c-.008-.02 0-.031 0-.031 0-.016.004-.023.008-.031C.66.543.652.508.652.508.637.527.633.531.637.539v.023C.633.574.625.582.625.582c.004-.02 0-.023 0-.023-.004-.02 0-.027 0-.027C.633.52.629.5.633.496S.637.488.641.477.637.445.633.441C.629.453.625.457.621.465l.008.043C.617.512.613.508.609.5.598.484.602.473.602.473S.605.461.609.453.613.445.613.43.602.406.598.398C.598.422.594.422.594.43s.008.016.008.023-.008.02-.008.02V.449C.578.438.578.434.578.426s0-.02.004-.027S.574.375.57.371L.555.355c.012.02.008.02.008.027.016.023.012.031.012.039C.559.414.559.402.559.402.551.387.547.379.547.371.547.34.531.34.527.336c0 .008-.004.012 0 .023.012.004.016.012.016.016.004.023 0 .023 0 .023C.539.383.531.379.527.375L.516.383C.504.367.508.363.508.355.5.332.504.332.5.316S.477.305.469.305m-.203 0C.254.316.254.32.254.324a.025.025 0 0 0 .019.008C.277.352.27.355.27.359.282.371.29.375.293.371.297.351.301.355.301.351.305.336.309.336.313.332.305.32.297.324.293.32.277.316.273.316.27.313M.145.344c.012.012.012.02.012.023S.145.383.141.387c.008.012.023.012.027.012s.012.02.012.02h.027C.207.41.199.402.195.398H.172c.004-.027 0-.031 0-.031L.156.352"/><path d="M.195.344C.172.348.168.352.168.352c.012.016.02.02.02.02.02.008.02.012.016.016 0 .016.012.023.016.023.008-.02.016-.02.016-.027C.227.375.227.367.223.359.199.352.199.348.199.344m.164.031l-.05.141L.168.52.285.602.242.746h.004L.363.66.484.738.441.602.559.516H.414zM.145.398C.121.398.113.402.113.402l.016.02c.023 0 .023.004.023.008.004.02.012.02.02.02C.18.434.184.43.184.426.172.418.172.41.168.406L.145.398"/><path d="M.098.398c.012.023.008.027 0 .035S.094.457.094.457c.008.004.016 0 .027 0s.023.02.023.02C.156.469.16.465.172.461s.023.004.023.004C.188.449.16.453.156.453H.125C.125.445.121.43.117.422S.098.398.098.398"/><path d="M.094.465C.082.469.066.469.066.473l.008.012c.016.008.02.008.02.004A.075.075 0 0 1 .117.5h.031C.141.488.145.484.141.477.129.473.125.465.117.465H.094"/><path d="M.055.48C.07.504.063.52.063.523.07.535.078.531.082.531a.096.096 0 0 1 .043.004C.129.516.133.516.141.512A.025.025 0 0 0 .113.508C.094.512.094.512.086.504S.07.488.063.484"/><path d="M.105.484.09.5C.109.492.105.484.105.484M.094.531C.086.539.074.535.066.539L.051.563c.02 0 .023.004.023.004l.02-.02c.016.016.012.02.016.02C.129.563.133.559.133.555.125.551.117.539.113.539S.098.531.094.531"/><path d="M.094.555C.082.574.09.578.09.578.102.563.094.555.094.555"/><path d="M.141.563S.121.566.109.574L.09.586S.074.57.063.566H.039s.02.008.023.012v.023c.012.016.023 0 .031.004s.02.004.023 0C.121.578.125.574.125.574M.113.613c-.008.004-.016 0-.023 0C.078.625.07.629.066.633.055.648.059.656.059.656h.023C.09.637.098.629.098.629a.11.11 0 0 1 .02.016L.141.621C.121.621.121.617.113.613"/><path d="M.152.633C.125.648.105.668.105.668S.094.664.074.66.047.66.047.664c.027.008.031.02.039.027C.102.695.109.688.113.684h.035L.137.648.156.633M.098.637C.094.66.102.664.102.664.109.645.098.637.098.637m.058.051C.133.688.129.691.129.691.109.695.105.703.105.703.094.719.098.723.098.723c-.008.02 0 .016 0 .016C.109.73.117.73.117.73.121.715.121.707.121.707.137.703.148.711.148.711.16.699.164.691.164.691m.012 0S.164.703.16.711C.156.73.156.738.156.738S.133.734.121.738.102.746.098.746C.109.75.117.75.121.758s.012.016.02.016.012-.02.02-.02C.176.75.18.742.18.742.172.715.164.715.168.711s.008-.02.008-.02"/><path d="M.129.711c.008.02.023.02.023.02C.141.711.129.711.129.711M.191.75C.18.754.164.754.16.762.156.777.148.777.148.785.152.813.16.813.16.813l.02-.02C.176.777.176.77.176.77h.023c.012-.02 0-.016 0-.016M.23.75S.211.762.207.77v.023s-.016 0-.023.008C.168.813.164.813.164.82c.02-.004.027 0 .027 0l.023.004C.23.801.23.801.234.801L.223.766M.27.797C.25.797.246.809.246.809s-.012 0-.02.008C.23.832.227.832.223.84.234.852.23.859.23.863A.102.102 0 0 0 .262.848C.25.832.242.824.242.824.254.816.273.816.273.816"/><path d="M.262.82c.004.023.016.02.016.02C.27.82.266.82.262.82"/></g></g></svg>