<svg xmlns="http://www.w3.org/2000/svg" width="1.6" height="1.6" viewBox="0 0 1.2 1.2" xmlns:v="https://vecta.io/nano"><defs><clipPath id="A"><path d="M0 0h1v1.199H0zm0 0"/></clipPath><clipPath id="B"><path d="M0 0h1.199v1.199H0zm0 0"/></clipPath></defs><g fill-rule="evenodd"><g fill="#2d2f92"><g clip-path="url(#A)"><path d="M.703.133v.922L0 .945V.254zm0 0"/></g><g clip-path="url(#B)"><path d="M.785.09C.801.203.754.285.836.367c.094.094.168.039.277.059a14.61 14.61 0 0 1 0 .586c0 .063-.035.098-.094.102H.422c-.148 0-.187-.004-.195-.109L.172 1 .152.996H.145v.055c.012.07.07.129.145.141.047.008.469.004.555.004.16 0 .355.039.352-.211L1.201.63V.563L1.195.426C1.191.336 1.133.297 1.09.254L.949.113C.898.059.863.008.773.004s-.187 0-.277 0C.34.004.148-.035.145.203L.227.188C.223.188.23.148.238.133.266.086.32.09.391.09zm-.02.211H.762c.012.031.039.074.066.082H.766C.742.383.723.363.723.344S.742.301.766.301zm.016.547H1c.023 0 .043.02.043.043S1.023.93 1 .93H.781C.762.93.742.914.742.891S.762.848.781.848zm0-.176H1c.023 0 .043.02.043.043S1.023.758 1 .758H.781C.762.758.742.738.742.715S.762.672.781.672zm0-.18H1c.023 0 .043.02.043.039S1.023.574 1 .574H.781C.762.574.742.555.742.531S.762.492.781.492"/></g></g><path d="M.129.852C.117.844.121.82.129.813A.13.13 0 0 0 .063.805l.05-.028L.066.742c.027 0 .055-.004.082 0S.191.75.211.758c.008.004.031.023.023.035L.219.82C.266.84.328.843.36.843S.453.84.5.82L.484.793C.477.781.5.762.508.758A.158.158 0 0 1 .57.742h.082L.605.777.656.805a.141.141 0 0 0-.07.008c.012.007.012.031 0 .039-.023.023-.07.039-.102.05a.662.662 0 0 1-.25 0C.203.891.156.875.129.852M.387.566C.375.605.398.621.445.641H.41c.004.012.004.02 0 .027C.402.656.395.641.379.645S.367.668.359.676C.352.668.348.648.34.645.32.641.313.656.309.668.305.66.305.652.309.641H.273C.32.621.344.605.332.566.313.559.305.586.301.602.301.586.293.563.289.563S.277.59.273.605c0-.019-.007-.05-.015-.05S.242.594.246.605C.238.594.238.578.234.563.219.539.219.527.219.52.219.504.223.488.234.48.23.445.25.426.273.418.285.402.305.387.328.387.332.375.344.371.359.371S.386.375.39.387c.023 0 .043.016.055.031.023.008.039.027.039.051C.492.488.5.504.5.52a.075.075 0 0 1-.008.027C.477.578.48.594.473.605.477.594.473.555.457.555.449.555.445.586.441.605.441.59.438.563.43.563S.418.586.414.602C.414.586.406.559.398.559" fill="#fff"/><path d="M.547.465.578.48A.032.032 0 0 1 .59.504C.578.504.57.496.566.488S.555.473.547.465" fill="#2d2f92"/><path d="M.305.316c.004.008 0 .016-.008.02C.266.34.25.336.246.328.23.336.219.348.207.359.223.348.23.344.234.344c.012 0 .016.004.02.012.012.016.012.02.012.02-.012.02-.02.023-.031.023C.211.391.188.383.188.375A.215.215 0 0 0 .16.41C.168.406.176.402.188.398s.031.004.051.004c-.02.008-.04.02-.051.02s-.02 0-.031-.004C.152.426.145.43.145.441.16.426.164.422.172.422l.035.02c0 .016-.004.02-.012.023C.176.477.168.477.164.473A.032.032 0 0 1 .137.457C.133.473.129.484.129.5.137.492.145.484.156.48S.191.477.207.473C.188.488.172.504.16.508s-.02 0-.031 0v.023C.145.512.152.508.16.512.184.516.184.52.184.52c.004.02.004.027 0 .035C.156.566.145.566.137.563a.15.15 0 0 0 .015.039C.152.59.156.578.16.574.172.563.188.555.199.539.195.563.191.582.184.59S.168.602.156.605C.16.617.168.628.176.64.168.621.168.613.168.609S.18.598.188.598C.203.59.207.59.207.59c.02.02.023.027.02.031C.211.645.199.656.191.656A.068.068 0 0 0 .215.68C.211.672.211.66.211.652A.136.136 0 0 0 .234.609c.008.024.012.043.008.055S.23.68.219.688l.027.02C.238.691.234.688.234.684S.246.668.254.672C.27.66.273.66.273.66.301.676.305.684.305.688.293.711.277.719.27.723.282.727.29.735.301.739.321.747.34.755.36.759L.41.742C.406.73.406.719.41.711L.43.672a.21.21 0 0 1 .004.043.052.052 0 0 1-.02.023.19.19 0 0 0 .027-.011C.438.715.438.707.441.695S.449.672.457.66c.004.02.004.031.004.043S.457.715.449.723C.453.719.461.715.469.711.465.699.465.691.465.68L.477.645C.484.66.484.672.484.684s0 .016-.008.02C.484.699.488.695.496.688.488.68.488.672.488.66S.492.637.496.621c.008.02.012.031.012.039s0 .016-.004.023A.064.064 0 0 0 .52.664C.516.656.512.648.512.637V.602c.012.016.016.027.02.035s0 .016-.004.023C.531.652.539.645.543.637.535.629.531.621.531.613V.578c.008.016.016.023.02.031C.555.602.551.594.547.586S.543.563.543.551a.1.1 0 0 1 .023.031.054.054 0 0 0-.007-.027.27.27 0 0 1-.012-.032c.016.012.023.02.027.023C.578.539.57.531.563.523S.555.504.551.492c.016.012.023.016.027.023a.03.03 0 0 1 .008.02.182.182 0 0 0 0-.066C.578.469.566.465.559.457S.547.441.539.434C.555.438.566.441.57.445.566.434.555.43.547.426S.531.414.523.406C.539.41.551.41.559.414.547.398.539.398.527.395S.512.387.504.379c.016 0 .023 0 .031.004C.52.371.512.371.504.367L.477.355h.031c.008 0 .012.004.02.012C.52.355.508.348.496.34.488.344.48.348.469.348S.453.344.441.34C.457.336.465.332.473.332s.012.004.02.008A.088.088 0 0 0 .461.324C.453.328.441.328.434.332S.418.332.406.328C.418.324.426.32.434.32S.449.316.461.324C.438.316.426.316.414.313S.395.301.383.293c.016 0 .031 0 .039.004s.016.008.023.02C.445.293.441.285.441.277A.107.107 0 0 1 .461.3c.008.023.02.027.027.035A.055.055 0 0 1 .48.316C.477.305.477.297.477.285c.008.016.016.023.02.031C.5.344.512.348.52.355.516.348.512.34.512.332s0-.02.004-.031C.52.316.527.328.527.336s0 .012-.008.02l.023.023C.539.371.539.363.539.352S.543.336.547.324C.551.34.555.352.555.359s0 .012-.008.02c.004.008.012.016.016.027 0-.012 0-.02.004-.027S.57.359.574.348l.008.039C.578.395.574.398.566.406l.016.028C.578.426.582.418.586.41S.594.391.602.379c0 .02 0 .031-.004.039S.594.434.582.438C.586.449.59.457.59.469.594.457.598.449.602.441S.613.426.621.414C.617.434.617.445.613.453s-.012.012-.02.02c0 .008 0 .02.004.027 0-.008.004-.016.012-.023L.637.449.621.492C.617.496.609.504.598.504v.023L.613.512.641.488C.633.508.629.52.621.527S.605.539.594.543C.594.551.59.563.59.57A.058.058 0 0 1 .609.551L.645.527C.633.547.625.559.617.566S.598.578.586.578L.574.605C.582.598.59.594.598.586S.625.578.637.57C.621.586.613.598.602.605S.586.613.57.613L.555.641A.06.06 0 0 1 .582.625.19.19 0 0 0 .625.609C.605.629.598.637.586.645s-.02.004-.035 0C.543.652.539.66.531.672.539.664.547.66.559.656S.59.652.605.648C.582.664.57.672.559.676s-.02.008-.035 0L.5.699A.075.075 0 0 1 .531.691L.578.688.527.711C.516.715.504.711.492.707L.465.723C.477.719.488.719.5.719s.031.004.047.004C.52.73.504.738.492.738S.469.738.457.73C.445.734.434.742.422.746.434.742.449.742.461.742l.051.012-.059.008C.438.762.43.758.414.75L.379.762C.398.77.418.77.434.773c.008.008.012.016.02.023C.422.793.391.781.359.77.328.781.297.793.266.797A.105.105 0 0 0 .281.773L.34.766.301.746C.285.742.273.734.258.727.246.734.234.746.219.746a.13.13 0 0 1-.062-.02C.18.719.191.711.207.711s.031.012.047.012A.204.204 0 0 1 .207.688C.203.695.188.711.172.711a.03.03 0 0 1-.02.008C.141.719.133.715.133.707.125.703.117.699.117.691.117.676.125.668.133.668.133.66.141.652.152.652a.03.03 0 0 1 .02.008C.152.648.133.652.121.648S.078.629.07.609c.023.004.043 0 .055.004s.023.02.039.027C.152.621.141.605.133.582c0 .008-.016.02-.031.02C.078.605.07.598.07.59.063.57.063.57.063.566.078.551.09.547.098.547.117.559.125.563.129.57.125.559.125.547.121.535.109.531.094.531.082.523S.051.492.047.473C.074.48.09.484.102.492s.012.02.02.031c0-.016 0-.031.004-.043-.009.004-.028.008-.04 0C.059.469.059.461.063.457.059.434.063.434.063.434.07.422.078.422.086.426a.024.024 0 0 1 .023 0c.016.02.02.027.02.035C.133.449.133.441.137.434.129.426.113.422.109.414S.098.379.098.363c.016.016.027.023.035.031S.137.418.141.43C.145.414.156.402.164.391.156.395.133.387.129.371.109.352.113.344.121.34.133.324.133.324.137.324.148.316.156.32.16.328.168.328.176.332.18.34.18.363.176.371.176.379.18.371.188.363.195.355.191.348.188.332.191.32S.207.289.219.281c0 .02.004.031 0 .043s-.016.02-.02.031A.161.161 0 0 1 .246.328C.242.32.246.305.258.297.277.281.285.285.289.289l.02.008zm.242.148L.578.48A.032.032 0 0 1 .59.504C.578.504.57.496.566.488S.555.473.547.465zM.254.676C.27.664.27.664.273.664.297.676.305.688.297.695.285.684.281.676.277.676.262.676.258.68.258.684.234.684.246.672.254.676zM.285.293c.02.008.02.008.023.012-.004.02-.012.031-.02.027C.293.316.297.313.293.309.277.293.266.293.262.297.27.285.285.285.285.293zM.246.359c.016.012.016.016.016.016C.254.391.238.402.23.395.242.383.246.379.246.375.238.355.23.352.223.355.234.344.25.352.246.359zM.125.344c.012-.02.016-.02.016-.02C.168.328.18.34.176.348.156.34.152.336.148.34.133.344.133.348.133.355zM.066.457c0-.023 0-.023.004-.027C.094.422.109.426.113.434.094.438.086.438.082.441.074.465.078.473.086.477.066.477.059.461.066.457zM.184.434C.204.442.2.446.2.446.195.469.184.477.176.473.184.461.188.457.188.453.176.434.168.43.16.434.172.422.188.426.184.434zM.156.52h.027c.004.02 0 .035-.008.035C.172.539.176.531.172.531.148.52.141.523.137.527.137.516.152.512.156.52zM.078.59C.063.574.066.574.066.574.082.551.098.547.102.555.09.563.082.566.082.57c.004.023.012.031.02.027C.086.605.074.598.078.59zm.109.012C.203.594.203.594.207.594.227.609.23.621.223.629.211.613.211.609.207.605c-.016 0-.02.004-.02.008zm-.05.101C.121.691.121.688.125.688.137.66.152.652.16.66.145.672.141.676.141.684.148.707.16.711.168.711.152.723.137.711.137.703zM.27.691zM.16.688zM.199.621zM.098.578zM.156.539zm.016-.09zM.094.453zM.148.355zM.23.371zM.277.313zm0 0" fill="#fff"/><path d="M.488.789L.504.82C.523.809.543.797.551.781.539.777.527.777.52.785S.5.797.488.789M.566.84L.551.82.555.816.57.836zM.543.836L.547.832.539.828zm.004.012L.535.828.543.824.566.84H.547l.004.008zM.531.855L.52.836.531.828.535.832.523.84.527.844.535.84h.004L.531.848v.004L.543.848.547.852zm-.016 0V.852L.523.848.527.855c-.02.004-.02.004-.023 0C.516.84.52.84.52.844L.516.848.52.852zm-.023.02L.484.852.496.848.5.852.488.855.492.859.5.855.504.859.492.863.496.867.508.863v.004zm-.02.004L.465.859.469.855.48.867.477.855.48.852.488.875H.484L.473.863.477.879zM.441.887L.434.863h.008L.45.879V.863L.453.859.461.883H.457L.453.867v.016L.449.887.441.867l.004.02zM.43.879L.422.871v.012zm.008.008L.434.891.43.883.422.887v.004H.418L.422.867h.004zM.402.895L.398.871h.004l.004.02.012-.004v.004zM.391.883L.387.875v.012zm.008.012H.395V.891H.383v.004H.379L.387.871h.004zM.363.875v.016h.004zM.359.871h.008c.008.016.008.016.008.02L.359.895zM.332.895V.871h.004l.008.016V.871h.004v.023H.344L.336.879zM.32.883V.875L.316.883zm.008.012H.324L.32.887H.313v.004H.309l.008-.02h.008zM.301.891L.305.867h.004L.305.891zM.285.875h.004V.867zM.281.887L.285.863.293.867.297.891H.293V.883L.285.887zM.262.883L.266.859.281.863v.004H.27v.004l.008.004H.266v.004l.012.004v.004zM.246.879L.254.863.246.859.25.855.266.859v.004H.258l-.004.02zM.223.871L.23.852h.004l.004.016.008-.012-.008.023L.234.875V.859L.227.875zM.207.863l.008-.02.016.008H.227L.219.848.215.855.227.859.223.863.215.859.211.863.223.867.219.871zM.184.855l.012-.02H.2L.195.852.207.84.215.844.203.863H.199L.207.848.195.859H.191L.195.84.188.855zM.164.848L.18.828.191.832v.004L.18.832.176.836.188.84.184.844.176.84.172.844.184.852.18.855zM.148.836l.016-.02.004.004L.16.828.176.824.18.828H.168l-.004.02L.16.844V.832H.156L.152.836zM.23.789C.219.797.203.789.199.785S.176.777.168.781C.176.797.191.809.215.82zm0 0" fill="#2d2f92"/></g></svg>