<svg xmlns="http://www.w3.org/2000/svg" width="1.6" height="1.6" viewBox="0 0 1.2 1.2" xmlns:v="https://vecta.io/nano"><defs><clipPath id="A"><path d="M0 0h1v1.199H0zm0 0"/></clipPath><clipPath id="B"><path d="M0 0h1.199v1.199H0zm0 0"/></clipPath></defs><g fill-rule="evenodd"><g fill="#cc9010"><g clip-path="url(#A)"><path d="M.703.133v.922L0 .945V.254zm0 0"/></g><g clip-path="url(#B)"><path d="M.785.09C.801.203.754.285.836.367c.094.094.168.039.277.059a14.61 14.61 0 0 1 0 .586c0 .063-.035.098-.094.102H.422c-.148 0-.187-.004-.195-.109L.172 1 .152.996H.145v.055c.012.07.07.129.145.141.047.008.469.004.555.004.16 0 .355.039.352-.211L1.201.63V.563L1.195.426C1.191.336 1.133.297 1.09.254L.949.113C.898.059.863.008.773.004s-.187 0-.277 0C.34.004.148-.035.145.203L.227.188C.223.188.23.148.238.133.266.086.32.09.391.09zm-.02.211H.762c.012.031.039.074.066.082H.766C.742.383.723.363.723.344S.742.301.766.301zm.016.547H1c.023 0 .043.02.043.043S1.023.93 1 .93H.781C.762.93.742.914.742.891S.762.848.781.848zm0-.176H1c.023 0 .043.02.043.043S1.023.758 1 .758H.781C.762.758.742.738.742.715S.762.672.781.672zm0-.18H1c.023 0 .043.02.043.039S1.023.574 1 .574H.781C.762.574.742.555.742.531S.762.492.781.492"/></g></g><path d="M.367.895A.12.12 0 0 0 .422.832C.391.844.371.863.367.895zM.227.316v.047h.242V.316L.352.273zM.172.445a.603.603 0 0 1 .172.043V.375H.172zm.352 0C.465.449.41.469.355.488V.375h.168zM.289.727l.059-.07C.355.641.363.633.371.617.375.609.387.578.395.578.41.578.426.605.422.621S.387.668.383.688s.02.035.035.035h.004C.504.703.555.594.594.582.398.523.293.594.207.691c0 .008.07.035.082.035zM.199.688A.315.315 0 0 1 .414.547C.398.531.375.52.352.508a.483.483 0 0 0-.098.074.27.27 0 0 0-.07.094zM.172.664a.384.384 0 0 1 .164-.16.544.544 0 0 0-.238-.051C.082.531.105.602.172.664zM.445.543a.39.39 0 0 1 .16.023.183.183 0 0 0 .008-.113A.74.74 0 0 0 .371.5.447.447 0 0 1 .445.543zM.352.918C.352.852.387.84.445.801.477.781.5.758.527.734S.57.684.594.652L.625.609C.629.602.656.57.656.57L.645.566c-.066 0-.121.168-.23.168H.41C.391.734.367.719.367.703S.379.668.387.656.41.629.41.617V.613C.41.605.402.594.398.594.395.613.344.676.328.695S.273.762.273.805c0 .035.047.094.078.113zM.105.605C.098.59.102.586.086.578S.063.563.047.57c.016.023.031.031.047.063s.109.156.168.168c0-.023.008-.043.02-.062A.28.28 0 0 1 .148.664L.105.605" fill="#fff"/></g></svg>