<svg xmlns="http://www.w3.org/2000/svg" xmlns:xlink="http://www.w3.org/1999/xlink" width="1.6" height="1.6" viewBox="0 0 1.2 1.2"><defs><clipPath id="a"><path d="M0 0h1.2v1.2H0Zm0 0"/></clipPath><symbol overflow="visible" id="b"><path style="stroke:none" d="M.406 0 .312-.14C.36-.157.406-.188.406-.25c0-.094-.078-.156-.187-.156H.062V0h.063v-.11h.109L.312 0ZM.312-.25c0 .047-.03.078-.093.078H.125v-.172h.094c.062 0 .093.047.093.094Zm0 0"/></symbol></defs><g clip-path="url(#a)"><path style="stroke:none;fill-rule:evenodd;fill:#27ae60;fill-opacity:1" d="M1.2.621c0 .41-.188.578-.598.578C.188 1.2 0 1.031 0 .621 0 .207.188 0 .602 0c.41 0 .597.207.597.621"/><path style="stroke:none;fill-rule:evenodd;fill:#fff;fill-opacity:1" d="M.617.113a.487.487 0 1 1-.504.488c0-.085.024-.163.059-.23A.171.171 0 0 1 .122.25c0-.09.077-.168.167-.168A.17.17 0 0 1 .457.25a.167.167 0 0 1-.168.168C.27.418.25.418.23.41a.418.418 0 0 0 .371.605.414.414 0 0 0 .016-.828Zm0 0"/></g><use xlink:href="#b" x=".37" y=".799" style="fill:#fff;fill-opacity:1"/></svg>