<svg xmlns="http://www.w3.org/2000/svg" height="1.6" width="1.6" fill="#009c4d" fill-rule="evenodd" xmlns:v="https://vecta.io/nano"><path d="M.243 0h1.113C1.49 0 1.6.11 1.6.244v1.113c0 .134-.11.244-.244.244H.243C.109 1.6 0 1.491 0 1.356V.244A.24.24 0 0 1 .01.176L.204.37v.878c0 .081.066.147.147.147h.896c.081 0 .147-.066.147-.147V.352c0-.081-.066-.147-.147-.147H.364L.17.011C.194.004.218 0 .243 0"/><path d="M.665.861H.598v.303c0 .04-.009.069-.026.088a.09.09 0 0 1-.069.028c-.031 0-.054-.01-.071-.03s-.025-.048-.025-.087V.437c0-.041.009-.071.028-.09S.483.319.523.319h.311c.043 0 .08.002.11.006s.058.011.083.022.056.03.079.053a.24.24 0 0 1 .052.081.27.27 0 0 1 .018.098c0 .07-.02.127-.06.169s-.1.072-.181.09c.034.018.066.045.097.08a.83.83 0 0 1 .082.113.81.81 0 0 1 .057.108c.013.032.02.054.02.066s-.004.025-.012.037-.019.022-.033.029-.03.011-.048.011-.039-.005-.054-.015a.15.15 0 0 1-.038-.039L.963 1.16.886 1.032C.862.985.837.949.816.925A.18.18 0 0 0 .749.874C.727.865.699.861.665.861zm.11-.398H.598v.26h.171A.49.49 0 0 0 .886.712C.917.704.941.69.957.671S.982.625.982.592c0-.026-.006-.049-.02-.07S.931.488.907.477A.4.4 0 0 0 .774.463"/></svg>