<svg xmlns="http://www.w3.org/2000/svg" height="1.6" width="1.6" xml:space="preserve"><path style="fill:#27ae60;fill-opacity:1;fill-rule:evenodd;stroke:none" d="M.64.446H.567V.124C.568.08.558.05.54.03A.096.096 0 0 0 .467 0 .093.093 0 0 0 .39.032C.374.052.365.082.365.123V.59H.75a.51.51 0 0 1 .123.013.147.147 0 0 1 .077.043c.017.02.026.049.026.084a.128.128 0 0 1-.08.122H.894L.89.855.888.855.886.856H.883L.882.858a.552.552 0 0 1-.126.01H.688a.436.436 0 0 1-.003.153h.198l.004-.001h.004l.046-.004a.29.29 0 0 0 .171-.08.253.253 0 0 0 .055-.087.29.29 0 0 0 .019-.104.25.25 0 0 0-.063-.18A.366.366 0 0 0 .927.47.374.374 0 0 0 1.03.385.894.894 0 0 0 1.178.15.229.229 0 0 0 1.2.081a.07.07 0 0 0-.013-.039.088.088 0 0 0-.034-.03A.11.11 0 0 0 1.102 0a.099.099 0 0 0-.058.016.156.156 0 0 0-.04.04L.96.13.877.265A.75.75 0 0 1 .8.378.196.196 0 0 1 .73.43a.238.238 0 0 1-.09.015ZM.264 1.2a.265.265 0 1 0 0-.53.265.265 0 0 0 0 .53" transform="matrix(1.33333 0 0 -1.33333 0 1.6)"/></svg>