<svg xmlns="http://www.w3.org/2000/svg" height="1.6" width="1.6" xml:space="preserve"><path style="fill:#27ae60;fill-opacity:1;fill-rule:evenodd;stroke:none" d="M1.2.58C1.2.169 1.012 0 .6 0S0 .168 0 .58c0 .412.188.62.6.62s.6-.208.6-.62zM.832.337.707.51a.17.17 0 0 1 .116.167C.823.793.734.863.59.863H.368V.336h.1V.49h.144L.723.337Zm-.111.34C.72.609.675.57.587.57H.468v.21h.118C.675.78.722.743.722.677zm.386-.093C1.107.235.948.093.6.093.25.092.092.234.092.582c0 .349.16.524.508.524s.507-.175.507-.524" transform="matrix(1.33333 0 0 -1.33333 0 1.6)"/></svg>