<?xml version="1.0" encoding="UTF-8" standalone="no"?>
<svg
   xmlns:dc="http://purl.org/dc/elements/1.1/"
   xmlns:cc="http://creativecommons.org/ns#"
   xmlns:rdf="http://www.w3.org/1999/02/22-rdf-syntax-ns#"
   xmlns:svg="http://www.w3.org/2000/svg"
   xmlns="http://www.w3.org/2000/svg"
   viewBox="0 0 6.3998666 6.3998666"
   height="6.3998666"
   width="6.3998666"
   xml:space="preserve"
   id="svg2"
   version="1.1"><metadata
     id="metadata8"><rdf:RDF><cc:Work
         rdf:about=""><dc:format>image/svg+xml</dc:format><dc:type
           rdf:resource="http://purl.org/dc/dcmitype/StillImage" /></cc:Work></rdf:RDF></metadata><defs
     id="defs6" /><g
     transform="matrix(1.3333333,0,0,-1.3333333,0,6.3998667)"
     id="g10"><path
       id="path12"
       style="fill:#332d2b;fill-opacity:1;fill-rule:evenodd;stroke:none"
       d="m 2.8919,3.2445 c 0.0235,-0.0289 0.055,-0.0071 0.0805,0.0301 0.0315,0.1111 0.0431,0.1681 0.1015,0.2395 0.0794,0.0981 0.1987,0.1497 0.3084,0.2118 0.0079,0.0053 0.0196,0.0053 0.0354,0 0.3382,0.1853 0.5735,0.3965 0.669,0.6423 C 4.1014,4.049 3.839,3.7908 3.3902,3.5736 3.3749,3.5782 3.3636,3.5782 3.3559,3.5736 3.2488,3.5206 3.1331,3.4764 3.0557,3.3917 2.9993,3.3301 2.9877,3.2814 2.9571,3.1856 2.9279,3.1487 2.8911,3.1292 2.8678,3.1762 2.8823,3.1989 2.8905,3.2219 2.8919,3.2445 Z M 4.1185,4.4748 C 4.1406,4.5771 4.1394,4.6851 4.1128,4.7996 4.2378,4.748 4.2917,4.6817 4.3129,4.6086 4.3948,4.6043 4.4306,4.4974 4.4782,4.4172 4.5354,4.4164 4.5468,4.3132 4.57,4.2361 4.6797,4.1769 4.6528,4.0493 4.6786,3.9478 4.7568,3.8974 4.7336,3.8078 4.7242,3.7233 4.7889,3.6836 4.7951,3.5858 4.7676,3.4554 4.8223,3.403 4.7991,3.3222 4.754,3.2338 4.7957,3.1272 4.771,3.0407 4.7163,2.9633 4.7452,2.9001 4.7288,2.8324 4.6811,2.7618 4.7038,2.6425 4.6449,2.5971 4.5944,2.5322 4.6157,2.442 4.5533,2.3683 4.4402,2.2924 4.434,2.2005 4.3543,2.1504 4.2293,2.109 4.2415,2.0577 4.1913,2.0115 4.0697,1.9712 4.0796,1.9176 3.9818,1.8734 3.8614,1.8309 3.8546,1.7657 3.7332,1.7544 3.5881,1.7544 3.5762,1.7124 3.4821,1.7198 3.3851,1.7289 3.3233,1.7033 3.2581,1.726 3.191,1.7711 L 3.1861,1.7762 C 3.2179,1.7756 3.2428,1.7807 3.2664,1.7867 3.1893,1.8306 3.1164,1.8782 3.0589,1.9409 3.0521,1.9616 3.0407,1.9823 3.0268,2.003 3.0311,1.9984 3.0353,1.9933 3.0402,1.9894 3.1504,1.8972 3.259,1.8213 3.3588,1.8578 3.4529,1.8496 3.5444,1.8437 3.5558,1.8797 c 0.1411,0 0.2593,0.0096 0.2662,0.0654 0.117,0.0366 0.2123,0.0746 0.2026,0.1208 0.1182,0.0343 0.167,0.0743 0.1554,0.1185 0.121,0.0354 0.199,0.0788 0.2049,0.1573 0.11,0.0652 0.1704,0.129 0.15,0.2064 0.049,0.0555 0.1065,0.0946 0.0842,0.197 0.0464,0.0606 0.0626,0.1187 0.0345,0.1735 0.0528,0.0663 0.0771,0.1405 0.0363,0.2321 0.0442,0.076 0.0669,0.1454 0.0136,0.1908 C 4.7302,3.4534 4.7242,3.5374 4.661,3.5711 4.6704,3.6439 4.6928,3.721 4.6168,3.7644 4.5918,3.8514 4.6176,3.9611 4.5111,4.0122 4.4887,4.0785 4.4773,4.1669 4.4218,4.1675 4.3756,4.2367 4.341,4.3285 4.2613,4.3322 4.2435,4.3849 4.2035,4.434 4.1185,4.4748 Z M 3.246,1.6761 3.2902,1.6466 C 3.2763,1.6424 3.2618,1.6384 3.2457,1.6362 3.2386,1.6495 3.2352,1.6611 3.2377,1.6696 3.2394,1.6724 3.2426,1.6747 3.246,1.6761 Z M 3.3111,1.5494 3.3636,1.5154 C 3.3225,1.5197 3.2746,1.5296 3.2615,1.5111 L 3.2587,1.5216 C 3.2788,1.5432 3.3021,1.5392 3.3259,1.5313 Z M 3.2822,1.4477 C 3.3009,1.4173 3.3282,1.3822 3.3517,1.3493 3.3429,1.3524 3.3338,1.3552 3.3256,1.3561 3.3092,1.3861 3.2941,1.4165 3.2822,1.4477 Z m 0.819,0.017 C 4.1567,1.4978 4.2163,1.5075 4.2766,1.5126 L 4.2446,1.4683 C 4.1987,1.4715 4.1508,1.47 4.1012,1.4647 Z M 4.1573,1.2725 C 4.2732,1.2852 4.3812,1.2756 4.4753,1.2268 4.1763,1.1577 4.1363,0.8461 3.909,0.7237 3.867,0.7002 3.8361,0.7129 3.8103,0.7421 3.8075,0.737 3.7984,0.7356 3.7834,0.7379 3.7658,0.7016 3.7451,0.6721 3.7117,0.6659 3.6876,0.6216 3.6638,0.6109 3.6403,0.6154 3.5501,0.5219 3.5368,0.6182 3.4455,0.58 3.3894,0.5417 3.3248,0.5105 3.2522,0.4878 3.1929,0.5477 3.1385,0.612 3.0957,0.6877 3.0614,0.7347 3.0954,0.7532 3.1323,0.7696 3.2443,0.7886 3.3384,0.8229 3.4174,0.8702 3.5062,0.9034 3.5189,0.8203 3.6065,0.9006 3.6295,0.8969 3.6527,0.9062 3.6763,0.9439 3.7091,0.9496 3.7293,0.9746 3.746,1.0063 3.7607,1.004 3.7695,1.0054 3.7721,1.0094 3.7973,0.9845 3.8273,0.974 3.8682,0.9938 3.998,1.0556 4.0649,1.1735 4.1573,1.2725 Z M 3.1723,0.4671 3.1524,0.4629 C 3.1269,0.4496 3.1022,0.4357 3.1003,0.4105 3.0594,0.4479 3.0209,0.4893 2.994,0.5468 3.056,0.5051 3.1147,0.4822 3.1723,0.4671 Z M 3.1008,0.4014 C 3.1022,0.3917 3.1068,0.3804 3.115,0.3671 3.1708,0.2565 3.2451,0.1658 3.325,0.0811 3.2236,0.1003 3.1224,0.1188 3.0107,0.2035 3.041,0.1295 3.0869,0.0782 3.1343,0.0303 3.0291,0.0612 2.9242,0.0935 2.8397,0.1672 2.8545,0.1097 2.886,0.0584 2.918,0.0071 2.8267,0.0411 2.7357,0.0757 2.6617,0.1358 2.6728,0.0882 2.6974,0.0439 2.7221,0 2.6169,0.004 2.5112,0.0468 2.3998,0.1962 2.2884,0.0468 2.1827,0.004 2.0775,0 2.1022,0.0439 2.1268,0.0882 2.1379,0.1358 2.0639,0.0757 1.9729,0.0411 1.8816,0.0071 1.9137,0.0584 1.9451,0.1097 1.9599,0.1672 1.8754,0.0935 1.7705,0.0612 1.6654,0.0303 1.7127,0.0782 1.7586,0.1295 1.7889,0.2035 1.6773,0.1188 1.5761,0.1003 1.4746,0.0811 1.5545,0.1658 1.6288,0.2565 1.6846,0.3671 1.6929,0.3804 1.6974,0.3915 1.6988,0.4014 1.7966,0.4272 1.8933,0.4547 1.9718,0.5153 1.9576,0.4663 1.927,0.4218 1.8958,0.3781 1.9845,0.4071 2.0733,0.4371 2.1453,0.4887 2.1342,0.4476 2.1101,0.4093 2.086,0.3719 2.1892,0.3753 2.2915,0.4122 2.4001,0.5406 2.5084,0.4122 2.6107,0.3753 2.7139,0.3719 2.6898,0.4093 2.6657,0.4476 2.6549,0.4887 2.7266,0.4371 2.8154,0.4071 2.9041,0.3781 2.8732,0.4218 2.8423,0.4663 2.8281,0.5153 2.9064,0.455 3.0033,0.4275 3.1008,0.4014 Z M 1.6994,0.4102 C 1.698,0.4354 1.6727,0.4493 1.6472,0.4629 L 1.6277,0.4671 C 1.6852,0.4825 1.7439,0.5051 1.806,0.5468 1.779,0.489 1.7402,0.4476 1.6994,0.4102 Z M 1.5474,0.4878 C 1.4746,0.5105 1.4105,0.5417 1.3541,0.58 1.2628,0.6182 1.2495,0.5219 1.1594,0.6154 1.1358,0.6109 1.112,0.6216 1.0879,0.6659 1.0545,0.6721 1.0338,0.7016 1.0162,0.7379 1.0012,0.7356 0.9921,0.737 0.9893,0.7421 0.9635,0.7129 0.9326,0.7002 0.8906,0.7237 0.6636,0.8461 0.6233,1.1577 0.3243,1.2268 0.4184,1.2756 0.5267,1.2852 0.6426,1.2725 0.735,1.1738 0.8019,1.0556 0.932,0.9938 0.9726,0.974 1.0026,0.9845 1.0278,1.0094 1.0304,1.0054 1.0392,1.004 1.0539,1.0063 1.0706,0.9746 1.0908,0.9496 1.1237,0.9439 1.1472,0.9062 1.1704,0.8969 1.1934,0.9006 1.281,0.8203 1.2937,0.9034 1.3825,0.8702 1.4615,0.8229 1.5557,0.7886 1.6676,0.7696 1.7045,0.7532 1.7385,0.7347 1.7042,0.6877 1.6611,0.612 1.607,0.5477 1.5474,0.4878 Z M 0.555,1.4683 0.523,1.5126 C 0.5834,1.5075 0.6429,1.4978 0.6985,1.4647 0.6491,1.47 0.6009,1.4715 0.555,1.4683 Z M 1.4743,1.3564 C 1.4661,1.3555 1.457,1.3527 1.4479,1.3493 1.4717,1.3827 1.4992,1.4185 1.5182,1.4491 1.5063,1.4173 1.491,1.3867 1.4743,1.3564 Z M 1.5386,1.5109 C 1.5256,1.5296 1.4774,1.5197 1.436,1.5154 L 1.489,1.5497 1.474,1.5313 C 1.4978,1.5392 1.5211,1.5432 1.5412,1.5216 Z M 1.5542,1.6362 C 1.5381,1.6387 1.5233,1.6424 1.5094,1.6466 L 1.5537,1.6761 C 1.5571,1.6744 1.5605,1.6724 1.5622,1.6696 1.5647,1.6611 1.5613,1.6495 1.5542,1.6362 Z M 1.6095,1.7714 C 1.542,1.726 1.4766,1.7033 1.4145,1.7289 1.3175,1.7198 1.2234,1.7124 1.2115,1.7544 1.0664,1.7544 0.9451,1.7657 0.9383,1.8309 0.8178,1.8734 0.72,1.9176 0.7299,1.9712 0.6083,2.0115 0.5581,2.0577 0.5703,2.109 0.4453,2.1504 0.3657,2.2005 0.3594,2.2924 0.2463,2.3683 0.184,2.442 0.2052,2.5322 0.1548,2.5971 0.0958,2.6425 0.1185,2.7618 0.0709,2.8324 0.0544,2.9001 0.0833,2.9633 0.0286,3.0407 0.004,3.1272 0.0456,3.2338 6e-4,3.3222 -0.0227,3.403 0.032,3.4554 0.0045,3.5858 0.0108,3.6836 0.0754,3.7233 0.066,3.8078 0.0428,3.8974 0.121,3.9478 0.1468,4.0493 0.1199,4.1769 0.2296,4.2361 0.2529,4.3132 0.2642,4.4164 0.3214,4.4172 0.3691,4.4974 0.4048,4.6043 0.4867,4.6086 0.508,4.6817 0.5618,4.748 0.6868,4.7996 0.6602,4.6851 0.6588,4.5768 0.6812,4.4745 0.5964,4.434 0.5564,4.3849 0.5389,4.3322 0.4589,4.3285 0.4243,4.2367 0.3781,4.1675 0.3226,4.1669 0.3112,4.0785 0.2889,4.0122 0.1823,3.9611 0.2081,3.8514 0.1831,3.7644 0.1071,3.721 0.1295,3.6439 0.1389,3.5711 0.0757,3.5374 0.0697,3.4534 0.0964,3.3415 0.0431,3.2961 0.0658,3.2267 0.11,3.1507 0.0692,3.0591 0.0935,2.9849 0.1463,2.9186 0.1182,2.8638 0.1344,2.8057 0.1809,2.7451 0.1585,2.6427 0.216,2.6036 0.265,2.5481 0.2446,2.4707 0.305,2.4069 0.415,2.3417 0.4209,2.2632 0.4989,2.2198 0.6199,2.1844 0.6083,2.1402 0.6571,2.1002 0.7753,2.0659 0.7656,2.0197 0.8609,1.9817 0.978,1.9451 0.9848,1.8893 1.103,1.8797 1.2441,1.8797 1.2555,1.8437 1.347,1.8496 1.4411,1.8578 1.5409,1.8213 1.6495,1.8972 1.7595,1.9894 1.7646,1.9933 1.7688,1.9984 1.7731,2.003 1.7592,1.9823 1.7478,1.9616 1.741,1.9409 1.6835,1.8782 1.6106,1.8306 1.5338,1.7867 1.5571,1.7807 1.5823,1.7756 1.6138,1.7762 Z M 0.7135,4.3673 C 0.8087,4.1219 1.044,3.911 1.3819,3.7259 c 0.0159,0.0053 0.0275,0.0053 0.0354,0 C 1.527,3.6638 1.6464,3.6122 1.7257,3.5141 1.7841,3.4427 1.7957,3.3857 1.8272,3.2746 1.857,3.2312 1.895,3.2088 1.9188,3.2635 1.9145,3.2882 1.9091,3.3131 1.9188,3.3338 1.938,3.3089 1.9477,3.2817 1.9451,3.2516 1.9196,3.2321 1.9264,3.2043 1.9321,3.1762 1.9089,3.1292 1.872,3.1487 1.8428,3.1856 1.8122,3.2814 1.8009,3.3301 1.7442,3.3917 1.6668,3.4764 1.5511,3.5206 1.444,3.5736 1.4366,3.5782 1.425,3.5782 1.4097,3.5736 0.9615,3.7905 0.699,4.0487 0.7135,4.3673 Z M 1.9327,3.3664 C 1.9324,3.3826 1.929,3.3979 1.9233,3.4126 1.9596,3.3939 1.9925,3.3755 2.0027,3.3551 1.978,3.3625 1.9548,3.3659 1.9327,3.3664 Z m -0.01,0.0479 C 1.9131,3.4393 1.8964,3.4617 1.8743,3.4832 1.8984,3.4852 1.9233,3.486 1.9494,3.4818 1.9726,3.4662 1.9925,3.4458 2.0064,3.4169 1.9723,3.4078 1.9474,3.4112 1.9227,3.4143 Z M 1.9749,3.4937 C 1.9585,3.5101 1.9327,3.5254 1.9054,3.5408 1.9324,3.5368 1.9587,3.5328 1.995,3.5436 1.9803,3.5793 1.9585,3.6034 1.9332,3.6218 1.9928,3.6349 2.0534,3.6598 2.0883,3.6635 2.1254,3.6632 2.1438,3.6454 2.1356,3.6023 2.1081,3.5921 2.0718,3.5963 2.0384,3.5972 2.0373,3.5736 2.0531,3.5549 2.0854,3.5413 2.058,3.5107 2.0177,3.4999 1.9749,3.4937 Z M 1.9397,3.7874 C 1.8921,3.7738 1.8437,3.7655 1.8068,3.7817 1.8609,3.7967 1.9089,3.795 1.9397,3.7874 Z M 1.7504,3.8565 1.7456,3.8835 1.787,3.8724 C 1.7731,3.8682 1.7606,3.8628 1.7504,3.8565 Z M 1.8802,3.8837 C 1.8496,3.8934 1.8255,3.9076 1.8099,3.928 L 1.8791,3.9302 C 1.8805,3.926 1.8842,3.9214 1.8901,3.9172 1.8556,3.9169 1.8643,3.9016 1.8802,3.8837 Z M 1.8771,3.9813 1.8462,3.9798 h -3e-4 L 1.8394,3.979 H 1.838 L 1.8329,3.9781 1.8315,3.9779 C 1.7838,3.9702 1.7286,3.9487 1.6736,3.9027 1.673,4.0079 1.7076,4.0893 1.8663,4.0859 1.8496,4.1068 1.8397,4.1255 1.8757,4.1258 1.8655,4.1343 1.8612,4.1426 1.8632,4.1511 1.8524,4.1454 1.8411,4.142 1.8238,4.1539 1.8051,4.1771 1.7804,4.2021 1.8536,4.1981 1.908,4.2029 1.8187,4.29 1.9103,4.2426 1.9485,4.2231 1.9369,4.2426 1.9352,4.2545 1.9185,4.2749 1.91,4.2928 1.9587,4.29 1.9726,4.2919 1.9811,4.301 1.9857,4.3149 2.001,4.3078 2.0171,4.3089 2.0356,4.3282 2.056,4.3172 2.0747,4.3038 2.0857,4.2809 2.1549,4.3231 2.2363,4.3285 2.3304,4.3002 2.4695,4.2837 2.6079,4.2738 2.7283,4.3756 2.7317,4.3384 2.7309,4.3019 2.7003,4.2707 2.7133,4.2701 2.7261,4.2695 2.7394,4.2693 2.7431,4.2279 2.7125,4.2024 2.6847,4.176 2.706,4.1814 2.7272,4.1871 2.7488,4.1924 2.7448,4.1675 2.7343,4.1448 2.7201,4.1238 l -8e-4,0.008 C 2.6025,4.0448 2.4678,4.053 2.3323,4.0671 2.2411,4.0915 2.1617,4.087 2.0945,4.0507 2.0837,4.0703 2.0656,4.0816 2.0455,4.0912 2.0276,4.0745 2.012,4.074 1.997,4.0802 1.9928,4.0677 1.9843,4.0601 1.9709,4.0584 1.9236,4.0606 1.9318,4.0456 1.9483,4.0277 1.9497,4.0178 1.9613,4.0008 1.9239,4.0178 1.8403,4.0558 1.9111,3.9923 1.8771,3.9813 Z M 2.7023,3.9821 2.7074,3.9671 2.6773,3.9606 Z M 2.7196,3.9268 C 2.7363,3.8687 2.7519,3.8358 2.8664,3.8154 2.8409,3.7874 2.8117,3.7638 2.7771,3.7477 2.8009,3.7052 2.8329,3.6913 2.8695,3.6899 2.8556,3.6816 2.8423,3.672 2.8287,3.655 2.6824,3.6845 2.7397,3.74 2.6583,3.8616 2.6819,3.882 2.704,3.9033 2.7196,3.9268 Z M 2.8242,3.6255 C 2.8494,3.6119 2.878,3.6048 2.91,3.6043 2.8947,3.5759 2.8738,3.5484 2.8397,3.5229 2.8826,3.5116 2.9174,3.505 2.9511,3.4994 2.9171,3.4841 2.8956,3.4614 2.8865,3.4313 2.8945,3.4157 2.8998,3.3999 2.903,3.3843 2.88,3.388 2.8556,3.3928 2.8281,3.3993 2.861,3.4211 2.8811,3.4447 2.8962,3.469 2.8604,3.4696 2.829,3.4775 2.802,3.4934 2.8202,3.5209 2.838,3.5331 2.857,3.5427 2.8213,3.5439 2.7899,3.5558 2.7672,3.5923 2.7882,3.6011 2.8071,3.6125 2.8242,3.6255 Z M 2.9058,3.363 C 2.9078,3.3355 2.9024,3.308 2.8896,3.2805 2.8865,3.2939 2.8811,3.3072 2.8738,3.3208 2.8794,3.3375 2.8899,3.3514 2.9058,3.363" /></g></svg>