<svg xmlns="http://www.w3.org/2000/svg" height="17.6" width="17.6" xmlns:v="https://vecta.io/nano"><path d="M8.318 2.755c-.163.095-.378.095-.608.061-.174.222-.397.2-.655.218.126.039.307.055.324.149.01.055-.002.122.096.122-.019.055-.013.116.019.177.676.069.814-.441.349-.564.264.05.409-.019.476-.164z" fill="none" stroke="#332d2b" stroke-linejoin="round" stroke-miterlimit="1145.91577148" stroke-width="1.286"/><path d="M8.318 2.755c-.163.095-.378.095-.609.062-.174.222-.397.2-.655.218.126.039.307.055.324.149.01.055-.002.123.096.123-.02.055-.013.116.019.177.676.069.815-.441.349-.564.264.05.409-.019.476-.164" fill="#fff" fill-rule="evenodd"/><path d="M10.392 5.944c.077.181.203.107.302-.037.105-.368.142-.556.335-.792.263-.324.658-.495 1.021-.7.026-.018.065-.018.116 0 1.726-.945 2.64-2.092 2.299-3.551.413.171.59.39.662.632.27.014.389.367.546.633.19.003.228.344.305.598.363.197.273.618.358.953.259.167.183.464.152.743.214.131.233.455.143.886.181.173.104.442-.046.733.138.353.056.639-.125.895.097.209.042.432-.116.666.075.394-.121.544-.286.758.069.299-.136.542-.51.793-.021.303-.285.469-.698.607.041.169-.126.322-.528.455.033.177-.291.323-.69.464-.022.215-.423.253-.903.253-.039.139-.351.114-.671.085-.336.138-.708-.154-1.083-.507l-.045-.053a.94.94 0 0 1 .109.239c.195.242.444.425.705.593a.89.89 0 0 1-.272.041c.128.171.335.268.514.392-.138-.014-.301-.047-.341.018-.026.108.159.331.302.532-.08-.029-.16-.045-.227.038.078.359.239.692.436 1.015.023.071.092.088.207.048l.618-.479c.095-.076.201-.055.31-.019l.089.066c.27-.231.54-.546.81-.854.248-.273.529-.328.816-.353-.176.231-.331.494-.455.8.407-.052.785-.025 1.113.144-.99.23-1.122 1.259-1.874 1.665-.138.078-.24.035-.326-.061-.01.017-.04.022-.088.015-.058.12-.128.218-.238.237-.079.146-.157.182-.237.167-.297.31-.341-.009-.642.118-.268.181-.589.312-.97.387-.124.064-.24.133-.124.317.184.366.43.666.694.946-.335-.064-.671-.125-1.039-.405.101.245.251.414.408.573-.349-.103-.694-.21-.975-.453.05.19.154.36.26.529-.302-.112-.602-.226-.847-.425.038.157.118.304.201.449-.349-.013-.698-.154-1.067-.648-.369.494-.718.636-1.067.648.083-.145.163-.292.201-.449-.245.199-.546.314-.847.425.106-.169.211-.339.26-.529-.281.243-.626.35-.975.453.157-.159.307-.328.408-.573-.369.28-.704.341-1.039.405.264-.281.51-.581.694-.946.117-.183 0-.252-.124-.317-.381-.074-.702-.206-.97-.387-.301-.127-.345.192-.642-.118-.081.015-.158-.021-.237-.167-.111-.019-.18-.117-.239-.237-.048.007-.078.002-.088-.015-.086.097-.188.14-.326.061-.752-.406-.884-1.435-1.874-1.665.328-.169.706-.196 1.113-.144-.124-.305-.279-.568-.455-.8.287.025.568.08.816.353l.81.854.089-.066c.109-.035.215-.057.31.019l.618.479c.116.041.185.024.207-.048.197-.322.357-.655.435-1.015-.067-.083-.147-.067-.227-.038.143-.201.329-.424.302-.532-.041-.065-.204-.032-.341-.018.179-.123.386-.22.514-.392-.107.002-.192-.019-.272-.041.261-.168.51-.351.705-.593a.96.96 0 0 1 .109-.239l-.045.053c-.375.353-.747.645-1.083.507-.321.029-.632.054-.671-.085-.48 0-.882-.038-.903-.253-.399-.141-.723-.287-.69-.464-.402-.133-.569-.286-.528-.455-.413-.137-.677-.304-.698-.607-.374-.251-.579-.494-.51-.793-.165-.215-.361-.364-.286-.758-.158-.235-.213-.458-.116-.666-.181-.256-.263-.542-.125-.895-.15-.292-.227-.56-.046-.733-.09-.431-.07-.754.143-.886-.031-.279-.107-.576.153-.743.085-.335-.005-.757.358-.953.077-.254.115-.595.305-.598.156-.266.276-.619.546-.633.071-.242.248-.461.662-.632-.34 1.459.574 2.606 2.299 3.551.051-.018.091-.018.117 0 .363.205.757.376 1.02.7.193.236.231.424.335.792.099.143.224.218.302.037-.018-.107-.041-.215.046-.292.013-.165-.06-.308-.191-.435.121-.01.247-.008.388.039-.037-.083-.154-.156-.285-.23.088.013.176.026.294-.01-.055-.131-.136-.216-.232-.278.193-.024.383-.051.502-.201-.11-.052-.163-.124-.161-.214.117.003.239.021.332-.02.029-.166-.034-.234-.16-.235-.278.034-1.019.505-1.104-.175.294.083.541.129.627.039-.191-.026-.336-.083-.414-.186.164-.002.328-.008.492-.039.137-.077-.409-.325-.943.121 0-.347.114-.617.638-.605-.056-.069-.089-.132.031-.133-.035-.027-.048-.055-.041-.083-.035.019-.073.03-.129-.01-.063-.076-.144-.16.098-.147.179-.016-.115-.303.187-.146.127.064.088 0 .082-.04-.055-.067-.083-.127.078-.117.047-.006.074-.037.088-.082.051.024.105.02.166-.045.067.037.13.082.166.157.229-.14.497-.158.809-.064.459.055.918.087 1.316-.249.012.123.009.244-.093.347l.13.005c.011.136-.089.221-.182.308l.212-.055c-.027.17-.144.305-.275.435.29.494.06.704.664.812-.084.093-.181.171-.295.224a.34.34 0 0 0 .306.191c-.063.038-.125.084-.187.19.092.06.198.091.321.093-.05.094-.121.185-.233.269a3.83 3.83 0 0 0 .368.078c-.112.05-.183.125-.212.226.09.184.085.369-.019.555z" fill="none" stroke="#332d2b" stroke-linejoin="round" stroke-miterlimit="1145.91577148" stroke-width="1.286"/><g fill-rule="evenodd"><path d="M10.392 5.944c.077.181.203.107.302-.037.105-.368.143-.556.335-.792.263-.324.658-.495 1.021-.7.026-.018.065-.018.116 0 1.726-.945 2.64-2.092 2.299-3.551.413.171.59.39.662.632.27.014.389.367.546.633.19.003.227.344.305.598.363.197.272.618.358.953.259.167.183.464.152.743.214.132.233.455.143.886.181.174.104.441-.046.733.138.353.055.639-.125.895.097.209.042.432-.116.666.075.395-.121.544-.286.759.069.299-.136.542-.51.793-.021.303-.285.469-.698.607.041.169-.126.322-.528.455.033.177-.291.323-.69.464-.022.215-.423.253-.903.253-.039.139-.351.115-.671.085-.336.138-.708-.153-1.083-.506l-.045-.053c.048.079.087.158.109.239.195.242.444.425.705.593-.08.022-.165.043-.272.041.128.171.335.268.514.392-.137-.014-.301-.047-.341.018-.027.108.159.331.302.532-.08-.029-.16-.045-.228.037.078.359.239.692.435 1.015.023.071.092.088.207.048l.618-.48c.095-.076.201-.054.31-.019l.089.065c.27-.231.54-.546.81-.853.248-.273.529-.328.816-.353-.176.231-.331.494-.455.8.407-.052.785-.025 1.113.144-.99.229-1.123 1.259-1.874 1.665-.138.078-.24.035-.326-.061-.01.017-.04.021-.088.015-.059.12-.128.218-.239.237-.079.146-.157.182-.237.167-.297.31-.341-.009-.642.118a2.61 2.61 0 0 1-.97.387c-.124.064-.24.133-.124.316.184.366.43.666.694.946-.335-.064-.67-.125-1.039-.405.101.245.251.414.409.573-.349-.103-.694-.21-.975-.453.049.19.154.36.26.529-.302-.111-.602-.226-.847-.425.037.157.117.304.201.449-.349-.013-.698-.154-1.067-.649-.369.494-.718.636-1.067.649a1.74 1.74 0 0 0 .201-.449c-.245.199-.546.314-.847.425.106-.169.211-.339.26-.529-.281.243-.626.35-.975.453.157-.16.308-.329.409-.573-.369.281-.704.341-1.039.405.264-.281.51-.581.694-.946.117-.183 0-.252-.124-.316a2.61 2.61 0 0 1-.97-.387c-.301-.127-.345.192-.642-.118-.081.015-.158-.021-.237-.167-.111-.02-.18-.118-.239-.237-.048.007-.078.002-.088-.015-.086.097-.188.139-.326.061-.752-.406-.885-1.435-1.874-1.665.328-.169.706-.197 1.113-.144-.124-.305-.279-.568-.455-.8.287.025.568.08.816.353l.81.853.089-.065c.109-.035.215-.057.31.019l.618.48c.116.04.185.024.207-.048.197-.322.357-.655.435-1.015-.067-.083-.147-.067-.228-.037.143-.201.328-.424.302-.532-.04-.065-.204-.032-.341-.018.179-.123.386-.22.514-.392a.89.89 0 0 1-.272-.041c.261-.168.51-.351.705-.593.022-.081.061-.16.109-.239l-.045.053c-.375.353-.747.645-1.083.506-.321.029-.632.054-.671-.085-.48 0-.881-.038-.903-.253-.399-.141-.723-.287-.69-.464-.402-.133-.569-.286-.528-.455-.413-.138-.677-.303-.698-.607-.374-.251-.579-.494-.51-.793-.165-.215-.361-.364-.286-.759-.158-.234-.213-.458-.116-.666-.181-.256-.263-.542-.125-.895-.15-.292-.227-.56-.046-.733-.09-.431-.07-.754.143-.886-.031-.279-.107-.576.153-.743.085-.335-.005-.757.357-.953.077-.254.115-.595.305-.598.157-.266.276-.619.546-.633.071-.242.248-.461.661-.632-.34 1.459.574 2.606 2.299 3.551.051-.018.091-.018.117 0 .363.205.757.376 1.02.7.193.236.231.424.335.792.099.143.225.217.302.037-.018-.107-.042-.215.045-.292.013-.165-.061-.308-.191-.435.121-.01.246-.008.388.039-.037-.083-.154-.156-.285-.229.088.013.176.026.294-.01-.054-.131-.136-.216-.232-.278.193-.024.383-.051.502-.201-.11-.052-.163-.123-.161-.214.117.003.239.021.332-.02.029-.166-.034-.234-.16-.235-.278.034-1.019.505-1.104-.175.294.083.541.129.627.039-.191-.026-.336-.083-.414-.186a2.89 2.89 0 0 0 .492-.039c.136-.077-.409-.325-.943.121 0-.347.114-.617.638-.605-.056-.069-.089-.131.031-.133-.035-.027-.048-.055-.041-.083-.035.019-.073.03-.129-.009-.063-.076-.144-.159.098-.147.179-.016-.115-.303.187-.146.127.064.088 0 .082-.04-.055-.067-.083-.127.078-.117.047-.006.073-.037.088-.082.051.024.105.02.166-.045.067.036.13.081.166.157.229-.14.497-.158.809-.064.46.054.918.087 1.316-.249.012.123.009.245-.093.347l.13.005c.011.136-.089.221-.182.308l.212-.054c-.028.17-.144.305-.275.435.29.494.06.704.664.812-.084.093-.181.171-.295.225a.34.34 0 0 0 .306.191c-.063.037-.125.084-.187.19.092.06.198.091.321.093a.79.79 0 0 1-.233.269c.141.038.257.059.368.078-.112.05-.183.125-.212.226.09.184.085.369-.019.555" fill="#fff"/><path d="M13.337 7.424c-.366 1.562-2.258 2.751-4.537 2.751s-4.17-1.19-4.536-2.751h.418C5.043 8.822 6.75 9.88 8.8 9.88s3.758-1.058 4.119-2.457z" fill="#332d2b" stroke="#332d2b" stroke-miterlimit="22.92558479" stroke-width=".288"/></g></svg>