<svg xmlns="http://www.w3.org/2000/svg" height="6.4" width="6.4" fill="#332d2b" fill-rule="evenodd" xmlns:v="https://vecta.io/nano"><path d="M2.903.861c.038 0 .038.064 0 .064s-.038-.064 0-.064"/><path d="M4.812 1.239c.38-.287.65-.633.58-1.165.015-.002.029.007.04.046.083.52-.22.846-.584 1.14-.03.008-.047.006-.036-.021zm.052.046c-.028.035-.024.081-.015.127.41-.231.714-.536.729-1.048.006-.121-.037-.199-.113-.248.074.59-.252.888-.601 1.169zm.023.151c-.001.015.011.021.025.025.409-.283.748-.618.726-1.106.001-.02-.006-.028-.015-.033.015.493-.304.849-.735 1.113zm.067.123c-.016-.04-.004-.076.021-.112.385-.268.702-.576.708-1.065.055.042.076.126.069.24-.081.457-.41.72-.798.937zm.057.004c.405-.217.709-.514.787-.952.013.374-.297.7-.764.975-.021 0-.056.009-.023-.023zm.014.163c.003-.062.013-.116.057-.137.419-.241.733-.535.753-.977.124.457-.181.82-.81 1.113zm.061.011c-.009.019-.015.039-.019.057.695-.338.841-.651.854-.958-.065.362-.315.671-.835.9zm.877-.85c-.042.372-.32.685-.879.929-.003.021-.012.034-.025.05.001.018.013.027.036.025.539-.15 1.015-.542.868-1.004zm-.827 1.029c-.04.015-.04.026.002.031.541-.158.803-.426.893-.762-.139.352-.434.599-.895.731zm-.013.068c.464-.125.8-.358.937-.758.113.393-.431.791-.964.873-.038-.015-.01-.062.027-.115zm-.006.282c.591-.013 1.129-.319 1.008-.755-.121.329-.421.565-.996.659-.007.022-.012.043-.038.064-.007.02.003.03.025.032zm.003-.134c.44-.12.834-.276.968-.643-.071.313-.397.526-.944.652-.027.004-.034.001-.024-.01zm.001.18c.431-.05.797-.114.997-.461-.125.285-.44.44-.975.474-.027.001-.034-.003-.022-.013zm-.012.049c.477-.029.865-.143 1.022-.466.036.024-.015.164-.08.265-.143.254-.532.288-.991.296-.018-.034.011-.061.049-.095zm-.101.268c.429.096.731.05.944-.092.104-.09.166-.19.177-.302-.218.268-.585.357-1.053.308l-.068.085zm.119-.138c.438-.008.828-.06.979-.328.001.024-.001.048-.019.071-.151.233-.53.288-.986.282-.058-.023-.049-.032.027-.025zm-.183.297c.003-.025.036-.05.063-.074.467.097.8.02 1.07-.139-.003.061-.045.129-.145.205-.316.171-.649.128-.988.008zm1.121-.287c-.255.187-.582.268-1.037.161-.024-.007-.022 0 .005.022.401.116.944-.009 1.032-.183zm-1.237.43c.045-.014.061-.041.073-.07.469.179.83.172 1.102.013-.091.275-.61.345-1.174.057zm.117-.113c.477.172.807.132 1.053-.031-.123.231-.673.214-1.068.059-.016-.037.003-.034.015-.028zm-.211.274c.3.239.606.302.888.246.164-.04.247-.115.251-.204-.283.16-.646.11-1.066-.092l-.074.05zm.095-.115c.41.197.76.237 1.045.106-.14.109-.526.189-1.031-.075-.012-.007-.017-.017-.014-.031zm.859.393c-.259.05-.523.092-.985-.257-.019-.014-.007.009-.011.02.375.344.889.355.996.237zm-1.01-.203c-.033.024-.073.04-.121.049.559.489.956.332 1.06.247a1.18 1.18 0 0 1-.939-.296zm.755.413c-.075.104-.592.033-.853-.301.282.243.566.367.853.301zm-.905-.276c.279.286.576.382.886.348-.105.144-.551.173-.973-.314.057 0 .081-.014.087-.034zm-.217.135c.029.006.052 0 .067-.019.206.238.451.392.753.423-.066.115-.515.056-.819-.404zm.576.554c-.117.039-.376.03-.693-.422-.011-.027.007-.039.057-.036.195.256.411.386.636.458zm-.336.046a1.32 1.32 0 0 1-.431-.411c-.003.034-.01.059-.023.078.257.317.36.333.454.333zm-.481-.249c-.006.021-.013.041-.028.057.118.144.201.196.264.198-.1-.066-.176-.153-.236-.255zm.361-.404c-.014.008-.022.015-.021.023.351.339.56.4.734.394-.271-.042-.503-.197-.713-.417zm-.139.107c-.018-.009-.033-.013-.021.014.251.316.463.421.663.459-.252-.087-.476-.228-.643-.472zm.081.557c-.081-.056-.177-.112-.239-.215-.005-.009-.003-.02.011-.013.067.087.149.158.228.228zm.262-.018c-.123-.054-.218-.047-.473-.398-.01-.022-.034-.062.014-.013.133.197.291.321.458.411zm-.183-2.551c.101-.054.195-.112.282-.175.024.009.048.012.072 0a.28.28 0 0 0-.04.131 2.01 2.01 0 0 1-.263.128c.003-.039-.014-.067-.05-.084zm.074.128c.029.052.027.084.028.101l.309-.124c.031-.032.047-.064.033-.096-.029-.006-.057-.013-.077-.028a2.54 2.54 0 0 0-.294.148zm.059.131c.041.036.035.071.022.107.123-.032.255-.061.344-.102.005-.032.009-.064.033-.101-.03-.002-.058-.012-.084-.032a1.86 1.86 0 0 1-.316.128zm.071.243a.16.16 0 0 0-.01-.104 2.31 2.31 0 0 0 .322-.096c.04-.012.055.008.064.037-.026.025-.043.057-.056.091-.096.032-.206.054-.321.072zm.005.161c.017-.045.015-.083-.008-.114.124-.019.244-.039.332-.076.113.015.081.065.027.121-.074.029-.213.049-.351.069zm.017.042c.014.024.014.051.001.079.108-.011.214-.022.299-.005.094-.056.091-.095.002-.119-.084.024-.2.04-.302.045zm-.012.133c.096-.018.207-.017.317-.017.112.052.049.09-.003.128-.104-.015-.207-.03-.311-.027.016-.028.026-.056-.003-.084zm-.015.121c.008.034-.003.064-.03.089l.31.064c.068-.024.118-.053.037-.112-.101-.021-.207-.033-.317-.041zm-.044.138c-.008.023-.018.046-.043.069a1.19 1.19 0 0 1 .275.099c.112-.019.133-.053.065-.103l-.297-.066zm-.067.106c-.013.031-.04.058-.075.081l.29.121c.067-.021.152-.038.067-.101-.089-.037-.18-.072-.282-.101zm-.085.116c-.011.023-.025.045-.054.054a1.62 1.62 0 0 1 .262.185c.091-.008.14-.028.097-.072-.076-.065-.193-.115-.305-.167zm-.153.152c.035-.015.056-.037.064-.066a1.57 1.57 0 0 1 .252.175c-.005.025-.003.05.005.076-.025.025-.069.023-.116.017a1.09 1.09 0 0 1-.205-.201zm-.042.025c.065.077.144.152.232.225-.002.012-.003.025.003.05-.02.023-.048.033-.086.029a1.86 1.86 0 0 1-.247-.249c.039-.015.076-.031.098-.056zm-.113.104c.067.089.139.166.215.237-.009.022-.011.043-.007.065a.25.25 0 0 1-.101-.001c-.039-.037-.075-.082-.108-.133v-.168zm-.014.378c.056.03.084.021.084-.025-.02-.038-.042-.074-.071-.102l-.013.128zm-.343-1.357c.212.069.163-.194.236-.293a.93.93 0 0 1 .349-.295c.062-.013.077.01.046.068-.169.084-.308.201-.384.37l.03.02c.111-.186.239-.282.373-.345.073-.028.051.039.035.101a1.08 1.08 0 0 0-.35.268l.04.033a.87.87 0 0 1 .323-.249c.073-.033.081.006.061.079-.128.04-.232.116-.334.193l.017.03a2.64 2.64 0 0 1 .327-.179c.031.009.053.023.02.068-.083.052-.197.104-.317.158l.014.034c.087-.053.181-.091.291-.103.065.001.048.037.02.079-.102.023-.197.052-.276.091l.003.033c.081-.033.165-.056.251-.065.047.002.054.022.02.059-.1.012-.198.028-.286.063l.007.042c.084-.024.175-.037.271-.043.047.029.025.05-.015.068-.097.005-.198.018-.301.035l-.011.034.279-.012c.091 0 .085.044.002.075a2.06 2.06 0 0 0-.31-.022l-.003.036.282.019c.053.036.029.057-.028.07l-.325-.039v-.409h-.381l.025-.068zm.644.549c.056.024.021.048-.028.072l-.259-.059v-.052l.288.039zm-.07.103c.059.035.027.048-.031.054l-.187-.065v-.047c.073.026.145.044.218.058zm-.081.085c.051.042.038.06-.039.055a.7.7 0 0 1-.098-.064v-.05l.137.059zm-.137.115l.017.018c.035.002.053-.013.053-.046a.21.21 0 0 1-.069-.049v.077zM1.588 1.239C1.208.952.937.606 1.008.074.993.072.979.081.968.12c-.083.52.219.846.583 1.14.03.008.047.006.036-.021zm-.052.046c.028.035.024.081.015.127C1.142 1.181.837.876.822.364.816.243.859.165.935.116c-.074.59.252.888.601 1.169zm-.023.151c.001.015-.011.021-.025.025C1.079 1.178.74.844.762.356.761.336.769.328.778.323c-.016.493.304.849.735 1.113zm-.067.123c.016-.04.004-.076-.021-.112C1.039 1.18.722.872.717.383.661.425.641.509.647.623c.081.457.41.72.798.937zm-.057.004C.983 1.346.679 1.049.601.611c-.013.374.297.7.764.975.021 0 .056.009.023-.023zm-.014.163c-.003-.062-.013-.116-.057-.137C.898 1.349.585 1.055.565.613c-.124.457.181.82.81 1.113zm-.061.011c.009.019.015.039.019.057C.638 1.458.491 1.145.479.838c.065.362.314.671.835.9zM.436.887c.042.372.32.685.879.929.003.021.012.034.025.05-.001.018-.013.027-.036.025C.765 1.742.289 1.349.436.887zm.827 1.029c.041.015.04.026-.002.031-.54-.158-.803-.426-.893-.762.139.352.433.599.895.731zm.013.068c-.464-.125-.801-.358-.937-.758-.113.393.431.791.964.873.038-.015.01-.062-.027-.115zm.006.282C.691 2.253.153 1.948.274 1.511c.121.329.421.565.996.659.006.022.012.043.038.064.007.02-.003.03-.025.032zm-.003-.134c-.44-.12-.834-.276-.968-.643.071.313.397.526.944.652.026.004.034.001.024-.01zm-.001.18c-.431-.05-.797-.114-.997-.461.125.285.44.44.975.474.027.001.034-.003.022-.013zm.012.049C.813 2.333.426 2.218.268 1.895c-.036.024.015.164.08.265.143.254.532.288.991.296.018-.034-.011-.061-.049-.095zm.101.268c-.429.096-.731.05-.944-.092-.104-.09-.166-.19-.177-.302.219.268.585.357 1.053.308l.068.085zm-.119-.138c-.438-.008-.828-.06-.979-.328-.001.024.001.048.019.071.151.233.53.288.986.282.058-.023.049-.032-.027-.025zm.183.297c-.003-.025-.036-.05-.063-.074-.467.097-.8.02-1.07-.139.003.061.045.129.145.205.316.171.649.128.988.008zM.334 2.502c.255.187.582.268 1.037.161.024-.007.022 0-.005.022-.401.116-.944-.009-1.032-.183zm1.237.43c-.045-.014-.061-.041-.073-.07-.469.179-.83.172-1.102.013.091.275.61.345 1.174.057zm-.117-.113c-.477.172-.807.132-1.053-.031.123.231.673.214 1.068.059.016-.037-.003-.034-.015-.028zm.211.274c-.3.239-.606.302-.888.246-.165-.04-.247-.115-.251-.204.283.16.646.11 1.066-.092l.074.05zm-.095-.115c-.41.197-.76.237-1.045.106.14.109.526.189 1.031-.075.012-.007.017-.017.014-.031zm-.859.393c.259.05.523.092.985-.257.019-.014.007.009.011.02-.375.344-.889.355-.996.237zm1.01-.203c.033.024.073.04.121.049-.559.489-.956.332-1.06.247a1.18 1.18 0 0 0 .939-.296zm-.755.413c.075.104.592.033.853-.301-.282.243-.566.367-.853.301zm.904-.276c-.279.286-.576.382-.886.348.105.144.551.173.973-.314-.057 0-.081-.014-.087-.034zm.217.135c-.029.006-.052 0-.067-.019-.206.238-.451.392-.752.423.066.115.515.056.819-.404zm-.576.554c.117.039.376.03.694-.422.011-.027-.008-.039-.057-.036-.195.256-.411.386-.637.458zm.336.046a1.32 1.32 0 0 0 .431-.411c.003.034.01.059.023.078-.257.317-.36.333-.454.333zm.481-.249c.006.021.012.041.028.057-.118.144-.201.196-.264.198.1-.066.176-.153.236-.255zm-.361-.404c.014.008.021.015.021.023-.351.339-.56.4-.734.394.271-.042.503-.197.713-.417zm.139.107c.018-.009.033-.013.021.014-.251.316-.463.421-.663.459.252-.087.476-.228.643-.472zm-.081.557c.081-.056.177-.112.239-.215.005-.009.003-.02-.011-.013-.067.087-.149.158-.228.228zm-.261-.018c.122-.054.218-.047.472-.398.01-.022.034-.062-.014-.013-.133.197-.291.321-.458.411zm.182-2.551c-.101-.054-.195-.112-.282-.175-.024.009-.048.012-.072 0 .026.041.037.085.04.131a2.01 2.01 0 0 0 .263.128c-.003-.039.014-.067.05-.084zm-.074.128c-.029.052-.027.084-.028.101l-.309-.124c-.031-.032-.047-.064-.033-.096.029-.006.057-.013.077-.028a2.54 2.54 0 0 1 .294.148zm-.059.131c-.041.036-.035.071-.022.107-.123-.032-.256-.061-.344-.102-.005-.032-.009-.064-.033-.101.03-.002.058-.012.084-.032.092.05.201.091.316.128zm-.071.243a.16.16 0 0 1 .01-.104 2.31 2.31 0 0 1-.322-.096c-.04-.012-.055.008-.064.037.026.025.043.057.056.091.096.032.206.054.321.072zm-.005.161c-.017-.045-.015-.083.008-.114-.124-.019-.244-.039-.332-.076-.113.015-.081.065-.027.121.074.029.213.049.351.069zm-.017.042c-.014.024-.014.051-.001.079-.108-.011-.214-.022-.299-.005-.094-.056-.091-.095-.001-.119.084.024.2.04.302.045zm.012.133c-.096-.018-.207-.017-.317-.017-.112.052-.049.09.003.128.103-.015.207-.03.311-.027-.016-.028-.026-.056.003-.084zm.015.121c-.008.034.003.064.03.089l-.31.064c-.068-.024-.117-.053-.037-.112a2.34 2.34 0 0 1 .317-.041zm.044.138c.008.023.018.046.043.069a1.19 1.19 0 0 0-.275.099c-.111-.019-.133-.053-.065-.103l.297-.066zm.067.106c.013.031.04.058.075.081l-.29.121c-.067-.021-.151-.038-.067-.101.088-.037.18-.072.282-.101zm.085.116c.011.023.025.045.054.054a1.62 1.62 0 0 0-.262.185c-.091-.008-.14-.028-.097-.072.076-.065.193-.115.305-.167zm.153.152c-.035-.015-.056-.037-.064-.066-.088.049-.172.108-.252.175.005.025.003.05-.005.076.025.025.069.023.116.017a1.09 1.09 0 0 0 .205-.201zm.042.025c-.065.077-.144.152-.232.225.002.012.003.025-.003.05.02.023.048.033.086.029a1.86 1.86 0 0 0 .247-.249c-.039-.015-.076-.031-.097-.056zm.113.104c-.067.089-.139.166-.215.237.009.022.011.043.007.065.025.006.058.006.101-.001a.77.77 0 0 0 .107-.133v-.168zm.014.378c-.056.03-.084.021-.084-.025.02-.038.042-.074.071-.102l.013.128zm.343-1.357c-.212.069-.163-.194-.236-.293-.085-.112-.188-.218-.349-.295-.062-.013-.077.01-.046.068.169.084.308.201.384.37l-.03.02c-.111-.186-.239-.282-.373-.345-.073-.028-.051.039-.035.101a1.08 1.08 0 0 1 .35.268l-.04.033a.87.87 0 0 0-.323-.249c-.073-.033-.081.006-.061.079.129.04.232.116.334.193l-.017.03a2.65 2.65 0 0 0-.327-.179c-.031.009-.053.023-.02.068.083.052.197.104.317.158l-.014.034c-.087-.053-.181-.091-.291-.103-.065.001-.048.037-.02.079.102.023.197.052.276.091l-.003.033c-.081-.033-.164-.056-.251-.065-.047.002-.054.022-.02.059a1.14 1.14 0 0 1 .286.063l-.007.042c-.084-.024-.175-.037-.271-.043-.047.029-.025.05.016.068.097.005.198.018.301.035l.011.034-.279-.012c-.091 0-.085.044-.002.075a2.06 2.06 0 0 1 .31-.022l.003.036-.282.019c-.053.036-.029.057.028.07l.325-.039v-.409h.381l-.025-.068zm-.644.549c-.056.024-.021.048.028.072l.259-.059v-.052l-.288.039zm.07.103c-.059.035-.027.048.031.054l.187-.065v-.047a1.42 1.42 0 0 1-.218.058zm.081.085c-.051.042-.038.06.039.055.033-.017.065-.039.098-.064v-.05l-.137.059zm.137.115l-.017.018c-.035.002-.053-.013-.053-.046a.21.21 0 0 0 .069-.049v.077zm-.46 2.557c.98.556 1.906.475 2.799 0-.063-.11-.139-.212-.406-.225-.622.32-1.295.312-2.013.007-.201-.008-.301.094-.379.218zm2.115-.154l-.274-.745a.73.73 0 0 0 .002-.241c.041.069.05.155.05.244.025-.015.038-.037.071-.045.037.051.08.12.11.191.012-.032.031-.058.063-.071.126.104.224.238.317.375.036.077.015.097-.063.061-.105-.043-.115.015-.131.068-.001.04.01.073.01.106-.049.033-.101.052-.156.058zm-1.411 0l.274-.745a.73.73 0 0 1-.002-.241c-.041.069-.05.155-.05.244-.025-.015-.039-.037-.071-.045-.037.051-.08.12-.11.191-.013-.032-.031-.058-.063-.071-.127.104-.224.238-.317.375-.036.077-.015.097.063.061.105-.043.115.015.13.068.001.04-.009.073-.01.106.048.033.101.052.156.058zm.002.835c.102-.027.175-.106.239-.282l-.133-.025-.107.307zm.352-.74l.065-.392c-.002-.045-.015-.077-.051-.081l-.118.454.103.019zm.257-.25l.066.068.005.197-.088.002.017-.267zm.038.751c-.033.169-.093.292-.2.325a2.77 2.77 0 0 0 .081-.333l.119.008zm-.362-1.179l-.21.605c.034.014.071.028.111.039l.134-.535-.035-.109zm-.393 1.056l-.154.321c.13.001.22-.088.302-.281l-.148-.04zm.592-.715l.056.048-.023.303-.081-.005.048-.346zm-.049.82c-.048.163-.115.263-.206.279a3.11 3.11 0 0 0 .102-.291l.104.012zm.965.256c-.102-.027-.175-.106-.239-.282l.133-.025.107.307zm-.352-.74l-.065-.392c.002-.045.015-.077.051-.081l.117.454-.103.019zm-.257-.25l-.066.068-.005.197.088.002-.017-.267zm-.038.751c.033.169.093.292.2.325-.032-.1-.059-.213-.082-.333l-.118.008zm.362-1.179l.21.605c-.034.014-.071.028-.111.039l-.134-.535.035-.109zm.393 1.056l.154.321c-.13.001-.22-.088-.302-.281l.148-.04zm-.592-.715l-.056.048.023.303.081-.005-.048-.346zm.049.82c.048.163.115.263.206.279a3.11 3.11 0 0 1-.102-.291l-.104.012zM2.177 4.464c-.022.005-.031.021-.039.039.005.027.005.054-.001.084.02-.011.043-.017.069-.02.028-.021.034-.044.017-.068-.015.005-.037.019-.061.035.013-.026.02-.049.013-.069zm.086.119c-.022.009-.036.035-.04.053.01.024.011.057.009.086a.19.19 0 0 1 .067-.032c.025-.025.027-.048.006-.068-.014.007-.029.023-.05.043.009-.027.019-.065.008-.083zm.125.021c-.022.005-.031.021-.039.039.005.026.005.054-.001.084.02-.011.043-.018.069-.02.028-.021.034-.044.018-.068-.015.005-.037.019-.06.036.013-.026.02-.05.013-.07zm.11-.059c-.017.016-.016.034-.014.053.018.02.032.045.042.073.012-.02.028-.037.05-.052.013-.033.007-.055-.02-.068-.01.011-.022.036-.034.061-.002-.029-.008-.053-.023-.067zm-.137-.124c-.03.008-.043.029-.053.053.008.036.007.075-.001.115.028-.015.059-.024.095-.027.039-.029.047-.061.024-.095-.02.006-.051.027-.083.049.019-.035.028-.068.018-.096zm.17-.075c-.033.008-.047.032-.057.058.008.039.007.081-.002.125a.25.25 0 0 1 .104-.029c.042-.032.05-.066.026-.103-.022.007-.055.029-.09.053.02-.039.03-.074.02-.104zm-.152-.135c-.03.007-.043.029-.053.053.008.037.007.075-.002.116.028-.015.06-.024.096-.027.039-.029.047-.061.025-.095-.02.006-.051.027-.084.049.019-.036.028-.068.018-.096zm-.139.065c-.024.006-.034.023-.042.042.006.029.006.059-.001.091.022-.012.047-.019.075-.021.03-.023.036-.048.019-.074-.016.005-.04.02-.065.038.014-.028.022-.054.014-.075zm.03-.153c-.022.006-.031.022-.039.039a.21.21 0 0 1-.001.084c.02-.011.043-.018.069-.02.028-.021.034-.044.018-.068-.015.004-.037.019-.06.035.013-.026.02-.05.013-.07zm.146-.149c-.046-.009-.054.054-.048.1.009.033.001.071-.011.105.032-.01.054-.009.078-.002.054-.041.081-.059.07-.087-.021-.041-.046-.011-.087.024.023-.061.043-.121-.001-.14zm.13.162c-.032.008-.045.031-.056.056a.29.29 0 0 1-.002.121c.029-.016.063-.025.1-.029.04-.031.049-.063.025-.099-.021.006-.053.028-.087.051.019-.037.029-.071.019-.1zm.119.147c-.023.009-.031.025-.037.042.01.023.013.049.011.077.02-.014.045-.023.073-.03.028-.025.031-.047.009-.066-.015.006-.038.024-.061.043.011-.026.015-.049.005-.066zm-.012.18c-.021.024.007.048.014.073.009-.018.052-.049.016-.069-.006.006-.012.02-.018.035-.001-.017-.004-.031-.012-.039zm.55.411c.001-.057.024-.102.054-.084.034 0 .029.038.008.073-.017.015-.038.043-.064.085-.012-.05-.041-.077-.073-.102-.007-.033-.009-.06.031-.051.033.015.035.043.042.079zm0 .272c.001-.057.024-.102.054-.083.034-.001.029.038.008.073a.45.45 0 0 0-.064.084c-.012-.05-.041-.077-.073-.101-.007-.033-.009-.06.031-.051.033.015.035.043.042.078zm-.353-.692c.014-.135.094-.02.045.02-.013.007-.03.023-.052.05a.33.33 0 0 0-.043-.131c-.018-.061.041-.076.05.062zm.153.08c.007-.055.032-.092.059-.065.062.038-.03.094-.067.136-.006-.052-.03-.088-.056-.121-.004-.034-.003-.061.034-.04.029.025.028.053.031.089zm-.086.102c.001-.111.062-.019.031.016-.008.005-.019.019-.032.042-.006-.044-.02-.076-.035-.107-.018-.058.025-.049.036.05zm-.07.086c.001-.111.062-.019.031.016-.008.006-.019.019-.032.042-.006-.044-.02-.076-.036-.107-.018-.058.025-.049.037.05zm.073.167c.001-.111.062-.019.031.015-.008.006-.019.019-.031.042-.006-.044-.02-.076-.036-.107-.018-.058.025-.048.036.05zm.183-.187c.001-.057.02-.095.046-.067.058.037-.015.093-.047.141-.01-.054-.034-.09-.061-.123-.025-.054.039-.093.062.049zm-.099.108c.002-.131.093-.02.048.018-.013.006-.029.023-.049.048-.009-.051-.032-.089-.056-.125-.024-.061.037-.068.057.059zm.093.173c.001-.052.018-.087.042-.062.053.034-.014.085-.043.129-.009-.049-.031-.082-.056-.112-.024-.053.036-.08.057.045zm-.077.065c.001-.09.06-.014.031.013-.008.005-.019.015-.031.033a.23.23 0 0 0-.036-.086c-.017-.046.025-.039.036.04zm.529-.593c-.014-.135-.094-.02-.045.02.013.007.03.023.052.05.005-.053.023-.093.043-.131.018-.061-.041-.076-.05.062zm-.153.08c-.007-.055-.032-.092-.059-.065-.062.038.03.094.067.136.006-.052.03-.088.056-.121.004-.034.003-.061-.034-.04-.029.025-.028.053-.031.089zm.086.102c-.001-.111-.062-.019-.031.016.008.005.019.019.032.042.006-.044.02-.076.035-.107.018-.059-.025-.048-.036.05zm.07.086c-.001-.111-.062-.019-.031.016.008.006.019.019.032.042.006-.044.02-.076.036-.107.018-.058-.025-.049-.037.05zm-.073.167c-.001-.111-.062-.019-.031.015.008.006.019.019.031.042a.33.33 0 0 1 .036-.107c.018-.058-.025-.048-.036.05zm-.183-.187c-.001-.057-.02-.095-.046-.067-.058.037.015.093.047.141.01-.054.034-.09.061-.123.025-.054-.039-.093-.062.049zm.099.108c-.002-.131-.093-.02-.048.018.013.006.029.023.049.048.009-.051.032-.089.056-.125.024-.061-.037-.068-.057.059zm-.093.173c-.001-.052-.018-.087-.042-.062-.053.034.014.085.042.129.009-.049.032-.082.056-.112.024-.053-.036-.08-.057.045zm.077.065c-.001-.091-.061-.015-.031.013.008.005.019.015.032.033a.23.23 0 0 1 .036-.086c.017-.046-.025-.039-.036.04zm-.175-.468c.001-.057.024-.102.054-.084.034 0 .029.038.008.073-.017.015-.038.043-.064.085-.012-.05-.041-.078-.073-.102-.007-.033-.009-.06.031-.051.033.015.035.043.042.079zm1.019-.115c.022.005.031.021.039.039-.006.027-.005.054.001.084-.02-.011-.043-.017-.07-.02-.028-.021-.034-.044-.017-.068.015.005.037.019.06.035-.013-.026-.02-.049-.013-.069zm-.086.119c.021.009.036.035.04.053-.01.024-.011.057-.009.086a.19.19 0 0 0-.067-.032c-.025-.025-.026-.048-.006-.068.014.007.029.023.05.043-.009-.027-.019-.065-.008-.083zm-.126.021c.022.005.031.021.039.039a.21.21 0 0 0 .001.084c-.02-.011-.043-.018-.07-.02-.027-.021-.034-.044-.017-.068.015.005.037.019.061.036-.013-.026-.02-.05-.013-.07zm-.11-.059c.016.016.016.034.014.053a.2.2 0 0 0-.041.073.17.17 0 0 0-.05-.052c-.013-.033-.007-.055.019-.068.011.011.023.036.035.061.001-.029.007-.053.023-.067zm.137-.124c.03.008.043.029.053.053-.008.036-.007.075.001.115-.028-.015-.059-.024-.095-.027-.039-.029-.047-.061-.025-.095.02.006.051.027.084.049-.019-.035-.028-.068-.018-.096zm-.17-.075c.033.008.047.032.057.058-.008.039-.008.081.002.125-.03-.017-.065-.027-.104-.029-.041-.032-.05-.066-.026-.103.022.007.055.029.09.053-.02-.039-.03-.074-.02-.104zm.152-.135c.03.007.043.029.053.053-.008.037-.007.075.001.116a.24.24 0 0 0-.096-.027c-.038-.029-.046-.061-.024-.095a.39.39 0 0 1 .083.049c-.019-.036-.028-.068-.018-.096zm.139.065c.024.006.034.023.041.042-.006.029-.005.059.002.091-.022-.012-.047-.019-.075-.021-.03-.023-.036-.048-.019-.074.016.005.04.02.065.038-.014-.028-.022-.054-.014-.075zm-.03-.153c.022.006.031.022.039.039-.005.027-.005.054.001.084-.02-.011-.043-.018-.069-.02-.028-.021-.034-.044-.018-.068.015.004.037.019.061.035-.013-.026-.02-.05-.013-.07zm-.146-.149c.046-.009.054.054.048.1-.01.033-.001.071.011.105-.032-.01-.054-.009-.078-.002-.054-.041-.081-.059-.07-.087.021-.041.046-.011.087.024-.023-.061-.043-.121.002-.14zm-.13.162c.032.008.045.031.055.056a.3.3 0 0 0 .002.121c-.029-.016-.062-.025-.1-.029-.04-.031-.049-.063-.026-.099a.41.41 0 0 1 .088.051c-.02-.037-.029-.071-.019-.1zm-.119.147c.023.009.031.025.037.042-.01.023-.013.049-.011.077-.021-.014-.045-.023-.073-.03-.028-.025-.031-.047-.009-.066a.34.34 0 0 1 .061.043c-.011-.026-.015-.049-.005-.066zm.012.18c.021.024-.007.048-.014.073-.01-.018-.052-.049-.016-.069a.16.16 0 0 1 .018.035c.001-.017.004-.031.012-.039zm-.214-3.045c-.031.034-.065.035-.103.004-.02.08.039.095.066.145.035-.069.098-.073.037-.149zm-.165.014c-.029.032-.062.034-.098.004-.019.076.037.091.063.138.033-.066.094-.069.036-.142zm-.31.006c-.027.03-.057.031-.091.004-.018.07.034.084.058.128.031-.061.087-.065.033-.131zm.388.137c-.024.027-.051.028-.082.003-.016.063.031.076.052.115.028-.055.078-.058.029-.118zm.145.016c-.024.027-.051.028-.082.003-.016.063.031.075.052.115.028-.055.078-.057.029-.118zm-.302-.026c-.024.027-.051.028-.082.003-.016.063.031.076.052.115.028-.055.078-.058.029-.118zm-.087-.133c-.029.032-.062.033-.098.004-.019.076.037.09.062.137.033-.065.093-.069.035-.141zm-.071.143c-.024.027-.051.028-.082.003-.016.063.031.075.052.115.028-.055.078-.058.029-.118zm-.153-.003c-.024.027-.052.028-.082.003-.016.063.031.075.052.115.028-.055.078-.058.03-.118zm.536.134c-.024.027-.051.028-.082.003-.016.063.031.075.052.115.028-.055.078-.058.029-.118zm-.139-.003c-.024.027-.051.028-.082.003-.016.063.031.076.052.115.028-.055.078-.058.029-.118zm-.155.01c-.024.027-.051.028-.082.003-.016.063.031.075.052.115.028-.055.078-.058.029-.118zm-.156.001c-.024.027-.051.028-.082.003-.016.063.031.075.052.115.028-.055.078-.058.029-.118zm-.155-.005c-.024.027-.051.028-.082.003-.016.063.031.076.052.115.028-.055.078-.058.029-.118zm.768-.001c-.024.027-.051.028-.082.003-.016.063.031.075.052.115.028-.055.078-.058.029-.118zm.078.116c-.024.027-.051.028-.082.003-.016.063.031.076.052.115.028-.055.078-.058.029-.118zm-.153.003c-.024.027-.051.028-.082.003-.016.063.031.075.052.115.028-.055.078-.058.029-.118zm-.155.001c-.024.027-.051.028-.082.003-.016.063.031.075.052.115.028-.055.078-.058.029-.118zm-.155.001c-.024.027-.051.028-.082.003-.016.063.031.075.052.115.028-.055.078-.058.029-.118zm-.155.002c-.024.027-.051.028-.082.003-.016.063.031.076.052.115.028-.055.078-.058.03-.118zm-.155.002c-.024.027-.051.028-.082.003-.016.063.031.075.052.115.028-.055.078-.058.029-.118zm-.155.001c-.024.027-.051.028-.082.003-.016.063.031.075.052.115.028-.055.078-.057.029-.118zm.856.115c-.024.027-.051.028-.082.003-.016.063.031.075.052.115.028-.055.078-.058.029-.118zm-.156 0c-.024.027-.051.028-.082.003-.016.063.031.075.052.115.028-.055.078-.058.029-.118zm-.156 0c-.024.027-.051.028-.082.003-.016.063.031.075.052.115.028-.055.078-.058.029-.118zm-.156 0c-.024.027-.051.028-.082.003-.016.063.031.075.052.115.028-.055.078-.058.029-.118zm-.156 0c-.024.027-.052.028-.082.003-.016.063.031.075.052.115.028-.055.078-.058.03-.118zm-.157 0c-.024.027-.051.028-.082.003-.016.063.031.075.052.115.028-.055.078-.058.029-.118zm-.156 0c-.024.027-.051.028-.082.003-.016.063.031.075.052.115.028-.055.078-.058.029-.118zm1.014.11c-.024.027-.051.028-.082.003-.016.063.031.076.052.115.028-.055.078-.058.029-.118zm-.143 0c-.024.027-.051.028-.082.003-.016.063.031.076.053.115.028-.055.078-.058.03-.118zm-.153 0c-.024.027-.051.028-.082.003-.016.063.031.076.052.115.028-.055.078-.058.03-.118zm-.16 0c-.024.027-.051.028-.082.003-.016.063.031.076.052.115.028-.055.078-.058.029-.118zm-.156 0c-.024.027-.051.028-.082.003-.016.063.031.076.052.115.027-.055.078-.058.029-.118zm-.158 0c-.024.027-.051.028-.082.003-.016.063.031.076.052.115.028-.055.078-.058.029-.118zm-.148 0c-.024.027-.051.028-.082.003-.016.063.031.076.052.115.028-.055.078-.058.03-.118zm-.144 0c-.008.027-.016.028-.026.003-.005.063.01.076.017.115.009-.055.025-.058.009-.118zm-.008-.239c-.008.027-.016.028-.026.003-.005.063.01.075.017.115.009-.055.025-.058.009-.118zm.934-.298c.016.035.007.046-.027.033.054.067.082.062.128.092-.042-.063-.026-.084-.101-.125zm-.775-.03c-.034.07-.095.083-.152.109.023.015.025.031.024.047.067-.056.135-.103.207-.139-.029.002-.057.001-.079-.017zm-.142.218a.7.7 0 0 1 .148-.104c.003.018.008.034.022.049.004.017-.005.029-.037.029l-.034-.013c-.023.043-.019.073-.018.104-.019-.003-.028.002-.039.006-.003-.027-.02-.049-.042-.07zm.699-.234c.002.029.019.059.036.077-.026.019-.048.013-.069 0 .014-.021.027-.051.033-.077zm-.162 0c.001.029.018.059.036.077-.026.019-.048.013-.069 0 .015-.021.027-.051.033-.077zm-.155 0c.002.029.018.059.036.077-.026.019-.048.013-.069 0 .014-.021.027-.051.033-.077zm-.145 0c.002.029.018.059.036.077-.026.019-.048.013-.069 0 .014-.021.027-.051.033-.077zm.604.029a.13.13 0 0 0 .036.077c-.026.019-.048.013-.069 0a.23.23 0 0 0 .033-.077zm.091.104c.002.029.018.059.036.077-.026.019-.048.013-.069 0 .014-.021.027-.051.033-.077zm-.158 0c.001.029.018.059.036.077-.026.019-.048.013-.069 0 .015-.021.027-.051.033-.077zm-.159 0c.002.029.018.059.036.077-.026.019-.048.013-.069 0 .014-.021.027-.051.033-.077zm-.144 0c.002.029.018.059.036.077-.026.019-.048.013-.069 0 .014-.021.027-.051.033-.077zm-.157 0c.002.029.018.059.036.077-.026.019-.048.013-.069 0 .014-.021.027-.051.033-.077zm.702.116c.002.029.018.058.036.077-.026.019-.048.013-.069 0 .014-.021.027-.051.033-.077zm-.156 0c.002.029.018.058.036.077-.026.019-.048.013-.069 0 .014-.021.027-.051.033-.077zm-.156 0c.002.029.018.058.036.077-.026.019-.048.013-.069 0 .015-.021.027-.051.033-.077zm-.145.007c.002.029.018.058.036.077-.026.019-.048.013-.069 0 .014-.021.027-.051.033-.077zm-.157 0c.002.029.018.058.036.077-.026.019-.048.013-.069 0 .014-.021.027-.051.032-.077zm-.157 0c.001.029.018.058.036.077-.026.019-.048.013-.069 0a.23.23 0 0 0 .033-.077zm-.143 0c.002.029.019.058.036.077-.026.019-.048.013-.069 0 .014-.021.027-.051.032-.077zm.833.125c.002.029.019.058.036.077-.026.019-.048.013-.069 0 .014-.021.027-.051.033-.077zm-.15 0c.002.029.019.058.036.077-.026.019-.048.013-.069 0 .014-.021.027-.051.033-.077zm-.15 0c.002.029.018.058.036.077-.026.019-.048.013-.069 0 .015-.021.027-.051.033-.077zm-.156 0c.002.029.019.058.036.077-.026.019-.048.013-.069 0 .014-.021.027-.051.033-.077zm-.159 0c.002.029.018.058.036.077-.026.019-.048.013-.069 0 .014-.021.027-.051.033-.077zm-.154 0c.001.029.018.058.036.077-.026.019-.048.013-.069 0 .014-.021.027-.051.033-.077zm-.15 0c.002.029.018.058.036.077-.026.019-.048.013-.069 0 .014-.021.027-.051.033-.077zm1.012.103c.001.029.018.058.036.077-.026.019-.048.013-.069 0 .014-.021.027-.05.033-.077zm-.157 0c.001.029.018.058.036.077-.026.019-.048.013-.069 0 .014-.021.027-.05.033-.077zm-.158 0c.002.029.018.058.036.077-.026.019-.048.013-.069 0a.22.22 0 0 0 .033-.077zm-.157 0c.002.029.018.058.036.077-.026.019-.048.013-.069 0a.22.22 0 0 0 .033-.077zm-.158 0c.002.029.019.058.036.077-.026.019-.048.013-.069 0a.22.22 0 0 0 .032-.077zm-.157 0c.002.029.018.058.036.077-.026.019-.048.013-.069 0 .014-.021.027-.05.033-.077zm-.157 0c.001.029.018.058.036.077-.026.019-.048.013-.069 0 .014-.021.027-.05.033-.077zm.869.126c.002.029.019.058.036.077-.026.019-.048.013-.069 0 .014-.021.027-.051.033-.077zm-.149 0c.001.029.018.058.036.077-.026.019-.048.013-.069 0 .015-.021.027-.051.033-.077zm-.149 0c.002.029.018.058.036.077-.026.019-.048.013-.069 0 .014-.021.027-.051.033-.077zm-.168 0c.002.029.018.058.036.077-.026.019-.048.013-.069 0 .014-.021.027-.051.033-.077zm-.152 0c.002.029.018.058.036.077-.026.019-.048.013-.069 0 .014-.021.027-.051.033-.077zm-.152 0c.002.029.018.058.036.077-.026.019-.048.013-.069 0 .014-.021.027-.051.033-.077zm-.151 0c.002.029.018.058.036.077-.026.019-.048.013-.069 0 .014-.021.027-.051.033-.077zm.459.851l.072.221h.233l-.188.137.071.222-.189-.137-.189.137.072-.222-.189-.137h.233zm.9-.716v.914h-.536V2.84H3.23v-.618zm0 .974c0 .175-.008.299-.06.467-.124.397-.417.644-.808.756v-.632c.205-.064.325-.259.333-.468v-.123zm-.929 1.223c-.508-.145-.809-.504-.864-1.033l-.005-.191h.536c0 .165.003.312.119.449a.46.46 0 0 0 .213.141zm-.869-1.283v-.914h.869v.618h-.333v.296zm-.268 2.237c.031.015.101.033.078.081-.008.018-.023.025-.043.024.057.037.003.104-.058.076l-.05-.023zm.022.048l-.014.03c.028.013.045-.015.014-.03zm-.028.059l-.017.037c.043.02.06-.017.017-.037zm.13-.047l.037.015-.025.062.03.012.025-.062.038.015-.065.161-.038-.016.027-.067-.029-.012-.027.067-.037-.015zm.136.055l.039.013-.057.164-.039-.013zm.073.027l.039.012.002.103.002.001.029-.093.037.012-.054.165-.039-.012-.001-.103H2.38l-.029.093-.037-.012zm.135.044l.04.01.009.102.002.001.023-.095.037.009-.042.168-.04-.01-.009-.103H2.52l-.023.095-.037-.009zm.141.036l.097.019-.007.034-.057-.011-.006.031.053.011-.007.033-.054-.011-.007.037.057.011-.007.035-.097-.019zm.122.026l.04.006-.009.062.039-.058.04.006-.042.054.023.119-.045-.006-.01-.071c-.019.024-.016.037-.02.067l-.04-.005zm.164.023l.04.004.027.177-.044-.005-.002-.035-.033-.003-.01.034-.041-.004zm.014.049l-.017.059.022.002zm.145-.037l.109.002v.035l-.035-.001-.003.138-.041-.001.003-.138-.034-.001zm.133.002l.04-.001c.001.038-.006.143.02.142s.013-.09.011-.143l.04-.001c.003.088.027.175-.051.178s-.058-.085-.061-.174zm.141-.005l.041-.003.042.094h.002l-.009-.097.039-.003.015.173-.041.003-.042-.094h-.002l.009.097-.039.003zm.242.132c-.041.075-.119-.054-.083-.127.015-.03.052-.04.082-.028l.006.038c-.082-.049-.059.107-.025.101.012-.002.006-.022.005-.031l-.013.002-.005-.031.05-.008.015.092-.019.003zm.139-.025c-.005.011-.013.019-.023.021-.07.015-.11-.16-.024-.178.013-.003.026-.002.038.002l.008.038c-.084-.045-.054.109-.02.102.012-.003.005-.023.003-.031l-.013.003-.007-.031.05-.011.019.091-.019.004zm.06-.179l.039-.01.086.157-.043.011-.014-.032-.032.008.002.035-.04.01zm.03.041l.004.062.021-.005zm.072-.07l.039-.012.04.132.053-.016.011.034-.092.028zm.168-.056l.039-.014.059.163-.038.014zm.07-.028l.037-.015.023.058.005-.07.037-.015-.009.068.079.091-.042.017-.044-.056c-.005.03.004.04.016.068l-.037.015zm.151-.062l.036-.017.114.138-.04.019-.02-.029-.03.014.009.034-.037.017zm.037.035l.015.059.02-.009zm-.528-3.39c.03.073.077.043.115-.015.04-.148.054-.224.127-.319.1-.131.249-.2.387-.282.01-.007.025-.007.044 0C5.133 1.051 5.48.588 5.35 0c.157.069.225.157.251.255.103.006.148.148.208.255.072.001.086.139.115.241.138.079.104.249.136.384.098.067.069.187.057.299.081.053.089.183.055.357.069.07.04.178-.017.295.052.142.021.257-.047.361.036.084.015.175-.044.269.028.159-.046.22-.109.306.026.12-.052.219-.194.32-.008.123-.108.189-.265.245.015.068-.048.13-.2.184.012.071-.11.13-.262.187-.009.087-.161.102-.343.102-.015.056-.133.046-.255.034-.128.056-.269-.062-.411-.204l-.017-.022a.4.4 0 0 1 .041.096 1.1 1.1 0 0 0 .268.239c-.031.009-.062.018-.103.017.049.069.127.108.195.158-.053-.006-.114-.019-.129.007-.01.043.06.133.115.214-.031-.012-.061-.018-.087.015.03.145.09.279.165.409.009.029.035.035.079.019l.234-.193c.036-.031.077-.022.118-.008l.034.027c.103-.093.205-.22.308-.344.094-.11.201-.133.309-.143-.067.093-.125.199-.172.323.154-.021.298-.01.422.058-.375.092-.426.508-.711.671-.053.031-.091.014-.124-.025-.003.007-.015.009-.034.006-.022.048-.048.088-.09.096-.03.059-.06.073-.09.067-.113.125-.13-.004-.244.047-.102.073-.223.126-.368.156-.047.026-.091.054-.047.128a1.62 1.62 0 0 0 .263.381c-.127-.026-.254-.05-.395-.163.038.099.096.167.155.231-.132-.041-.264-.084-.37-.183.018.077.058.145.098.213-.115-.045-.229-.091-.322-.172.014.063.045.123.076.181-.132-.005-.265-.062-.405-.262-.14.199-.273.256-.405.262.031-.059.062-.118.076-.181-.093.08-.207.126-.322.172.04-.068.08-.137.098-.213-.106.098-.238.141-.37.183a.7.7 0 0 0 .155-.231c-.14.113-.267.138-.395.163.1-.113.194-.234.263-.381.045-.074 0-.102-.047-.128-.145-.03-.266-.083-.368-.156-.115-.051-.131.077-.244-.047-.03.006-.06-.008-.09-.067-.042-.008-.068-.048-.09-.096-.019.003-.03.001-.034-.006-.033.039-.071.056-.124.025-.285-.163-.336-.579-.711-.671.124-.068.268-.079.422-.058-.047-.124-.105-.229-.172-.323.109.01.216.032.31.143l.308.344.034-.027c.042-.014.082-.023.118.008l.234.193c.044.016.07.01.079-.019a1.38 1.38 0 0 0 .165-.409c-.026-.033-.056-.027-.087-.015.054-.081.124-.171.115-.214-.015-.027-.077-.013-.129-.007.068-.05.146-.089.195-.158-.041.001-.073-.008-.103-.017a1.1 1.1 0 0 0 .268-.239c.008-.032.023-.064.041-.096l-.017.022c-.142.142-.283.26-.411.204-.122.012-.24.022-.255-.034-.182 0-.335-.015-.343-.102-.151-.057-.274-.116-.262-.187-.153-.054-.216-.115-.2-.184-.157-.055-.257-.122-.265-.245-.142-.101-.22-.199-.193-.32-.063-.087-.137-.147-.109-.306-.06-.094-.081-.184-.044-.269-.069-.103-.099-.219-.047-.361-.057-.118-.086-.226-.017-.295-.034-.174-.027-.304.054-.357-.012-.113-.041-.232.057-.299C.371 1.001.337.831.475.752.504.649.519.511.59.51.65.403.695.261.798.255.825.158.892.069 1.049 0c-.129.588.218 1.051.873 1.432.02-.007.034-.007.044 0 .138.083.288.152.387.282.073.095.088.171.127.319.037.058.085.088.115.015-.007-.043-.016-.087.017-.118.005-.067-.023-.124-.073-.175.046-.004.094-.003.147.016-.014-.033-.059-.063-.108-.093.034.005.067.011.112-.004-.021-.053-.052-.087-.089-.112.073-.009.145-.02.191-.081-.042-.021-.062-.05-.061-.087.044.001.091.008.126-.008.011-.067-.013-.095-.061-.095-.105.014-.386.204-.419-.071.111.034.205.052.238.016-.073-.01-.128-.033-.157-.075.062-.001.124-.003.187-.015.052-.031-.155-.131-.358.049-.001-.14.043-.249.242-.244-.021-.028-.034-.053.012-.053-.013-.011-.018-.022-.015-.034-.014.008-.028.012-.05-.004-.023-.031-.054-.064.037-.059.068-.006-.044-.123.071-.059.048.026.033 0 .031-.016C2.595.7 2.585.676 2.646.68c.017-.003.028-.015.034-.033.019.009.04.008.063-.018.026.015.049.033.063.063.087-.056.189-.063.307-.026.175.022.349.035.5-.101.005.05.003.098-.035.14l.049.002c.005.055-.034.089-.069.124l.08-.022c-.01.068-.055.123-.104.175.11.199.023.284.252.327a.36.36 0 0 1-.112.09c.03.057.07.075.116.077-.024.015-.047.034-.071.077.035.024.075.037.122.037a.32.32 0 0 1-.088.109c.054.015.097.024.14.031-.043.02-.069.051-.081.091.035.074.033.149-.007.224zm.443 2.679l-.016.081c-.051-.031-.103-.064-.137-.042a.6.6 0 0 1 .157.223c.038.028.053.068.065.11.026.055-.005.08-.062.092-.081-.033-.144-.047-.139.006-.035.078-.006.072.032.055.063-.017.113-.001.163.016.054-.034.094-.006.136.018.001.039.048.045.086.057.069.087.086.099.113.126.027-.032.055-.043.086-.04-.106-.128-.186-.093-.209-.153-.006-.013.005-.019.034-.019.051.061.148.027.186.123.06.006.081-.011.063-.052-.032-.03-.074-.047-.123-.055l-.101-.048.036-.011.113.031c.084.012.091.038.108.104.01-.027.023-.05.055-.047-.003-.069-.056-.095-.133-.104-.038.017-.077.002-.119-.045-.087-.091-.176-.021-.236-.128.014-.021.002-.043-.014-.065-.058-.009-.041-.013-.039-.018l.015-.023-.034-.006c.001-.015-.011-.02-.023-.024l.028-.023-.039-.011c.025-.072-.015-.098-.052-.126zm.705.596c.058-.039.109-.079.155-.121.029.001.027.015.021.032-.036.044-.09.082-.144.12-.011.017-.026.023-.046.017.002-.025.006-.042.014-.048zm-.355-.255l.219-.175c.026-.021.052-.008.077.003.071.064.129.134.184.204.02.027.019.051-.005.072a.6.6 0 0 1-.152.118c-.008-.034-.017-.068-.034-.08-.086-.064-.138-.019-.184-.06a.36.36 0 0 0-.106-.082zm.836-.598c-.141.035-.368.336-.451.447.065.06.128.122.182.197.043.046.028.1.011.141a.4.4 0 0 1-.15.115c.021.025.055.022.101-.008.121-.137.233-.289.344-.441.047-.065.105-.113.167-.158a.83.83 0 0 0-.332.019c.028-.102.069-.205.128-.312zm-.573.892c.018-.032.031-.037.041-.026.027.067-.005.101-.039.133.017-.053.016-.088-.002-.107zm-.092.08c.018-.032.031-.037.04-.026.027.067-.005.1-.039.133.017-.053.016-.089-.002-.107zm-.1.058c.021-.032.036-.037.047-.026.031.067-.006.1-.045.133.019-.053.019-.088-.002-.107zM2.789.74c-.024-.037-.046-.039-.062.037-.037-.029-.065-.033-.07.016-.103-.017-.017.052-.088.062-.02-.001-.023.013-.012.043.011.08.034.062.101.05.037.003.029.019.015.038-.25-.022-.305.042-.331.119.147-.049.291-.08.418.013-.049.007-.081.022-.095.044.026.015.08.005.145-.016-.001-.014-.019-.024-.032-.034.036.006.071.012.111.006.034-.02.066.004.012.02s-.117.041-.176.076c-.15.101-.181.071-.246.078.013.039.011.087.271-.018.105-.027.182-.02.161.106-.013.043-.052.056-.096.066.051.017.104.017.179-.096.066.142.068-.066.132.015.014.019.03.032.06.005.023-.033.047-.033.07-.003.005.035.019.032.039-.01.018-.017.037-.028.063-.001.013.034.028.056.053 0 .017-.041.033-.041.047 0 .029.039.053.037.07-.006s.029-.044.038.005c.013.091.057.129.124.131-.04-.041-.073-.081-.066-.121.054-.009.057-.033.01-.073-.093-.066-.049-.165-.182-.359.049-.011.091-.029.113-.063-.048.01-.088.003-.128-.003.049-.029.102-.055.119-.109a.34.34 0 0 1-.12.007C3.487.74 3.52.709 3.54.674a.81.81 0 0 1-.377.038c-.125-.025-.25-.034-.375.028zm.473.126c.063.003.073.067.013.108.059 0 .072.034.025.069.039.043.018.074-.029.082-.003.062-.058.061-.088-.009-.024.001-.03.011-.019.028a.47.47 0 0 1 .065.063c.021.005.036-.005.045-.031.033.003.04-.015.045-.035.057-.014.033-.066.019-.101.029-.009.037-.058.022-.087S3.346.899 3.345.872C3.325.864 3.321.838 3.316.813c-.014.031-.033.049-.054.053zm-.359.006c.025 0 .025.041 0 .041s-.025-.041 0-.041zm.141-.078c-.04.023-.092.023-.148.015-.043.054-.096.048-.16.053.032.009.075.013.079.037.003.013 0 .029.023.029-.004.014-.003.028.005.043.164.017.198-.107.085-.136.064.012.099-.005.116-.04zm-.23.204c.019.022.036.047.047.081.027.015.102-.026.132.01 0 .043-.025.073-.075.093-.005.012.001.015.019.012.104-.017.15-.154.038-.151-.067.013-.089.006-.104-.005C2.857 1 2.835 1 2.813.999zm-.15-.113c-.043.001-.031.017-.012.034.031-.007.097.007.088.043-.019.036.004.025.019.023.02-.026.007-.049-.02-.071C2.723.89 2.694.886 2.664.886zm-.511 3.841l.016.081c.051-.031.104-.064.137-.042a.6.6 0 0 0-.157.223c-.038.028-.053.068-.065.11-.026.055.005.08.062.092.081-.033.144-.047.139.006.036.078.006.072-.032.055-.063-.017-.113-.001-.163.016-.055-.034-.095-.006-.136.018-.001.039-.048.045-.086.057-.069.087-.086.099-.113.126-.026-.032-.055-.043-.086-.04.106-.128.186-.093.209-.153.006-.013-.005-.019-.034-.019-.051.061-.148.027-.186.123-.06.006-.081-.011-.063-.052.032-.03.074-.047.123-.055l.101-.048-.036-.011-.113.031c-.084.012-.091.038-.108.104-.01-.027-.023-.05-.055-.047.003-.069.056-.095.133-.104.038.017.077.002.119-.045.087-.091.176-.021.236-.128-.014-.021-.002-.043.014-.065.058-.009.041-.013.039-.018l-.015-.023.034-.006c-.001-.015.011-.02.023-.024l-.028-.023.039-.011c-.025-.072.015-.098.052-.126zm-.705.596c-.058-.039-.109-.079-.155-.121-.029.001-.027.015-.021.032.036.044.09.082.144.12.011.017.026.023.046.017-.001-.025-.006-.042-.014-.048zm.355-.255l-.218-.175c-.026-.021-.052-.008-.078.003-.071.064-.129.134-.184.204-.02.027-.019.051.005.072.045.05.097.087.152.118.008-.034.017-.068.034-.08.086-.064.138-.019.184-.06a.36.36 0 0 1 .106-.082zm-.836-.598c.141.035.368.336.451.447-.065.06-.128.122-.182.197-.043.046-.027.1-.011.141a.4.4 0 0 0 .151.115c-.022.025-.055.022-.101-.008A6.02 6.02 0 0 1 .93 4.92c-.046-.065-.105-.113-.167-.158a.83.83 0 0 1 .332.019c-.028-.102-.069-.205-.128-.312zm.573.892c-.018-.032-.031-.037-.04-.026-.027.067.005.101.039.133-.017-.053-.016-.088.001-.107zm.092.08c-.018-.032-.031-.037-.041-.026-.027.067.005.1.039.133-.017-.053-.016-.089.002-.107zm.1.058c-.021-.032-.036-.037-.047-.026-.031.067.006.1.045.133-.019-.053-.019-.088.002-.107"/><path d="M3.536 4.099c.001.007-.009.015-.025.019s-.029.001-.031-.006.009-.016.025-.02.029-.001.031.007zm-.189-.164c.007-.001.019.005.028.014s.01.018.003.019-.019-.005-.028-.014-.01-.018-.003-.019zm.036-.052c.007-.004.021.011.029.034s.009.045.001.049-.021-.011-.029-.034-.009-.045-.001-.049zm.021-.063c.008-.004.021.011.029.034s.009.045.001.049-.021-.011-.029-.034-.009-.045-.001-.049zm.033-.047c.008-.004.021.011.029.034s.009.045.001.049-.021-.011-.029-.034-.009-.045-.002-.049zm.034-.048c.008-.004.021.011.029.034s.009.045.001.049-.021-.011-.029-.034-.009-.045-.002-.049zm.033-.05c.008-.004.021.011.029.034s.009.045.002.049-.021-.011-.029-.034-.009-.045-.001-.049zm.032-.051c.008-.004.021.011.029.034s.009.045.002.049-.021-.011-.03-.034-.009-.045-.001-.049zm.035-.051c.008-.004.021.011.029.034s.009.045.001.049-.021-.011-.029-.034-.009-.045-.001-.049zm.036-.047c.006-.004.019.009.026.029s.009.04.003.043-.018-.009-.027-.029-.009-.039-.003-.043zm-.196.454c.006.009-.004.028-.024.043s-.041.019-.048.01.004-.028.023-.043.041-.019.048-.01zm.014.054c.006.009-.004.027-.022.04s-.038.018-.044.009.004-.026.022-.04.038-.018.044-.009zm.059.02c.007.01-.004.031-.025.046s-.043.02-.051.011.004-.03.025-.046.043-.02.051-.011zm.121.007c0 .011-.018.02-.04.021s-.042-.007-.042-.017.018-.02.041-.021.042.006.042.017zm.041-.045c0 .011-.018.02-.04.021s-.042-.006-.042-.017.018-.02.04-.021.042.006.042.017zm.041-.047c0 .011-.018.02-.04.021s-.042-.007-.042-.017.017-.02.04-.021.042.007.042.017zm.043-.055c0 .011-.017.02-.041.021s-.041-.007-.042-.017.018-.02.04-.021.042.007.042.017zm.029-.042c0 .009-.016.015-.035.015s-.034-.008-.034-.017.016-.015.035-.015.034.008.034.017zm.035-.053c.002.009-.011.02-.029.025s-.035.002-.037-.007.011-.019.029-.024.035-.002.037.007zm.039-.061c.003.01-.013.023-.035.029s-.042.002-.045-.008.013-.023.035-.029.042-.002.045.008zm.033-.055c.003.01-.013.023-.035.029s-.042.002-.045-.008.013-.023.035-.029.042-.003.045.007zm.031-.062c.002.01-.013.023-.035.029s-.042.002-.045-.008.013-.023.035-.029.042-.002.045.008zm.031-.057c.003.01-.013.023-.035.029s-.042.002-.045-.008.013-.023.035-.029.042-.002.045.008zm.022-.056c.003.01-.013.023-.035.029s-.042.002-.045-.008.013-.023.035-.029.042-.002.045.008zm-.006-.084c.007.008-.002.027-.018.042s-.036.021-.043.013.001-.027.018-.042.036-.021.043-.014zm-.058-.044c.009.002.012.021.006.041s-.017.034-.026.031-.012-.021-.006-.04.017-.034.026-.031zm-.047-.02c.009.003.012.021.006.041s-.017.034-.026.031-.012-.021-.006-.04.017-.034.026-.031zm-.057.02c.008 0 .016.015.017.034s-.006.035-.014.035-.016-.015-.017-.034.005-.035.014-.035zm-.047.007c.009 0 .018.016.019.037s-.006.037-.015.038-.017-.016-.019-.037.006-.038.015-.038zm-.045.041c.009-.002.02.013.025.033s.001.038-.008.04-.02-.012-.025-.032-.001-.038.008-.041zm-.041.033c.009-.002.02.012.025.033s.001.039-.008.041-.021-.013-.026-.033-.001-.039.008-.041zm-.211.523c.006.007.012.009.015.014s.005.013.003.022c.02-.009.037-.01.045 0 .011-.001.023-.007.039-.011-.005-.026.015-.04.043-.046-.006-.028.014-.042.043-.048-.009-.03.013-.044.042-.05-.009-.031.009-.044.037-.05-.008-.005-.012-.011-.013-.018 0-.015.02-.029.048-.035-.009-.006-.015-.013-.015-.021-.001-.013.015-.026.039-.032-.01-.03.009-.043.036-.05-.012-.024.001-.04.023-.051-.011-.024.001-.039.023-.051-.011-.026-.002-.042.015-.056-.016-.023-.021-.036-.023-.053-.009.011-.02.017-.029.015-.015.01-.024.019-.034.019-.017.01-.025.021-.035.022-.009.019-.015.034-.025.037s-.013 0-.02-.005c-.001.019-.007.032-.017.036s-.013 0-.02-.005c.003.026-.003.048-.017.052-.015.024-.021.046-.034.05-.006.002-.013 0-.02-.005.005.031-.001.056-.015.061-.011.025-.017.045-.03.049-.015.022-.022.042-.034.046-.015.023-.021.044-.034.048-.012.025-.018.047-.031.051-.002.018-.003.034-.008.044.005.01.005.016.002.022zm.16-.513c.006-.002.013 0 .02.005-.003-.026.003-.047.017-.051.006-.002.013 0 .02.005.001-.019.006-.033.017-.036s.018.002.027.011c.002-.03.012-.052.027-.054.009-.001.018.006.025.017.006-.024.019-.04.032-.04s.019.011.025.027c.012-.027.031-.045.045-.041s.017.016.018.035c.01-.011.02-.017.029-.015.017.005.023.036.016.071.026-.016.05-.02.06-.008s0 .042-.026.068c.021 0 .037.007.04.021s-.014.04-.041.057c.008.003.014.009.015.015.003.013-.01.028-.031.04.013.029-.015.052-.053.063.017.006.028.015.029.026s-.016.026-.039.033c.01.031-.01.045-.039.051.009.006.015.012.015.02 0 .015-.019.028-.046.034.008.005.012.012.013.019 0 .015-.021.029-.05.035.009.031-.011.045-.041.051.009.03-.011.043-.04.05.006.027-.011.04-.036.046.005.029-.023.045-.06.048-.008.015-.027.032-.053.044-.038.017-.075.017-.083 0-.028.01-.053.014-.063.002-.004-.005-.005-.013-.003-.022-.02.009-.037.01-.045 0s-.002-.034.016-.056c-.025.006-.047.002-.052-.011s.007-.033.031-.05c-.011-.015-.016-.032-.013-.047.004-.021.023-.033.046-.031-.009-.036-.003-.068.013-.073.001-.03.006-.053.021-.058.012-.025.018-.047.031-.051.015-.023.021-.044.035-.048.015-.022.021-.042.034-.046.011-.025.017-.045.03-.049.006-.002.013 0 .02.004-.005-.031.001-.056.015-.06.015-.024.021-.046.034-.05"/><path d="M3.505 2.447c.013-.011.034-.017.056-.014s.043.014.054.028c.015.006.031.02.041.041.019.034-.001.11 0 .085.001-.147-.177-.172-.215-.023-.006.023-.011-.054.013-.084.015-.02.035-.031.051-.032zm.303-.058c.031-.022.109.044.091.076.054.007.044.115.026.115.008-.013.014-.108-.051-.106.035-.047-.029-.084-.067-.085zm-.051-.037c-.025-.018-.065-.024-.075.014-.004-.039-.079-.012-.074-.001.007-.051.162-.046.149-.012zm.169.664c-.009-.013-.023-.025-.069-.026-.019-.007-.035-.004-.049.006-.02-.016-.042-.031-.043-.064-.012-.064-.012-.099-.014-.142.027-.021.047-.023.061-.006.02.027.039.026.055-.006s.026-.055.043-.029c.02.034.028.036.023.007-.005-.056.015-.061.055-.026.016.018.021.003.014-.045-.004-.055-.011-.107-.046-.142.001-.033-.006-.062-.032-.08-.011-.056-.053-.08-.104-.097 0-.055-.028-.043-.055-.035-.025-.026-.056-.023-.09-.013-.029-.006-.06-.015-.078.029-.029-.006-.046.009-.058.032-.022-.005-.041-.002-.052.019-.029.005-.044.03-.058.055-.032.016-.028.036-.032.055-.022.026-.023.049-.017.071-.031.019-.016.037-.009.055-.009.021-.015.041 0 .055-.019.023-.02.037-.003.045.009-.012.016-.027.04.003.014.037.028.047.047 0 .028-.046.04-.03.046.013.006.025.017.025.032 0 .003-.057.008-.096.029 0 .015.028.031.036.046 0l.009.048c-.005.023.005.035-.006.033-.005.029-.006.049 0 .064.005.023.001.027.006.049-.006.051-.057.045-.045.076.018-.014.043-.021.068-.013.051-.005.083.011.116.029.026.013.049.018.067-.006.056-.023.074-.013.104-.013m-1.046-.601c.012.034.033.065.046.106.013.055-.001.073-.014.091.016-.022.008-.081-.032-.197zm-.18.562c-.055.014-.088.001-.077-.07-.035-.031-.06-.082-.076-.153a.14.14 0 0 1-.127.03c.019-.036.046-.079.082-.111-.036-.056-.076-.11-.028-.2.042-.07.044-.102.006-.16.063.022.109.059.068.172-.009.042-.023.086.036.113.035-.015.073-.017.115-.003.043-.014.08-.013.116.003.059-.027.045-.071.035-.113-.04-.113.005-.15.069-.172-.038.057-.036.09.006.16.048.089.008.144-.028.2.036.032.063.075.082.111a.14.14 0 0 1-.127-.03c-.016.071-.04.123-.076.153.011.07-.022.083-.077.07zm-.18-.562c-.012.034-.033.065-.046.106-.012.055.001.073.014.091-.017-.022-.009-.081.032-.197"/><path d="M2.988 4.009l-.105-.028.052.094.059.015a.34.34 0 0 1-.09-.008l-.012-.078-.086-.055.014.094.045.029a.39.39 0 0 1-.065-.028l.005-.079-.075-.075-.005.094.034.034a.43.43 0 0 1-.052-.041l.018-.08-.062-.083-.02.09.031.041c-.023-.025-.045-.053-.063-.082l.047-.062-.021-.091-.053.071.013.059a.52.52 0 0 1-.037-.082l.064-.048.004-.094-.075.056-.002.057c-.008-.027-.014-.056-.017-.085l.071-.023.028-.088-.089.028-.013.041.001-.052.079-.026.031-.09-.094.031-.008.021.005-.023.063-.065-.012-.102-.072.074.009.08-.011.049.002-.046-.062-.059-.003.097.058.055a.51.51 0 0 0-.001.073l-.009-.045-.065-.056.02.096.059.051.01.052-.015-.037-.072-.042.036.09.065.038a.58.58 0 0 0 .026.062l-.022-.032-.081-.026.06.087.074.024a.53.53 0 0 0 .043.057L2.6 3.895l-.084.01.083.081.082-.01c.013.012.026.023.04.034l-.043-.021-.073.042.109.052.063-.036a.48.48 0 0 0 .046.023l-.045-.01-.067.068.11.025.06-.062c.015.005.031.008.046.011l-.042-.001-.059.083.112.003.055-.079c.025 0 .049-.002.073-.008l-.007-.02-.026.006z"/><path d="M2.95 3.798c-.022-.005-.03.003-.024.021-.011.001-.021.002-.026.006s.005.016.015.025c-.009.021 0 .034.019.039.019-.012.019-.028 0-.047.021-.011.037-.023.016-.043zm.085.024c-.022 0-.029.008-.02.025-.011.003-.02.006-.025.011.001.008.008.015.02.022-.005.023.006.034.025.036.016-.016.014-.031-.008-.048.018-.015.031-.03.008-.046zm-.245-.445c.002-.021-.005-.03-.021-.026-.002-.011-.004-.021-.008-.027s-.015.003-.022.012c-.02-.011-.032-.004-.035.013.013.02.028.022.045.006.012.021.024.039.041.021zm-.02.085c.002-.022-.005-.031-.022-.027-.002-.011-.004-.022-.008-.027s-.015.003-.023.013c-.021-.012-.033-.004-.036.014.013.021.028.023.046.006.012.023.025.04.043.022zm-.005.089c0-.022-.009-.03-.025-.025-.003-.011-.006-.022-.011-.027-.008 0-.015.005-.021.015-.022-.009-.033 0-.034.019.015.019.031.02.046.001.015.021.029.037.045.017zm.02.075c-.008-.022-.018-.027-.031-.016-.007-.01-.014-.02-.02-.023-.007.003-.012.011-.014.023-.007-.003-.012-.007-.015-.014-.008.013-.015.025-.01.044.021.014.035.009.043-.016.021.016.04.027.047.001zm.04.071c-.013-.02-.024-.023-.034-.008-.009-.009-.017-.016-.024-.018-.006.005-.009.013-.008.027-.007-.001-.013-.005-.018-.01-.005.014-.009.029.001.046.023.009.036 0 .037-.026.024.011.045.017.046-.011zm.052.054c-.018-.016-.029-.014-.034.004-.011-.005-.021-.01-.028-.009-.004.006-.004.016.001.029-.019.012-.017.028-.003.042.024.001.033-.012.025-.039.025.003.046.001.038-.026zm-.108-.32c.022-.008.027-.028.034-.046-.001-.013-.005-.025-.011-.036-.017-.011-.019-.02-.022-.029-.02.001-.024.006-.026.012-.026-.009-.034 0-.044.009-.004.018-.004.037 0 .057-.009.012-.016.019-.024.026a.14.14 0 0 0 0 .059c.003.009.006.016.009.022-.007.006-.012.012-.018.019a.15.15 0 0 0 .007.06c.005.012.011.021.017.028-.004.008-.006.015-.009.022a.17.17 0 0 0 .027.058c.007.007.014.013.02.018l-.002.022c.009.019.023.036.04.051.009.006.017.011.025.014.001.008.003.015.005.022.015.015.032.028.053.037s.03.006.04.005c.007.02.018.03.028.041.019.006.039.007.059.005.023.01.034.017.044.025.02.003.039 0 .058-.006s.026-.017.031-.026l.035.003-.013-.026c-.012.001-.022-.001-.031-.008-.015-.041-.042-.045-.068-.052-.012.002-.023.007-.032.014-.012-.022-.032-.029-.051-.038-.014 0-.026.003-.036.009.003-.015-.014-.034-.03-.054-.012-.007-.025-.011-.037-.012-.001-.013-.006-.026-.011-.039s-.021-.019-.033-.025c0-.013-.003-.028-.005-.044-.007-.013-.016-.023-.027-.031l.008-.039c-.003-.014-.008-.026-.016-.036.008-.011.014-.031.021-.051-.001-.014-.005-.026-.012-.038"/></svg>