<svg xmlns="http://www.w3.org/2000/svg" height="6.4" width="6.4" fill-rule="evenodd" xmlns:v="https://vecta.io/nano"><path d="M4.89 2.702c-.042.1-.019.094-.097.239-.038.071-.095.147-.142.197l-.083.088c-.345.326-.871.489-1.376.487-.408-.002-.783-.105-1.078-.278-.113-.066-.158-.104-.247-.178-.045-.038-.049-.051-.087-.085A1.16 1.16 0 0 1 1.6 2.93c-.065-.112-.061-.159-.095-.243l3.392-.008c0 .034-.001.015-.007.023zM2.091 4.283c.004-.006.001-.01.031-.011l2.146.001c.019.006.005-.005.017.011l.099.004-.096-.063c-.027-.019-.059-.042-.079-.066.014-.015.062-.019.083-.032-.071-.061-.139-.082-.241-.199-.015-.017-.037-.072-.048-.098.009.015.104.095.123.109.038.03.091.068.148.087.031.011.066.017.101.012.067-.01 0-.013.102-.006.059.004.152.018.19-.036.068-.007.131-.001.201-.013.042-.007.09-.017.116-.046.013-.013.013-.027.02-.035s.162-.056.219-.107c.048-.041.033-.061.041-.069.026-.026.197-.04.193-.171.055-.012.127-.048.166-.075.095-.066.077-.118.096-.149a1.21 1.21 0 0 1 .069-.054c.041-.031.09-.084.11-.134s.006-.062.01-.105c.001-.015.037-.052.049-.067.043-.055.067-.104.061-.181-.005-.063.001-.042.025-.09.013-.026.025-.059.029-.092.006-.051-.015-.084-.014-.104.001-.014.078-.118.065-.175l-.004-.028h-.937-.589c-.03 0-.035.005-.037-.022l.001-.29c-.153 0-.506-.013-.613-.003-.027.051-.022.121-.062.162-.017.017-.053.037-.077.008s.001-.041.009-.082l-1.209.001-.003.029c-.002.025.003.034-.011.051-.029.037-.069.005-.092-.025-.035-.045-.029-.259-.237-.406l-.13-.083-.023-.013c-.015-.009-.011-.008-.026-.009-.136-.01-.308-.002-.451-.002S.319 1.627.288 1.618l-.013.024a.33.33 0 0 0-.009.036c-.023.124.029.195 0 .236-.076.108.035.227.026.27-.013.059-.028.08-.02.151.015.129.079.141.063.19a.19.19 0 0 0-.009.082c.005.05.026.094.048.129.027.041-.011.063.016.147.015.049.041.077.067.11.069.089.014.046.037.131.013.048.042.083.066.11a.6.6 0 0 0 .096.081c.034.025.022.01.033.053.006.024.017.046.029.061a.44.44 0 0 0 .224.13c-.003.082.058.114.127.144.109.047.047.009.079.066.007.012.016.021.026.028.06.051.212.099.22.106.02.019-.001.058.132.082.066.012.136.012.204.012.021.007-.005.05.186.037.083-.006.033-.009.103.004.034.007.071.002.102-.008.059-.019.107-.055.149-.086l.033-.027.092-.082c-.039.111-.108.163-.201.232-.028.021-.061.038-.087.061.02.015.064.016.094.017-.019.042-.136.11-.185.144z" fill="#fff"/><path d="M6.123 2.332c.013.057-.064.161-.065.175-.001.02.02.053.014.104-.004.033-.016.066-.029.092-.024.048-.031.027-.025.09.006.077-.018.126-.061.181-.012.015-.047.052-.049.067-.005.043.011.054-.01.105s-.069.103-.11.134l-.069.054c-.018.031-.001.082-.096.149-.039.027-.111.063-.166.075.004.131-.168.145-.193.171-.008.008.007.028-.041.069-.057.05-.21.096-.219.107s-.007.022-.02.035c-.027.029-.074.039-.116.046-.07.011-.133.006-.201.013-.038.054-.131.04-.19.036-.102-.007-.035-.004-.102.006-.035.005-.07-.001-.101-.012-.057-.019-.11-.057-.148-.087-.019-.015-.113-.094-.123-.109.011.026.033.081.048.098.102.117.171.138.241.199-.022.014-.069.017-.093.017.03.04.062.063.089.081l.096.063-.099-.004c-.033.008-.03.026-.016.055.009.02.02.038.031.055l.07.098c-.043-.006-.049-.014-.08.015 0 .053.06.195.083.239l.055.104c.021.035.029.077.088.059.022-.007.153-.114.182-.135.023-.017.067-.057.094-.064.061-.015.085.02.119.033l.131-.13.156-.175c.073-.087.193-.145.313-.142-.024.043-.064.095-.092.141a.85.85 0 0 0-.073.155c.151-.014.286-.011.409.053-.013.007-.092.031-.137.055-.243.13-.344.479-.575.575-.065.027-.075-.017-.103-.025-.055.006-.053.048-.088.073-.014.009-.031.013-.04.023-.022.027-.029.05-.069.055-.032.004-.017.004-.036.021s-.05.036-.087.029-.058-.026-.106-.014c-.027.006-.058.029-.08.042-.209.122-.428.085-.355.223.119.224.224.302.256.356-.173-.021-.25-.068-.378-.145.011.068.105.157.143.206a1.06 1.06 0 0 1-.196-.066c-.093-.042-.094-.057-.16-.096.011.071.067.136.09.191a1.06 1.06 0 0 1-.166-.067c-.063-.029-.102-.065-.143-.085.009.06.053.109.07.163-.095-.004-.178-.038-.237-.081a.59.59 0 0 1-.123-.116c-.009-.012-.024-.033-.034-.042-.013.011-.026.029-.037.043-.082.101-.215.203-.359.194.024-.05.059-.099.071-.162-.013.006-.023.016-.036.024a1.29 1.29 0 0 1-.275.129c.026-.058.076-.115.092-.192-.011.006-.025.019-.038.028-.086.059-.216.117-.319.135.011-.019.027-.03.043-.048a.45.45 0 0 0 .101-.16c-.012.007-.026.018-.039.027a.78.78 0 0 1-.34.119c.013-.025.039-.048.057-.067a1.35 1.35 0 0 0 .156-.21l.044-.079c.064-.113-.115-.124-.188-.149-.107-.035-.226-.112-.25-.117-.078-.017-.122.054-.192-.016-.022-.022-.009-.014-.042-.02-.04-.007-.04-.035-.065-.058s-.06-.013-.089-.092c-.022.001-.029-.005-.04.001s-.014.014-.028.022c-.025.013-.051.012-.077 0-.123-.057-.205-.17-.286-.284-.246-.347-.352-.3-.42-.344.152-.071.234-.06.41-.053-.009-.04-.055-.122-.075-.157-.026-.047-.065-.093-.091-.139a.42.42 0 0 1 .345.18c.039.048.084.092.124.138l.065.066c.022.026.052.043.066.064.024-.008.025-.02.055-.029.075-.021.106.017.162.062l.135.105c.082.065.097.029.135-.038l.055-.104c.018-.038.088-.197.077-.234-.019-.025-.044-.019-.078-.012.026-.059.114-.123.109-.201-.018-.008-.022-.009-.046-.01l-.076.006c.049-.034.166-.102.185-.144-.029-.001-.074-.003-.094-.017.026-.023.059-.04.087-.061.093-.069.162-.121.201-.232l-.092.082-.033.027c-.042.031-.09.067-.149.086-.031.01-.067.015-.102.008-.07-.014-.02-.01-.103-.004-.191.013-.165-.031-.186-.037-.068 0-.138-.001-.204-.012-.133-.024-.111-.062-.132-.082-.007-.007-.16-.056-.22-.106-.009-.008-.019-.016-.026-.028-.032-.056.029-.019-.079-.066C1 3.672.939 3.64.941 3.558a.44.44 0 0 1-.224-.13c-.012-.015-.024-.037-.029-.061-.011-.043.001-.028-.033-.053a.6.6 0 0 1-.096-.081c-.024-.027-.054-.062-.066-.11-.022-.085.032-.042-.037-.131-.026-.033-.051-.061-.067-.11-.027-.084.011-.106-.016-.147-.022-.035-.043-.079-.048-.129a.19.19 0 0 1 .009-.082c.016-.049-.048-.062-.063-.19-.008-.071.007-.093.02-.151.009-.043-.102-.163-.026-.27.029-.041-.024-.112 0-.236l.009-.036.012-.022c.012-.027.029-.037.045-.053-.005-.069-.037-.193.032-.256.03-.027.026-.01.035-.065.019-.126.015-.241.105-.297C.53.931.523.939.538.878.596.653.615.755.649.691L.722.559C.796.447.825.512.848.454c.039-.1.145-.189.237-.21-.015.104-.03.171-.022.282.014.196.104.389.227.533.022.025.046.058.071.079s.049.053.077.076l.083.071.175.129.236.144c.026.013.028-.006.06.008.018.008.085.045.094.056.015.001.011 0 .026.009l.023.013.13.083c.208.146.202.36.237.406.023.03.063.062.092.025.014-.018.009-.027.011-.051-.04-.053.091-.076-.05-.241.052-.009.093.003.139.012-.006-.017-.027-.035-.041-.044l-.027-.019-.026-.019c.031.002.073.008.097-.008-.02-.059-.07-.085-.08-.103a.47.47 0 0 0 .106-.021c.033-.012.066-.029.074-.053-.033-.025-.053-.026-.057-.08.047.001.079.007.123-.008.028-.157-.165-.053-.237-.033-.122.034-.225.014-.233-.119.065.012.168.058.23.016-.017-.01-.129-.022-.149-.072.051-.001.144-.003.186-.017.004-.061-.145-.05-.192-.039-.094.023-.123.062-.165.084-.001-.164.074-.223.234-.224-.007-.016-.013-.016-.015-.038l.023-.014-.012-.025c-.039.011-.068-.018-.068-.053a.13.13 0 0 1 .041-.008c.071-.001.028-.033.038-.071.038 0 .05.025.084.025C2.627.9 2.605.903 2.614.876c.029-.015.062.004.072-.036.047.008.038-.005.066-.016.025.012.05.031.058.056.03-.009.051-.026.09-.035.096-.023.14-.001.217.013.131.023.302.021.42-.046.021-.012.056-.039.069-.044.007.079-.009.079-.031.127l.045.001c0 .06-.038.087-.064.113l.074-.017c-.015.087-.076.122-.1.163.061.113.045.121.077.2.014.034.033.055.065.07s.074.019.101.031c-.043.051-.06.05-.105.083.006.018.025.037.041.049.026.019.045.014.065.024-.024.022-.049.036-.062.068.025.028.075.029.116.038-.023.053-.061.075-.077.093l.125.037c-.141.069-.019.125-.059.23-.009.041-.034.053-.009.082s.06.009.077-.008c.04-.041.035-.111.062-.162.044-.188.239-.306.405-.39l.065-.035c.04-.013.021.014.073-.017l.125-.074.233-.161c.152-.124.279-.244.376-.416.047-.083.085-.181.104-.289.025-.144.007-.228-.013-.363.102.031.222.13.245.233.104.013.146.129.192.214.028.051.052-.004.09.113l.021.078c.01.037.005.047.034.065.091.059.085.175.105.302.009.059.011.036.038.066.074.081.02.229.028.251.004.011.103.039.061.289-.013.073 0 .031.021.084.025.063-.003.142-.027.195-.027.058-.015.031-.002.092.005.024.016.082.003.106zM3.621 6.4H3.54c-.096-.009-.198-.048-.262-.087-.019-.011-.064-.045-.082-.049l-.04.028a.68.68 0 0 1-.125.064c-.067.027-.124.039-.172.043h-.066c-.072-.006-.11-.032-.117-.032-.038 0-.123.065-.252-.02-.017-.011-.01-.009-.029-.004-.085.02-.136.038-.223-.015-.075-.045-.006-.029-.111-.029-.143 0-.254-.125-.243-.247s.067-.152.129-.229c.014-.017.045-.045.05-.067-.044-.004-.135-.068-.159-.071-.049-.005-.124.041-.259-.05-.03-.02-.064-.027-.098-.052-.049-.037-.056-.062-.086-.063s-.042 0-.068-.004c-.099-.018-.209-.098-.279-.169L.91 5.187c-.042-.056-.08-.119-.128-.171l-.036-.041c-.092-.091-.125-.074-.195-.103-.019-.008-.031-.015-.047-.026-.129-.086-.144-.284-.02-.384.039-.031.13-.077.177-.081a.24.24 0 0 1 .208-.326.78.78 0 0 1 .306.065.52.52 0 0 1 .132.086c.01.009.012.01.022.018l.204.226c.043.045.092-.024.255.085-.001-.014-.005-.016-.005-.032 0-.027.018-.089.012-.103-.017-.042-.026-.077-.026-.128-.054-.001-.095-.031-.127-.036l-.145-.013a.8.8 0 0 1-.085-.019c-.099-.028-.172-.1-.175-.102l-.029-.016c-.207-.083-.21-.142-.253-.173C.9 3.877.854 3.879.773 3.781.763 3.769.759 3.76.751 3.749s-.014-.012-.033-.021c-.208-.101-.222-.233-.264-.265a.57.57 0 0 1-.183-.243l-.021-.087c-.006-.027-.073-.104-.101-.217C.14 2.879.145 2.854.14 2.816.138 2.804.102 2.728.089 2.654l-.005-.072c0-.002.002-.012.002-.02 0-.05-.085-.159-.049-.348C.043 2.175.006 2.113 0 2.02v-.049a.42.42 0 0 1 .023-.111c.013-.038-.035-.188.045-.344.023-.044.009-.025.009-.072 0-.192.086-.24.09-.294.008-.107.032-.204.09-.291A.26.26 0 0 1 .291.816C.345.763.297.721.421.566.454.524.449.554.489.48.523.417.569.354.627.31.672.277.667.274.698.232.765.142.955 0 1.077 0c.135 0 .249.099.249.226 0 .044-.006.069-.014.113a1.03 1.03 0 0 0-.009.158c0 .177.113.355.229.472.067.067.137.128.213.186l.058.041c.057.042.119.083.183.116.02.01.055.017.077.022a.47.47 0 0 1 .081-.281l.065-.07c.019-.017.013-.003.019-.027a.25.25 0 0 1 .058-.122c.01-.011.012-.015.021-.024.061-.053.055-.069.119-.108.022-.014.038-.016.059-.031l.121-.059c.013-.005.023-.007.036-.009s.02-.005.035-.01c.04-.013.09-.015.132-.004.017.004.039.016.05.017.025.002.085-.012.122-.012.133 0 .305.078.432.011.016-.008.028-.019.042-.03.107-.082.262-.059.343.048.034.045.048.107.047.165 0 .038.004.038.009.064l.014.126c0 .058-.015.12-.039.169-.009.019-.029.036-.02.057s.037.019.057.029c.076.035.146.109.146.202 0 .027.002.063-.009.086.013-.003.029-.018.042-.026.064-.041.186-.111.257-.146.03-.015.07-.019.1-.031s.093-.055.124-.075l.154-.109.111-.092c.013-.01.021-.019.033-.031.091-.091.169-.186.222-.308a.65.65 0 0 0 .049-.264c0-.116-.054-.182-.004-.298.01-.023.03-.052.048-.069.136-.136.319-.048.447.049a.59.59 0 0 1 .14.149c.028.043.111.068.197.237l.016.025c.098.1.1.109.142.246.008.025.026.037.042.058s.025.033.038.057c.024.048.04.082.053.143l.013.086c.004.034.001.045.022.073.099.137.048.255.075.31.047.094.066.212.049.322-.005.031.007.046.014.076.019.074.01.168-.012.237-.028.087-.009.047-.009.127 0 .092-.008.167-.043.247-.029.067.012.105-.045.245-.039.097-.011.058-.028.144-.031.15-.096.179-.106.242-.034.216-.196.289-.226.348-.103.201-.234.215-.267.249l-.066.079c-.048.047-.138.085-.153.105a.58.58 0 0 1-.245.163c-.076.029-.091.129-.373.143-.107.005-.115.039-.186.041 0 .052-.01.082-.028.127-.007.019.007.037.009.059s0 .054 0 .077c.164-.11.218-.039.257-.087l.121-.137a.64.64 0 0 1 .358-.235c.102-.023.203-.04.296.016.059.035.102.1.108.172.004.039.002.085-.013.118.022.001.081.027.1.036l.045.023c.105.06.153.215.084.329-.045.074-.099.094-.179.12-.108.034-.172.125-.236.212-.086.114-.168.233-.283.319-.057.043-.118.082-.2.099-.026.005-.046.001-.073.004-.021.003-.029.017-.042.03-.04.04-.068.051-.116.074-.008.004-.014.008-.022.014-.136.086-.205.041-.254.046-.011.001-.039.017-.052.024-.022.011-.085.045-.107.047.002.024.084.109.105.13.051.051.071.11.071.191a.24.24 0 0 1-.231.222c-.063 0-.056-.018-.102.016-.053.041-.138.057-.207.039-.013-.003-.042-.014-.054-.014s-.094.078-.218.041c-.063-.019-.031-.015-.096.006-.017.006-.034.009-.053.011" fill="#332c2b"/><path d="M4.285 4.285c-.012-.016.002-.005-.017-.011l-2.146-.001c-.03.001-.028.006-.031.011.025.001.028.002.046.01.006.078-.082.142-.109.201.034-.007.059-.013.078.012.011.037-.06.196-.077.234l-.055.104c-.038.067-.053.103-.135.038l-.135-.105c-.057-.045-.088-.084-.162-.062-.029.008-.031.02-.055.029-.014-.02-.043-.038-.066-.064l-.065-.066-.124-.138a.42.42 0 0 0-.345-.18c.026.046.064.093.091.139.02.035.065.116.075.157-.176-.008-.258-.018-.41.053.068.044.174-.003.42.344.081.114.163.227.286.284.026.012.052.013.077 0 .014-.008.019-.017.028-.022s.019 0 .04-.001c.029.079.061.067.089.092s.025.051.065.058c.033.006.021-.002.042.02.07.07.114 0 .192.016.024.005.143.082.25.117.074.024.253.036.188.149l-.044.079a1.35 1.35 0 0 1-.156.21c-.017.019-.044.042-.057.067a.78.78 0 0 0 .34-.119l.039-.027a.45.45 0 0 1-.101.16c-.017.018-.032.029-.043.048.103-.017.233-.075.319-.135.013-.009.026-.022.038-.028-.016.077-.066.134-.092.192a1.29 1.29 0 0 0 .275-.129c.013-.008.023-.018.036-.024-.012.063-.047.113-.071.162.144.009.278-.093.359-.194.012-.014.025-.032.037-.043.011.009.025.03.034.042a.59.59 0 0 0 .123.116c.06.042.143.077.237.081-.017-.054-.061-.103-.07-.163.041.02.081.056.143.085a1.06 1.06 0 0 0 .166.067c-.023-.055-.08-.12-.09-.191.066.039.067.054.16.096a1.06 1.06 0 0 0 .196.066c-.038-.05-.132-.139-.143-.206.128.077.205.124.378.145-.032-.054-.137-.132-.256-.356-.073-.138.146-.101.355-.223.022-.013.053-.036.08-.042.048-.011.067.007.106.014s.067-.012.087-.029.005-.017.036-.021c.04-.005.047-.028.069-.055.009-.011.026-.014.04-.023.036-.025.033-.067.072-.073.045.009.055.052.12.025.231-.096.332-.444.575-.575.045-.024.124-.048.137-.055-.123-.064-.258-.067-.409-.053a.85.85 0 0 1 .073-.155l.092-.141c-.12-.003-.24.055-.313.142l-.156.175c-.043.05-.085.083-.131.13-.034-.012-.059-.047-.119-.033-.028.007-.072.047-.094.064l-.182.135c-.059.017-.067-.024-.088-.059s-.036-.067-.055-.104c-.023-.044-.083-.186-.083-.239.03-.029.037-.021.08-.015-.02-.033-.046-.062-.07-.098-.011-.017-.022-.035-.031-.055-.014-.029-.016-.047.016-.055" fill="#fefefe"/><g fill="#fdfdfd"><path d="M3.945 1.988c.107-.009.459.003.613.003l-.001.29c.001.027.007.023.037.022h.589.937l.004.028c.013-.023.002-.082-.003-.106-.013-.061-.025-.034.002-.092.024-.053.053-.131.027-.195-.021-.053-.033-.011-.021-.084.043-.251-.057-.279-.061-.289-.007-.022.047-.17-.028-.251-.028-.03-.029-.007-.038-.066-.02-.127-.015-.243-.105-.302-.029-.019-.025-.029-.034-.065L5.841.804C5.802.687 5.778.742 5.75.691 5.704.605 5.662.489 5.558.477 5.535.373 5.416.274 5.314.243c.02.135.037.219.013.363a.91.91 0 0 1-.104.289c-.097.172-.224.292-.376.416-.07.057-.151.109-.233.161l-.125.074c-.052.031-.033.005-.073.017-.015.005-.048.026-.065.035-.166.084-.361.202-.405.39m-2.441.7l.151-.001c.009.003.012.015.014.024a.95.95 0 0 0 .207.368c.533.604 1.643.671 2.298.278.17-.102.299-.205.408-.356l.061-.093c.031-.055.079-.152.089-.22h.141c.018.006.012-.005.015.016.006-.008.007.012.007-.023l-3.381.001"/><path d="M2.605 2.107l.003-.029 1.209-.001c.039-.105-.082-.161.059-.23L3.75 1.81c.016-.018.054-.04.077-.093-.041-.009-.091-.01-.116-.038.013-.032.037-.045.062-.068-.02-.01-.039-.005-.065-.024-.016-.011-.035-.031-.041-.049.045-.033.063-.032.105-.083-.026-.013-.068-.015-.101-.031s-.051-.036-.065-.07c-.033-.079-.017-.088-.077-.2.024-.04.085-.076.1-.163l-.074.017c.026-.026.063-.053.064-.113L3.574.894c.023-.048.038-.048.031-.127-.013.005-.048.033-.069.044-.118.067-.289.068-.42.046-.077-.014-.121-.036-.217-.013-.038.009-.06.026-.09.035-.008-.025-.033-.044-.058-.056-.028.012-.019.025-.066.016-.011.04-.043.021-.072.036-.009.026.014.024.016.061-.034 0-.047-.025-.084-.025-.009.038.033.069-.038.071a.13.13 0 0 0-.041.008c0 .035.029.065.068.053l.012.025-.023.014c.002.022.008.022.015.038-.161.001-.235.06-.234.224.042-.022.071-.062.165-.084.047-.012.196-.022.192.039-.042.015-.135.016-.186.017.021.05.132.062.149.072-.062.042-.164-.005-.23-.016.007.133.111.153.233.119.072-.02.265-.124.237.033-.045.015-.076.009-.123.008.004.054.024.056.057.08-.008.023-.041.04-.074.053a.47.47 0 0 1-.106.021c.011.017.06.044.08.103-.024.015-.066.01-.097.008l.026.019.027.019c.014.009.035.027.041.044-.046-.009-.087-.021-.139-.012.142.165.01.189.05.241m-2.318-.49c.031.009 1.205.003 1.346.003l.451.002a.52.52 0 0 0-.094-.056c-.032-.014-.034.005-.06-.008-.057-.028-.182-.11-.236-.144a1.81 1.81 0 0 1-.175-.129l-.083-.071c-.028-.023-.05-.054-.077-.076s-.049-.054-.071-.079a.96.96 0 0 1-.226-.533c-.008-.112.007-.178.022-.282-.092.021-.198.11-.237.21C.825.512.796.447.722.559.696.599.673.646.649.691.615.755.596.653.538.878.523.939.53.931.504.947c-.09.056-.087.171-.105.297-.008.055-.005.038-.035.065-.069.063-.037.187-.032.256-.016.017-.033.026-.043.052"/></g><path d="M4.89 2.702c-.003-.021.003-.01-.015-.016h-.141c-.011.068-.059.165-.089.22-.019.034-.039.064-.061.093-.11.151-.238.254-.408.356-.655.393-1.766.325-2.298-.278a.95.95 0 0 1-.207-.368c-.003-.009-.005-.021-.014-.024l-.151.001c.035.084.031.13.095.243a1.16 1.16 0 0 0 .179.242c.038.034.042.047.087.085.089.075.133.112.247.178.295.173.67.276 1.078.278.505.002 1.031-.161 1.376-.487.034-.032.057-.061.083-.088.047-.05.104-.127.142-.197.078-.145.055-.139.097-.239" fill="#332c2b"/></svg>