<svg xmlns="http://www.w3.org/2000/svg" height="24" width="24" xmlns:v="https://vecta.io/nano"><path d="M14.341 7.801c.113.266.298.157.444-.054.154-.541.209-.817.492-1.164.387-.477.967-.728 1.501-1.029.038-.026.096-.026.171 0 2.537-1.39 3.88-3.076 3.38-5.221.608.251.868.573.972.929.397.021.573.54.803.93.279.005.334.506.448.88.533.289.401.909.526 1.402.381.246.269.682.224 1.092.314.193.343.669.211 1.303.266.254.152.648-.067 1.077.202.519.082.939-.185 1.316.143.307.061.635-.17.98.11.58-.177.8-.421 1.115.102.439-.201.797-.75 1.166-.031.447-.419.691-1.026.893.061.249-.185.474-.777.669.049.26-.428.475-1.013.682-.032.317-.622.372-1.327.372-.058.205-.516.169-.987.125-.494.204-1.041-.226-1.592-.745l-.065-.078c.07.116.128.233.16.351.286.356.652.625 1.037.872a1.29 1.29 0 0 1-.4.061c.189.252.493.394.756.576-.202-.021-.442-.07-.502.026-.039.158.234.487.444.782-.118-.044-.235-.067-.334.055.115.528.35 1.018.64 1.491.033.105.135.129.305.07l.909-.705c.14-.112.296-.08.456-.028l.131.096c.397-.339.794-.802 1.191-1.255.365-.401.778-.483 1.199-.519-.258.341-.487.727-.669 1.176.599-.077 1.154-.036 1.637.212-1.455.337-1.65 1.851-2.755 2.447-.204.115-.353.052-.48-.09-.014.025-.058.032-.129.022-.086.176-.188.32-.35.349-.116.215-.231.268-.349.246-.436.455-.502-.013-.943.173-.394.266-.867.46-1.426.569-.182.094-.353.196-.182.465.27.538.632.979 1.021 1.391-.493-.095-.986-.183-1.528-.596.148.361.369.609.601.844-.513-.151-1.021-.308-1.434-.666.073.28.227.529.383.778-.444-.164-.886-.333-1.246-.625.055.231.173.446.295.66-.513-.019-1.027-.227-1.569-.954-.542.727-1.056.935-1.568.954.122-.214.24-.429.295-.66-.361.292-.803.461-1.246.625.155-.249.31-.499.382-.778-.413.358-.92.515-1.434.666.231-.234.452-.483.601-.844-.542.413-1.035.502-1.528.596.388-.413.75-.853 1.021-1.391.171-.269 0-.371-.182-.465-.56-.109-1.032-.303-1.426-.569-.442-.186-.508.282-.944-.173-.118.022-.233-.03-.349-.246-.163-.029-.265-.173-.351-.349-.071.01-.115.003-.129-.022-.126.143-.276.205-.48.09-1.105-.596-1.3-2.109-2.755-2.447.483-.248 1.038-.289 1.637-.212-.182-.449-.41-.835-.669-1.176.422.036.834.118 1.2.519l1.19 1.255.131-.096c.16-.052.317-.084.456.028l.909.705c.17.059.272.035.305-.07.289-.474.525-.964.64-1.491-.098-.122-.216-.099-.334-.055.21-.295.483-.624.444-.782-.059-.096-.3-.047-.502-.026.263-.182.567-.324.756-.576-.157.003-.282-.027-.4-.061.384-.247.75-.516 1.037-.872.032-.118.09-.234.16-.351l-.066.078c-.551.519-1.098.948-1.592.745-.471.044-.929.08-.987-.125-.705 0-1.295-.055-1.327-.372-.586-.206-1.063-.422-1.013-.682-.592-.195-.838-.42-.777-.669-.608-.202-.996-.446-1.026-.893-.55-.369-.852-.727-.75-1.166-.243-.315-.531-.535-.42-1.115-.231-.345-.313-.673-.17-.98-.266-.376-.387-.797-.185-1.316-.22-.429-.333-.823-.067-1.077-.132-.634-.104-1.109.211-1.303-.045-.41-.157-.846.224-1.092.125-.493-.007-1.112.526-1.402.113-.373.169-.875.448-.88.23-.391.406-.91.803-.93.105-.356.365-.678.972-.929-.5 2.144.844 3.831 3.38 5.221.075-.026.134-.026.172 0 .533.301 1.113.552 1.5 1.029.284.347.339.624.493 1.164.145.211.33.32.443.054-.026-.157-.061-.315.067-.429.019-.243-.089-.452-.281-.64.177-.014.362-.012.57.058-.054-.122-.227-.23-.419-.337.13.019.259.037.433-.015a.86.86 0 0 0-.342-.408c.284-.035.563-.076.739-.295-.162-.077-.24-.182-.237-.315.172.005.352.031.488-.029.043-.245-.051-.345-.235-.346-.408.049-1.497.743-1.624-.257.432.122.795.189.922.057-.281-.038-.494-.122-.609-.273a4.2 4.2 0 0 0 .724-.057c.201-.113-.602-.477-1.387.179 0-.51.167-.907.938-.89-.082-.102-.131-.193.045-.195-.051-.041-.07-.081-.059-.122-.052.028-.108.044-.191-.014-.093-.112-.212-.234.144-.215.263-.023-.169-.446.275-.215.186.094.129 0 .121-.058-.082-.098-.122-.186.115-.173.068-.009.108-.054.129-.121.074.035.154.029.245-.066.098.054.19.12.244.231.336-.207.731-.233 1.189-.094.676.08 1.349.128 1.935-.367.017.181.013.359-.136.51l.19.007c.016.201-.131.325-.267.452l.312-.08c-.041.25-.212.448-.404.64.426.726.089 1.036.976 1.194-.124.136-.266.251-.433.33.115.207.272.273.449.281-.093.055-.183.124-.274.279.135.089.292.134.472.137-.074.138-.177.272-.343.395.208.055.378.087.541.115a.52.52 0 0 0-.311.331.83.83 0 0 1-.028.815zm-3.05-4.687c-.24.14-.555.14-.894.09-.256.327-.585.294-.964.32.186.058.452.082.477.22.014.082-.003.18.141.18a.32.32 0 0 0 .028.261c.994.102 1.198-.648.513-.829.388.074.601-.028.7-.242zm7.38 6.864c-.538 2.296-3.319 4.045-6.671 4.045s-6.131-1.749-6.668-4.045h.615c.53 2.056 3.04 3.611 6.054 3.611s5.525-1.556 6.055-3.611z" fill="none" stroke="#332d2b" stroke-linejoin="round" stroke-miterlimit="1145.91577148" stroke-width="1.051"/><path d="M14.34 7.801c.113.266.298.157.443-.054.154-.541.209-.817.493-1.165.387-.477.967-.728 1.5-1.029.038-.026.096-.026.172 0 2.537-1.39 3.88-3.076 3.38-5.221.608.251.868.573.973.929.397.02.573.539.802.931.279.004.334.506.448.879.534.289.401.909.526 1.401.381.246.269.682.224 1.092.314.193.343.669.211 1.302.266.255.153.649-.067 1.078.202.519.082.939-.185 1.316.143.307.061.635-.17.98.11.58-.177.799-.42 1.115.102.439-.201.797-.75 1.166-.03.446-.418.691-1.026.893.061.249-.185.474-.776.669.049.26-.427.475-1.014.682-.032.317-.622.372-1.327.372-.058.205-.516.169-.987.125-.494.203-1.041-.225-1.592-.745l-.066-.078c.07.116.128.233.16.35.286.356.653.625 1.036.872-.118.033-.243.064-.4.061.189.252.493.394.756.576-.202-.02-.442-.069-.501.027-.039.158.234.487.443.782-.118-.043-.235-.067-.335.055.115.528.35 1.018.64 1.492.033.105.135.129.305.07l.909-.705c.139-.112.296-.08.456-.028l.131.096c.397-.339.794-.803 1.191-1.255.365-.401.778-.483 1.199-.519a5.07 5.07 0 0 0-.669 1.176c.599-.077 1.154-.036 1.637.212-1.455.338-1.65 1.851-2.755 2.447-.204.115-.353.053-.48-.09-.015.025-.058.032-.13.022-.086.176-.187.32-.35.349-.116.215-.231.268-.349.246-.436.455-.501-.013-.944.173a3.83 3.83 0 0 1-1.426.568c-.182.095-.353.196-.182.465.271.538.632.979 1.02 1.392-.493-.095-.986-.183-1.528-.596.148.361.369.609.6.843-.513-.151-1.02-.308-1.433-.666.073.279.227.529.382.778-.443-.164-.885-.333-1.246-.625.055.231.173.446.295.66-.513-.019-1.027-.227-1.569-.954-.542.727-1.056.935-1.569.954.122-.214.24-.429.295-.66-.361.292-.802.461-1.246.625.155-.249.31-.499.382-.778-.413.358-.92.515-1.433.666.231-.234.452-.483.6-.843-.542.413-1.035.501-1.528.596.388-.413.75-.853 1.021-1.392.172-.269 0-.37-.182-.465-.56-.109-1.032-.303-1.426-.568-.442-.186-.508.282-.944-.173-.118.022-.232-.031-.349-.246-.163-.029-.265-.173-.35-.349-.071.01-.115.003-.13-.022-.126.143-.276.205-.48.09-1.105-.596-1.3-2.109-2.755-2.447.483-.248 1.038-.289 1.637-.212a5.07 5.07 0 0 0-.669-1.176c.421.036.835.118 1.199.519l1.191 1.255.131-.096c.16-.053.317-.084.456.028l.909.705c.17.059.272.035.305-.07.29-.474.525-.964.64-1.492-.099-.122-.217-.099-.334-.055.209-.295.483-.624.443-.782-.059-.096-.299-.047-.502-.027.263-.181.567-.324.756-.576-.157.003-.282-.028-.4-.061.384-.247.75-.516 1.036-.872.032-.118.09-.234.16-.35l-.066.078c-.551.519-1.098.948-1.592.745-.471.043-.929.08-.987-.125-.705 0-1.296-.055-1.327-.372-.586-.206-1.063-.421-1.014-.682-.591-.195-.837-.42-.776-.669-.608-.202-.996-.446-1.026-.893-.55-.369-.852-.727-.75-1.166-.243-.316-.531-.535-.42-1.115-.231-.345-.313-.673-.17-.98-.266-.376-.387-.797-.184-1.316-.22-.429-.333-.823-.067-1.078-.132-.634-.104-1.109.211-1.302-.045-.41-.157-.846.224-1.092.125-.493-.008-1.112.526-1.401.113-.374.169-.875.448-.879.23-.391.405-.91.802-.931.105-.356.365-.678.973-.929-.5 2.145.843 3.831 3.38 5.221.076-.026.134-.026.172 0 .534.301 1.114.553 1.501 1.029.283.348.339.624.493 1.165.145.211.33.32.443.054-.026-.157-.061-.316.067-.429.019-.243-.089-.452-.281-.639a1.36 1.36 0 0 1 .57.058c-.054-.123-.227-.23-.418-.338.129.019.259.038.433-.014a.86.86 0 0 0-.342-.409c.283-.035.563-.075.739-.295-.161-.077-.24-.182-.237-.316.172.005.352.031.488-.029.042-.244-.051-.344-.235-.346-.409.049-1.497.743-1.624-.257.432.122.795.189.921.057-.281-.038-.494-.122-.609-.273.241-.003.483-.012.724-.057.201-.113-.602-.477-1.387.179 0-.51.167-.907.938-.89-.082-.102-.131-.193.045-.195-.051-.04-.07-.081-.06-.122-.052.028-.107.044-.19-.014-.093-.112-.212-.234.144-.215.263-.023-.169-.446.275-.215.186.095.129 0 .121-.058-.081-.099-.122-.186.115-.173.068-.009.108-.054.13-.121.074.035.154.029.244-.065.099.054.191.119.244.231.336-.206.731-.233 1.189-.095.676.08 1.349.128 1.935-.367.018.18.013.359-.136.511l.191.007c.016.201-.131.324-.268.452l.313-.08c-.041.25-.212.448-.404.64.426.725.088 1.035.975 1.194-.124.137-.266.252-.433.33a.5.5 0 0 0 .449.281c-.093.055-.183.124-.275.279.135.089.292.134.472.137a1.17 1.17 0 0 1-.343.395c.208.055.378.087.541.115-.164.074-.269.184-.311.331a.83.83 0 0 1-.028.816zm-3.05-4.687c-.24.14-.556.14-.894.09-.256.327-.584.294-.964.32.186.058.452.082.477.22.014.081-.003.18.141.18-.029.081-.019.17.028.26.994.102 1.198-.649.513-.829.388.074.6-.028.699-.242zm7.379 6.864c-.538 2.296-3.319 4.045-6.67 4.045s-6.131-1.749-6.669-4.045h.615c.531 2.056 3.04 3.611 6.054 3.611s5.525-1.556 6.055-3.611z" fill="#fff" fill-rule="evenodd"/></svg>