<svg xmlns="http://www.w3.org/2000/svg" height="6.4" width="6.4" xmlns:v="https://vecta.io/nano"><path d="M3.808 2.109c.029.069.077.041.115-.014.04-.14.054-.212.128-.303.101-.124.252-.19.39-.268.01-.007.025-.007.044 0 .66-.361 1.009-.8.879-1.357.158.065.226.149.253.241.103.005.149.14.209.242.073.001.087.131.116.229.139.075.104.236.137.364.099.064.07.177.058.284.082.05.089.174.055.339.069.066.04.168-.017.28.053.135.021.244-.048.342.037.08.016.165-.044.255.029.151-.046.208-.109.29.026.114-.052.207-.195.303-.008.116-.109.18-.267.232.016.065-.048.123-.202.174.013.067-.111.123-.263.177-.008.082-.162.097-.345.097-.015.053-.134.044-.257.033-.128.053-.27-.058-.414-.193l-.017-.02c.018.03.033.061.042.091.075.093.169.163.269.227-.031.009-.063.017-.104.016.049.065.128.102.196.149-.052-.005-.115-.018-.13.007-.01.041.061.127.115.203-.03-.012-.061-.018-.087.014a1.26 1.26 0 0 0 .166.388c.009.027.035.034.079.018l.236-.183c.036-.029.077-.021.119-.007l.034.025c.103-.088.206-.208.31-.326.095-.104.202-.125.312-.135-.067.088-.126.189-.174.306.155-.02.3-.009.426.055-.378.088-.429.481-.716.636-.053.03-.092.014-.125-.024-.004.006-.015.009-.033.006-.023.046-.049.083-.091.091-.03.056-.06.07-.091.064-.113.118-.13-.004-.245.045a.99.99 0 0 1-.37.148c-.047.024-.092.051-.047.121.07.14.164.254.265.362-.128-.025-.256-.048-.397-.155a.66.66 0 0 0 .156.219c-.133-.039-.265-.08-.373-.173.019.073.059.138.099.202-.115-.043-.23-.086-.324-.162.014.06.045.116.077.172-.134-.005-.267-.059-.408-.248-.141.189-.274.243-.408.248.032-.055.062-.111.077-.172-.094.076-.209.12-.324.162a.73.73 0 0 0 .099-.202c-.107.093-.239.134-.373.173a.67.67 0 0 0 .156-.219c-.141.107-.269.13-.397.155.101-.107.195-.222.265-.362.044-.07 0-.096-.047-.121-.145-.028-.268-.079-.371-.148-.115-.048-.132.073-.245-.045-.03.005-.06-.008-.091-.064-.042-.007-.069-.045-.091-.091-.019.003-.03.001-.034-.006-.033.037-.072.053-.125.024-.287-.155-.338-.549-.716-.636.125-.065.27-.075.426-.055a1.32 1.32 0 0 0-.174-.306.43.43 0 0 1 .312.135l.31.326.034-.025c.042-.014.082-.022.119.007l.236.183c.044.015.071.009.079-.018a1.26 1.26 0 0 0 .166-.388c-.026-.032-.056-.026-.087-.014.054-.077.126-.162.115-.203-.015-.025-.078-.012-.13-.007.069-.047.148-.084.197-.149a.34.34 0 0 1-.104-.016 1.09 1.09 0 0 0 .269-.227c.008-.03.023-.061.042-.091l-.017.02c-.143.135-.285.246-.414.193-.122.012-.242.021-.257-.033-.183 0-.337-.014-.345-.097-.152-.054-.276-.11-.264-.177-.154-.051-.217-.109-.202-.174-.158-.052-.259-.116-.267-.232-.143-.096-.221-.189-.195-.303-.063-.082-.138-.139-.109-.29-.06-.09-.081-.175-.044-.255-.069-.098-.101-.207-.048-.342-.057-.112-.087-.214-.017-.28-.035-.165-.027-.288.055-.339-.012-.107-.041-.22.058-.284C.352 1.115.318.954.456.879.486.782.5.651.573.65.633.549.679.414.782.409.809.316.876.232 1.034.167c-.13.557.219.996.879 1.357.02-.007.035-.007.045 0 .139.078.29.144.39.268.074.09.088.162.128.303.038.055.086.083.115.014-.007-.041-.016-.082.017-.111.005-.063-.023-.118-.073-.166a.35.35 0 0 1 .148.015c-.014-.032-.059-.06-.109-.088.034.005.067.01.113-.004-.021-.051-.052-.082-.089-.106.074-.009.146-.02.192-.077-.042-.02-.062-.047-.062-.082.044.001.091.008.127-.007.011-.063-.013-.09-.061-.09-.106.013-.389.193-.422-.067.112.032.207.049.24.015-.073-.01-.129-.031-.158-.071a1.06 1.06 0 0 0 .188-.015c.052-.029-.157-.124-.36.047 0-.133.043-.236.244-.231-.021-.026-.034-.05.012-.05-.013-.011-.018-.021-.015-.032-.014.007-.028.012-.05-.004-.024-.029-.055-.061.038-.056.068-.006-.044-.116.071-.056.048.025.034 0 .031-.015-.021-.026-.032-.048.03-.045.018-.002.028-.014.034-.031.019.009.04.007.063-.017.026.014.05.031.064.06.087-.054.19-.061.309-.024.176.021.351.033.503-.095.004.047.003.093-.036.133l.05.002c.004.052-.034.085-.07.118l.081-.021c-.01.065-.055.116-.105.167.111.188.023.269.254.31a.36.36 0 0 1-.112.086.13.13 0 0 0 .117.073c-.024.014-.048.032-.072.072.035.023.076.035.123.036a.3.3 0 0 1-.089.103l.141.03c-.043.019-.07.048-.081.086.034.07.032.141-.007.212z" fill="none" stroke="#332d2b" stroke-linejoin="round" stroke-miterlimit="1145.91577148" stroke-width=".273"/><g fill-rule="evenodd"><path d="M3.808 2.109c.029.069.077.041.115-.014.04-.141.055-.213.128-.303.101-.124.251-.189.39-.268.01-.007.025-.007.045 0 .66-.361 1.009-.8.879-1.357.158.065.226.149.253.241.103.005.149.14.209.242.073.001.087.132.116.229.139.075.104.236.137.364.099.064.07.177.058.284.082.05.089.174.055.339.069.066.04.169-.017.28.053.135.021.244-.048.342.037.08.016.165-.044.255.029.151-.046.208-.109.29.027.114-.052.207-.195.303-.008.116-.109.179-.267.232.016.065-.048.123-.202.174.013.068-.111.124-.263.177-.008.082-.162.097-.345.097-.015.053-.134.044-.257.033-.129.053-.271-.059-.414-.194l-.017-.02c.018.03.033.061.042.091.074.093.17.162.269.227-.031.009-.063.017-.104.016.049.065.128.103.197.15-.053-.005-.115-.018-.13.007-.01.041.061.127.115.203-.031-.011-.061-.017-.087.014.03.137.091.265.166.388.009.027.035.034.079.018l.236-.183c.036-.029.077-.021.119-.007l.034.025c.103-.088.206-.209.31-.326a.43.43 0 0 1 .312-.135c-.067.089-.127.189-.174.306.156-.02.3-.009.426.055-.378.088-.429.481-.716.636-.053.03-.092.014-.125-.023-.004.007-.015.008-.034.006-.022.046-.049.083-.091.091-.03.056-.06.07-.091.064-.113.118-.13-.003-.245.045-.102.069-.225.119-.371.148-.047.025-.092.051-.047.121.07.14.164.254.265.362-.128-.025-.256-.048-.397-.155.039.094.096.158.156.219-.133-.039-.265-.08-.373-.173.019.073.059.138.099.202-.115-.043-.23-.087-.324-.163a.67.67 0 0 0 .077.172c-.133-.005-.267-.059-.408-.248-.141.189-.274.243-.408.248a.67.67 0 0 0 .077-.172c-.094.076-.209.12-.324.163.04-.065.08-.13.099-.202-.107.093-.239.134-.373.173.06-.061.118-.125.156-.219-.141.107-.269.13-.397.155.101-.107.195-.222.265-.362.045-.07 0-.096-.047-.121-.145-.028-.268-.079-.371-.148-.115-.048-.132.073-.245-.045-.031.006-.061-.008-.091-.064-.042-.008-.069-.045-.091-.091-.019.003-.03.001-.034-.006-.033.037-.072.053-.125.023-.287-.155-.338-.548-.716-.636.125-.065.27-.075.426-.055-.047-.117-.107-.217-.174-.306a.43.43 0 0 1 .312.135l.31.326.034-.025c.042-.014.082-.022.119.007l.236.183c.044.015.071.009.079-.018.075-.123.136-.251.166-.388-.026-.032-.056-.026-.087-.014.055-.077.126-.162.115-.203-.015-.025-.078-.012-.13-.007.068-.047.147-.084.197-.15-.041.001-.073-.007-.104-.016a1.1 1.1 0 0 0 .269-.227c.008-.031.023-.061.041-.091l-.017.02c-.143.135-.285.247-.414.194-.122.011-.241.021-.257-.033-.183 0-.337-.014-.345-.097-.152-.054-.276-.11-.263-.177-.154-.051-.218-.109-.202-.174-.158-.053-.259-.116-.267-.232-.143-.096-.221-.189-.195-.303-.063-.082-.138-.139-.109-.29-.06-.09-.081-.175-.044-.255-.069-.098-.101-.207-.048-.342-.057-.111-.087-.214-.017-.28-.034-.165-.027-.288.055-.339-.012-.107-.041-.22.058-.284C.352 1.115.318.954.457.879.486.782.5.652.573.65.633.549.678.414.782.409.809.316.877.232 1.034.167c-.13.557.219.996.879 1.357.02-.007.035-.007.045 0 .139.078.29.144.39.268.074.09.088.162.128.303.038.055.086.083.115.014-.007-.041-.016-.082.017-.111.005-.063-.023-.117-.073-.166.046-.004.094-.003.148.015-.014-.032-.059-.06-.109-.088.034.005.067.01.113-.004-.021-.05-.052-.082-.089-.106.074-.009.146-.02.192-.077-.042-.02-.062-.047-.062-.082.045.001.091.008.127-.007.011-.064-.013-.09-.061-.09-.106.013-.389.193-.422-.067.112.032.207.049.24.015-.073-.01-.129-.032-.158-.071.063-.001.125-.003.188-.015.052-.029-.157-.124-.361.047 0-.133.043-.236.244-.231-.021-.026-.034-.05.012-.051-.013-.011-.018-.021-.015-.032-.014.007-.028.011-.05-.004-.024-.029-.055-.061.037-.056.068-.006-.044-.116.071-.056.048.025.034 0 .031-.015-.021-.026-.032-.048.03-.045.018-.002.028-.014.034-.031.019.009.04.008.064-.017.026.014.049.031.063.06.087-.054.19-.061.309-.025.176.021.351.033.503-.095.005.047.003.093-.035.133l.049.002c.004.052-.034.084-.069.117l.081-.021c-.011.065-.055.116-.105.166.111.189.023.269.254.31-.032.035-.069.065-.113.086.03.054.071.071.117.073-.024.014-.048.032-.071.073.035.023.076.035.123.036-.019.036-.046.071-.089.103a1.49 1.49 0 0 0 .141.03c-.043.019-.07.048-.081.086.034.07.033.141-.007.212" fill="#fff"/><path d="M3.016.89c-.063.036-.145.036-.233.023-.067.085-.151.077-.252.083.05.015.119.021.125.058.004.02 0 .045.037.046-.007.022-.005.045.007.067.259.026.312-.169.134-.215.101.019.156-.008.182-.062"/><path d="M4.934 2.674c-.14.597-.863 1.051-1.734 1.051s-1.594-.455-1.734-1.051h.16c.138.534.79.939 1.574.939s1.436-.404 1.574-.939z" fill="#332d2b"/></g></svg>