<svg xmlns="http://www.w3.org/2000/svg" height="14.4" width="14.4" xmlns:v="https://vecta.io/nano"><path d="M6.83 2.564c-.125.073-.29.073-.466.047-.133.171-.305.153-.503.167.097.03.236.042.249.115.008.042-.002.094.074.094-.015.042-.01.088.014.136.519.053.625-.338.268-.432.202.038.313-.014.365-.126z" fill="none" stroke="#332d2b" stroke-linejoin="round" stroke-miterlimit="1145.91577148" stroke-width=".986"/><path d="M6.83 2.564c-.125.073-.29.073-.466.047-.133.171-.305.153-.503.167.097.03.236.042.249.115.008.042-.001.094.074.094-.015.042-.01.088.014.136.519.053.625-.338.268-.432.203.039.313-.014.365-.126" fill="#fff" fill-rule="evenodd"/><path d="M8.421 5.009c.059.139.156.082.231-.028.08-.282.109-.426.257-.608.202-.248.505-.38.783-.537.019-.014.05-.014.09 0 1.323-.725 2.024-1.605 1.763-2.724.317.131.453.299.507.485.207.01.299.281.418.485.146.002.175.264.234.459.278.151.209.474.274.731.199.128.14.356.117.57.164.101.179.349.11.68.139.133.079.338-.035.562a.68.68 0 0 1-.096.686c.074.16.032.331-.089.511.057.302-.093.417-.219.581.053.229-.105.416-.392.608-.015.233-.218.36-.535.466.032.13-.096.247-.405.349.025.136-.223.248-.529.356-.017.166-.325.194-.692.194-.03.107-.27.088-.515.065-.258.106-.543-.117-.83-.388l-.034-.041a.75.75 0 0 1 .084.183c.149.186.34.326.54.455a.68.68 0 0 1-.209.032c.099.131.257.206.395.3-.106-.011-.231-.036-.261.014-.021.083.122.254.231.408-.062-.023-.123-.035-.175.029a2.55 2.55 0 0 0 .334.778c.017.054.07.067.159.036l.474-.368c.073-.059.155-.042.238-.014l.068.05c.207-.176.414-.419.621-.655.19-.209.406-.252.625-.271a2.65 2.65 0 0 0-.349.614c.313-.04.602-.019.854.111-.759.176-.86.966-1.437 1.276-.106.06-.184.028-.25-.047-.007.013-.03.017-.068.011-.045.092-.098.167-.183.182-.06.112-.12.139-.182.128-.228.237-.261-.007-.493.09-.205.139-.451.24-.744.297-.095.049-.185.102-.095.242.141.281.33.511.533.726-.257-.049-.514-.096-.797-.311.077.188.193.318.313.44-.268-.079-.533-.161-.748-.347.038.146.118.276.2.406-.231-.086-.462-.173-.65-.326.029.12.09.233.154.344-.268-.01-.536-.118-.819-.497-.283.379-.551.488-.818.497a1.33 1.33 0 0 0 .154-.344c-.188.152-.418.24-.65.326.081-.13.161-.26.199-.406-.215.186-.48.268-.748.347.121-.122.236-.252.313-.44-.283.215-.54.262-.797.311.202-.215.391-.445.533-.726.089-.14 0-.193-.095-.242-.292-.057-.539-.158-.744-.297-.231-.097-.265.147-.493-.09-.061.011-.121-.016-.182-.128-.085-.015-.138-.09-.183-.182-.037.005-.06.001-.068-.011-.066.074-.144.107-.25.047-.576-.311-.678-1.1-1.437-1.276.252-.13.541-.151.854-.111a2.65 2.65 0 0 0-.349-.614c.22.019.435.062.625.271l.621.655.068-.05c.083-.028.165-.044.238.014l.474.368c.089.031.142.018.159-.036.151-.247.273-.503.334-.778-.052-.064-.113-.051-.175-.029.109-.154.252-.325.231-.408-.031-.05-.156-.024-.262-.014.137-.095.296-.169.395-.3-.082.002-.148-.014-.209-.032.2-.129.391-.269.541-.455.017-.061.047-.122.083-.183l-.034.041c-.287.271-.573.494-.831.388-.246.023-.484.042-.515-.065-.368 0-.676-.029-.692-.194-.306-.108-.554-.22-.529-.356-.309-.102-.437-.219-.405-.349-.317-.105-.52-.233-.536-.466-.286-.193-.444-.379-.391-.608-.127-.164-.277-.279-.219-.581-.12-.18-.163-.351-.089-.511-.139-.197-.202-.416-.096-.686-.115-.224-.174-.429-.035-.562-.069-.331-.054-.579.11-.68-.023-.214-.082-.441.117-.57.065-.257-.004-.58.274-.731.059-.195.088-.457.233-.459.12-.204.212-.475.419-.485.054-.186.191-.354.508-.485-.261 1.119.439 1.999 1.763 2.724.039-.014.07-.014.09 0 .278.157.581.288.783.537.148.181.176.326.257.608.076.11.172.167.231.028-.014-.082-.032-.164.035-.224.01-.127-.046-.236-.146-.333a.7.7 0 0 1 .297.03c-.028-.064-.118-.12-.218-.176.067.01.135.019.226-.008a.45.45 0 0 0-.178-.213c.148-.018.294-.039.385-.154-.084-.04-.125-.095-.123-.165.09.003.184.016.255-.015.022-.127-.027-.179-.123-.18-.213.026-.781.387-.847-.134.225.063.415.098.481.03-.146-.02-.258-.064-.317-.143a2.21 2.21 0 0 0 .378-.03c.105-.059-.314-.249-.723.093 0-.266.087-.473.489-.464-.043-.053-.068-.101.024-.101-.027-.021-.037-.042-.031-.064-.027.015-.056.023-.099-.007-.049-.059-.111-.122.075-.113.137-.012-.087-.233.144-.112.097.049.067 0 .063-.031-.042-.051-.064-.097.06-.09.035-.005.056-.028.067-.063.039.018.08.015.127-.034.052.028.099.062.127.121.175-.108.382-.121.621-.05.353.042.704.067 1.009-.191.009.094.007.188-.071.266l.099.004c.008.105-.068.169-.139.236l.163-.042c-.021.131-.111.234-.211.334.222.378.046.54.509.623-.065.071-.139.131-.226.172a.26.26 0 0 0 .234.147.37.37 0 0 0-.143.146.45.45 0 0 0 .246.071c-.039.072-.093.142-.179.206.108.029.197.046.282.06-.085.038-.14.096-.162.173.069.141.065.283-.014.425z" fill="none" stroke="#332d2b" stroke-linejoin="round" stroke-miterlimit="1145.91577148" stroke-width=".986"/><g fill-rule="evenodd"><path d="M8.421 5.009c.059.139.156.082.231-.028.08-.282.109-.426.257-.608.202-.248.505-.38.783-.537.02-.014.05-.014.09 0 1.323-.725 2.024-1.605 1.763-2.723.317.131.453.299.508.485.207.011.299.281.418.485.146.002.175.264.234.459.278.151.209.474.274.731.199.128.14.356.117.57.164.101.179.349.11.679.139.133.079.338-.035.562a.68.68 0 0 1-.096.686c.074.16.032.331-.089.511.057.302-.093.417-.219.581.053.229-.105.416-.392.609-.015.233-.218.36-.535.466.032.13-.096.247-.405.349.025.136-.223.248-.529.356-.017.165-.325.194-.693.194-.03.107-.269.088-.515.065-.258.106-.543-.117-.83-.388l-.034-.041a.74.74 0 0 1 .084.183c.149.186.341.326.541.455-.061.017-.127.033-.209.032.099.132.257.206.395.301-.105-.011-.231-.036-.262.014-.021.083.122.254.231.408-.062-.023-.123-.035-.175.029.06.275.183.531.334.778.017.054.07.067.159.036l.474-.368c.073-.059.155-.042.238-.014l.068.05c.207-.177.414-.419.621-.655.19-.209.406-.252.626-.271-.135.178-.254.379-.349.613.313-.04.602-.019.854.111-.759.176-.861.966-1.437 1.276-.106.06-.184.028-.25-.047-.008.013-.03.017-.068.011-.045.092-.098.167-.183.182-.061.112-.12.139-.182.128-.227.237-.261-.007-.492.09-.205.139-.452.24-.744.297-.095.049-.184.102-.095.242.141.281.33.511.533.726-.257-.049-.514-.096-.797-.311.077.188.193.318.313.44-.268-.079-.533-.161-.748-.347.038.145.118.276.2.405-.231-.085-.462-.173-.65-.326.029.12.09.233.154.344-.268-.01-.536-.118-.819-.497-.283.379-.551.488-.818.497.064-.111.125-.224.154-.344-.188.152-.418.24-.65.326.081-.13.161-.26.199-.405-.215.186-.48.268-.748.347.121-.122.236-.252.313-.44-.283.215-.54.262-.797.311.203-.215.391-.445.533-.726.089-.14 0-.193-.095-.242-.292-.057-.539-.158-.744-.297-.231-.097-.265.147-.493-.09-.062.011-.121-.016-.182-.128-.085-.015-.138-.09-.183-.182-.037.005-.06.001-.068-.011-.066.074-.144.107-.25.047-.576-.311-.678-1.1-1.437-1.276.252-.13.541-.151.854-.111-.095-.234-.214-.436-.349-.613.22.019.435.062.626.271l.621.655.068-.05c.083-.028.165-.044.238.014l.474.368c.089.031.142.018.159-.036.151-.247.274-.503.334-.778-.052-.064-.113-.051-.175-.029.109-.154.252-.325.231-.408-.031-.05-.156-.024-.261-.014.137-.095.296-.169.395-.301-.082.002-.147-.014-.209-.032.2-.129.391-.269.541-.455.017-.061.047-.122.083-.183l-.034.041c-.287.271-.573.494-.831.388-.246.023-.485.042-.515-.065-.368 0-.676-.029-.692-.194-.306-.108-.555-.22-.529-.356-.308-.102-.437-.219-.405-.349-.317-.105-.52-.233-.536-.466-.286-.193-.444-.379-.391-.609-.127-.164-.277-.279-.219-.581-.121-.18-.163-.351-.089-.511a.68.68 0 0 1-.096-.686c-.115-.224-.174-.429-.035-.562-.069-.331-.054-.579.11-.679-.023-.214-.082-.441.117-.57.065-.257-.004-.58.274-.731.059-.195.088-.457.234-.459.12-.204.212-.475.419-.485.054-.186.191-.354.508-.485-.261 1.119.44 1.999 1.763 2.723.039-.014.069-.014.089 0 .278.157.581.288.783.537.148.181.177.326.257.608.076.11.172.167.231.028-.014-.082-.032-.164.035-.224.01-.127-.046-.236-.146-.333a.7.7 0 0 1 .297.03c-.028-.064-.118-.12-.218-.176.067.01.135.02.226-.008a.45.45 0 0 0-.178-.213c.148-.018.294-.039.385-.154-.084-.041-.125-.095-.124-.165.09.003.184.016.255-.015.022-.127-.027-.179-.123-.18-.213.026-.781.387-.847-.134.225.063.415.098.481.029-.146-.02-.258-.064-.317-.143.125-.002.252-.006.377-.03.105-.059-.314-.249-.723.093 0-.266.087-.473.489-.464-.043-.053-.068-.101.023-.102-.027-.021-.037-.042-.031-.064-.027.015-.056.023-.099-.007-.049-.059-.111-.122.075-.113.137-.012-.088-.233.144-.112.097.049.067 0 .063-.031-.042-.051-.064-.097.06-.09.036-.005.056-.028.067-.063.039.018.081.015.127-.034.052.028.099.062.127.121.175-.108.382-.121.621-.049.353.042.704.067 1.009-.191.009.094.007.187-.071.267l.099.004c.008.105-.068.169-.139.236l.163-.042c-.021.131-.111.234-.211.334.222.378.046.54.509.623-.065.071-.139.131-.226.172a.26.26 0 0 0 .234.147c-.049.029-.096.065-.143.146a.45.45 0 0 0 .247.071.61.61 0 0 1-.179.206c.109.029.197.046.282.06-.085.039-.14.096-.162.173.069.141.065.283-.014.425" fill="#fff"/><path d="M10.679 6.145c-.281 1.198-1.732 2.11-3.48 2.11s-3.198-.912-3.479-2.11h.321C4.319 7.217 5.628 8.028 7.2 8.028s2.882-.811 3.159-1.884z" fill="#332d2b" stroke="#332d2b" stroke-miterlimit="22.92558479" stroke-width=".288"/></g></svg>