<svg xmlns="http://www.w3.org/2000/svg" width="1.6" height="1.6" viewBox="0 0 1.2 1.2" fill="#b30b00" fill-rule="evenodd" xmlns:v="https://vecta.io/nano"><path d="M.579.186v.826L.001.946V.254zM.258.385C.21.396.231.479.243.515c.009.026.011.017 0 .044L.207.641.187.679C.176.702.177.698.156.709S.104.74.088.758C.057.793.088.829.121.809.144.796.172.755.187.729.192.721.192.718.201.714L.244.696A.62.62 0 0 1 .335.669C.373.661.357.675.421.695.449.703.505.712.505.674.504.626.405.634.369.639.348.641.317.602.306.587S.291.563.284.549.278.536.287.506.306.433.296.406C.291.392.278.381.258.385zm.005.111C.258.485.254.463.253.451S.251.411.264.409.276.438.274.45a.15.15 0 0 1-.011.046zM.215.68C.221.664.234.643.242.625L.268.569A.21.21 0 0 0 .293.61C.309.63.309.628.324.643l.002.002C.32.648.28.658.269.661L.215.68zM.48.676C.458.68.411.67.401.66.421.659.475.657.48.676zM.1.79C.098.772.141.745.149.742.145.752.116.79.1.79"/><path d="M.784.09c.017.112-.03.197.052.278.095.093.167.038.277.057.006.072.004.478.001.587-.001.061-.034.098-.094.101H.424c-.15 0-.189-.003-.197-.108L.173.998.154.997.144.995l.003.056c.012.071.07.13.141.142.049.008.469.003.556.003.162 0 .354.04.353-.212L1.196.427C1.191.334 1.132.298 1.089.255L.948.112C.899.06.863.01.775.005H.497c-.158 0-.347-.039-.353.2l.01-.002.019-.002.054-.006C.228.171.231.149.239.134.265.087.321.088.39.088zM.656.304h.091c.007.022.02.042.04.063.008.008.015.014.023.02H.656C.633.387.614.368.614.345S.633.304.656.304zm0 .187h.345c.023 0 .042.019.042.042s-.019.041-.042.041H.656C.633.574.614.555.614.533S.633.491.656.491zm0 .183h.345c.023 0 .042.018.042.041s-.019.041-.042.041H.656C.633.757.614.738.614.715S.633.674.656.674zm.008.174h.337c.023 0 .042.019.042.041s-.019.042-.042.042H.664C.641.931.622.913.622.89S.641.848.664.848"/></svg>