<svg xmlns="http://www.w3.org/2000/svg" width="1.6" height="1.6" viewBox="0 0 1.2 1.2"><defs><clipPath id="a"><path d="M0 0h1v1.199H0zm0 0"/></clipPath><clipPath id="b"><path d="M0 0h1.199v1.199H0zm0 0"/></clipPath></defs><g clip-path="url(#a)"><path d="M.703.133v.922L0 .945V.254zm0 0" fill-rule="evenodd" fill="#0061ae"/></g><g clip-path="url(#b)"><path d="M.785.09C.801.203.754.285.836.367c.094.094.168.039.277.059a14.61 14.61 0 0 1 0 .586c0 .063-.035.098-.094.102H.422c-.148 0-.187-.004-.195-.109L.172 1 .152.996H.145v.055c.012.07.07.129.145.141.047.008.469.004.555.004.16 0 .355.039.352-.211L1.201.63V.563L1.195.426C1.191.336 1.133.297 1.09.254L.949.113C.898.059.863.008.773.004s-.187 0-.277 0C.34.004.148-.035.145.203L.227.188C.223.188.23.148.238.133.266.086.32.09.391.09zm-.02.211H.762c.012.031.039.074.066.082H.766C.742.383.723.363.723.344S.742.301.766.301zm.016.547H1c.023 0 .043.02.043.043S1.023.93 1 .93H.781C.762.93.742.914.742.891S.762.848.781.848zm0-.176H1c.023 0 .043.02.043.043S1.023.758 1 .758H.781C.762.758.742.738.742.715S.762.672.781.672zm0-.18H1c.023 0 .043.02.043.039S1.023.574 1 .574H.781C.762.574.742.555.742.531S.762.492.781.492" fill-rule="evenodd" fill="#0061ae"/></g><g fill-rule="evenodd" fill="#fff"><path d="M.336.703V.695L.332.672V.648C.316.664.313.672.305.672L.301.684c0 .016.012.023.035.02"/><path d="M.445.367C.449.344.453.336.457.336s.008.012.008.02c0 .02.004.02.004.023C.457.395.457.395.457.398l.012.008C.457.422.453.422.453.422l.012.012C.453.449.449.449.449.449l.012.012v.004L.445.48l.012.012C.445.508.441.508.441.512l.012.012L.441.54l.008.016C.434.57.434.574.43.574L.445.59v.004L.425.61l.012.016c-.012.016-.016.02-.02.02L.434.66C.418.68.414.68.41.68v.008C.406.703.395.715.367.707c0 .02-.004.02-.004.023v.023L.348.758C.34.742.34.738.34.738V.715C.309.715.297.703.297.688L.293.672H.289C.277.672.273.668.27.664H.266C.254.656.25.648.25.645c.016 0 .023.004.031.012L.285.633C.273.633.27.629.262.625S.246.613.246.605c.012 0 .02.004.023.008.012.008.016.012.016.016L.281.598.277.594.258.586C.246.578.242.574.242.57V.566c.012 0 .02.004.023.008.012.008.012.012.016.016L.273.559V.555C.262.555.258.551.254.547.242.539.238.535.238.531V.527C.25.531.254.531.262.535L.27.523V.52H.266C.258.516.25.512.246.512.238.5.234.496.234.492.246.492.25.496.254.5L.266.48H.262A.054.054 0 0 1 .238.469c.02 0 .023.004.023.008L.258.445.254.441C.234.434.234.43.23.43L.227.418V.414C.238.418.242.422.25.426l.004.008.004.004V.434L.254.406.25.402A.03.03 0 0 1 .23.395C.223.387.223.383.219.375.23.379.238.379.242.383L.246.375C.238.348.238.34.246.332c.008.008.008.02.012.027v.043C.266.383.266.383.27.383L.281.375v.004C.273.395.273.398.273.398L.258.41l.004.028v.004-.004h.004C.277.418.281.414.285.414h.004C.285.422.285.43.281.434L.27.441.266.445v.004L.27.477C.277.461.281.457.281.457L.289.453.293.449v.008C.285.473.285.477.281.477L.27.484l.003.032C.285.5.285.5.285.496.285.52.281.52.277.523l.004.031c0-.008.004-.016.012-.02C.289.559.285.559.281.559v.004L.285.59.301.57.316.566C.313.574.313.582.305.586L.301.59.289.602l.004.027a.09.09 0 0 1 .012-.02l.02-.008-.012.024C.301.633.297.637.293.637l.004.031C.309.648.316.645.324.641c.004-.023 0-.027 0-.027 0-.02 0-.02.004-.023H.324C.32.574.32.57.32.566V.543C.316.527.316.523.316.52.313.5.316.5.316.496.313.477.309.473.309.473L.313.465C.309.441.305.438.305.438c.004-.02 0-.027 0-.035L.297.387C.305.363.313.355.32.348S.336.34.348.34c-.004-.016 0-.02 0-.023.012.012.012.016.008.02l.031.012a.036.036 0 0 1 .012.027l.008.016-.016.035.004.027c0 .02 0 .023-.004.023v.031L.387.512v.023c0 .02-.004.023-.004.023v.023L.379.605C.375.621.375.625.375.629c-.004.023 0 .023 0 .027C.371.676.371.676.367.68v.023C.391.707.402.699.402.684L.406.68C.391.668.391.668.391.664V.652C.402.637.398.633.398.629L.395.613v.004C.406.602.402.598.402.594L.398.59V.586L.402.582C.41.57.41.566.41.563L.406.547C.414.531.414.531.414.527.418.512.422.512.422.508.414.496.414.492.414.488L.418.484c.004-.02 0-.023 0-.023C.434.445.43.445.43.441L.426.426V.43C.434.414.434.414.434.41L.43.398h.004V.375h.004"/><path d="M.223.633.215.59.199.445.23.59l.016.062c.004.02.012.027.02.039C.246.688.227.68.223.633M.199.609.191.59.121.449V.445C.113.43.117.414.125.402L.141.379l.062.207V.59L.199.605"/><path d="M.211.641.203.621c-.004-.008 0-.02 0-.031h.012l.004.031C.215.637.211.637.211.641M.219.629c0 .016.004.039.02.055a.033.033 0 0 0 .023.008C.25.699.242.699.234.695.215.684.211.652.219.629"/><path d="M.215.641c-.004.02 0 .043.012.051C.231.7.239.7.254.7.238.711.23.711.223.707.207.695.203.668.215.641M.203.664.188.641C.18.629.188.609.191.602l.02.043C.207.656.203.66.203.664m-.004.02L.18.668C.172.66.176.637.176.629l.027.039M.199.711.184.703C.172.695.172.676.172.668l.023.02c0 .008 0 .016.004.023"/><path d="M.227.711C.195.703.199.68.207.66c-.004.02 0 .043.016.047M.195.73H.191C.18.727.172.707.172.699l.031.016M.523.34C.535.356.558.387.55.41L.504.57.5.582.492.574V.566L.508.445v-.02zM.484.633C.477.68.457.688.438.691.449.68.453.672.457.652L.48.559.504.445.492.566.488.59zm.008.008V.574L.5.594a.032.032 0 0 1 0 .027zM.5.664.512.602C.516.61.524.629.516.641zm.008.02.02-.055C.531.637.535.66.523.668zm0 .046L.531.699c0 .008-.008.027-.02.031zm0 0"/><path d="M.504.711C.508.703.508.695.508.688l.023-.02c0 .008 0 .027-.012.035zM.492.641C.5.668.496.695.48.707.477.711.465.711.457.707S.441.699.438.695C.465.699.473.699.477.691.488.684.492.66.492.641M.488.629c.004.023 0 .055-.02.066C.461.699.453.699.441.691c.016 0 .02-.003.028-.007C.48.668.484.645.488.629"/><path d="M.477.711C.496.703.5.68.5.66.504.68.512.703.496.715M.504.609V.59L.5.586.504.574.563.379c.016.02.031.043.02.07L.52.582.512.59zM.422.727a.053.053 0 0 1-.02.007C.418.719.422.711.426.711"/><path d="M.48.781C.473.773.469.77.465.762.453.742.453.734.457.727c.02-.008.031 0 .035.012A.044.044 0 0 1 .48.758c.008.004.016.008.024.008S.52.77.527.77v.004C.512.789.508.793.504.789S.488.789.48.781M.43.68c.012.023.02.027.023.027C.438.711.434.711.43.711.422.699.426.684.43.68M.375.762C.383.758.391.746.391.738c.004 0 .015 0 .027-.008.012.004.016.012.016.02C.43.77.43.77.426.77.414.766.41.766.406.762H.383zM.223.781C.215.789.207.789.203.789.188.789.184.785.18.781L.176.77C.184.77.191.77.199.766S.215.762.223.758C.215.746.215.742.215.738c0-.012.012-.02.023-.016C.25.734.25.742.25.746.234.77.23.773.223.781M.277.68C.281.684.281.7.281.707.258.711.254.711.246.711A.084.084 0 0 0 .27.695m.015.032C.273.711.277.707.277.711c.02.012.02.016.027.016M.172.641.082.566C.066.551.059.496.07.48l.066.082.047.059-.008.004v.004M.168.664.082.621C.059.609.047.563.051.543l.121.102zm.004.02L.094.668C.07.664.055.629.051.613l.121.055m0 .039H.109C.09.707.07.684.059.668l.113.02-.004.004V.7m.004.011.016.02-.047.016C.125.75.098.727.086.715zm0 0"/><path d="M.168.773C.152.789.125.77.113.758L.191.734h.004L.176.77v.004zM.531.641.527.625.52.633.633.48C.645.496.641.55.621.566zm.004.023H.531L.652.543C.656.563.648.609.621.621zm0 .02.117-.07C.648.629.633.664.613.668zM.531.711l.086.004C.605.727.582.75.563.746L.52.73C.527.723.531.715.531.711m0-.004L.535.691.527.699.645.668C.633.684.617.707.594.707zm.004.066H.531V.77H.527L.504.75.516.734l.078.024C.578.77.551.789.535.773M.52.617A.039.039 0 0 0 .512.598L.52.582l.082-.16C.61.438.618.488.606.508zm-.336 0L.168.602.133.551.102.508C.086.488.094.438.102.422l.02.035.07.141a.039.039 0 0 0-.008.019m0-.277.008.059.004.027v.02l.016.129H.207L.152.41c0-.012 0-.02.004-.031S.176.348.184.34m.265.449v.008L.523.82.516.813A.45.45 0 0 1 .449.789m-.191 0c.016.004.02 0 .027 0L.324.785h.055c.027 0 .035.004.039.004.02.012.027.008.027.008C.43.789.426.785.418.785.395.777.387.777.379.777H.324C.297.781.293.781.285.785.266.793.262.793.258.789zm-.004 0L.258.785.27.773H.266zM.191.813.18.82C.176.824.23.805.254.797V.789a.406.406 0 0 1-.063.024"/><path d="M.539.832C.52.855.523.887.508.875a.34.34 0 0 0-.312 0C.176.887.191.852.168.832h.004-.004.004C.152.82.18.805.195.797L.184.793h.008l.02-.004C.227.777.23.773.234.773.246.762.246.758.246.754l.008-.02C.234.719.23.719.23.723.215.734.211.734.211.738c.004.016.008.02.008.02C.188.73.211.703.246.711c.008.004.02.004.027 0 0 .023-.008.031-.008.043L.27.758V.75A.03.03 0 0 1 .281.727c.016.011.028.011.035.007 0 .012.004.023.012.027H.301C.285.766.281.77.277.77L.27.766.273.77v.004L.277.77C.285.77.293.766.301.766h.105c.027.008.035.012.039.016L.449.79V.785C.434.773.434.77.434.77.438.742.43.734.422.727.438.715.449.715.457.711.492.703.516.73.5.75.492.734.492.734.488.73.473.719.469.719.469.723.453.734.453.734.453.738c.004.02.008.023.008.023l.02.02.043.031C.54.82.544.828.54.832"/></g></svg>