<svg xmlns="http://www.w3.org/2000/svg" width="1.6" height="1.6" viewBox="0 0 1.2 1.2"><defs><clipPath id="a"><path d="M0 0h1v1.2H0Zm0 0"/></clipPath><clipPath id="b"><path d="M0 0h1.2v1.2H0Zm0 0"/></clipPath></defs><g clip-path="url(#a)"><path d="M.703.133v.922L0 .945V.254Zm0 0" fill-rule="evenodd" fill="#d35400"/></g><g clip-path="url(#b)"><path d="M.785.09c.016.113-.031.195.05.277.095.094.169.04.278.059.004.07.004.476 0 .586 0 .062-.035.097-.093.101-.157.008-.418 0-.598 0-.149 0-.188-.004-.195-.11L.172 1 .152.996H.145v.055c.011.07.07.129.144.14.047.008.469.004.555.004.16 0 .355.04.351-.21l.004-.356V.562L1.195.426c-.004-.09-.062-.13-.105-.172a2.37 2.37 0 0 1-.14-.14C.897.058.862.007.772.003.687 0 .586.004.496.004c-.156 0-.348-.04-.351.2L.227.187C.223.188.23.147.238.133.266.086.32.09.391.09zM.765.3H.763C.773.333.8.376.828.384H.766C.742.383.723.363.723.343S.743.301.766.301zm.016.548H1c.023 0 .043.02.043.043S1.023.93 1 .93H.781A.04.04 0 0 1 .742.89c0-.023.02-.042.04-.042zm0-.176H1c.023 0 .043.02.043.043S1.023.758 1 .758H.781C.761.758.742.738.742.715s.02-.043.04-.043zm0-.18H1c.023 0 .043.02.043.04S1.023.574 1 .574H.781C.761.574.742.554.742.531s.02-.039.04-.039" fill-rule="evenodd" fill="#d35400"/></g><g fill-rule="evenodd"><path d="M.406.492C.422.477.422.468.43.461A.085.085 0 0 1 .465.434h.004C.527.402.559.359.547.304c.012.01.02.016.023.025.008 0 .012.016.016.024.008 0 .008.011.012.023.011.008.007.02.011.035.008.004.008.016.008.028.004.003.008.015.004.03.004.005.004.016-.004.028.008.011.004.023-.004.03C.617.535.617.543.61.551.613.566.605.57.602.578s-.004.02-.02.031c0 .008-.008.016-.023.02C.562.637.555.64.543.649.543.651.531.66.516.663c0 .008-.012.008-.028.008C.484.68.473.676.465.676S.437.672.425.656c.009.016.02.024.028.031H.441C.45.696.453.7.461.704.457.723.453.719.453.723c0 .011.008.027.012.039h.008C.48.758.488.75.496.746h.012A.105.105 0 0 0 .535.715C.547.703.555.703.566.703A.063.063 0 0 0 .551.73c.011 0 .023 0 .035.008C.57.742.563.754.555.762a.095.095 0 0 1-.032.035H.508A.008.008 0 0 1 .5.805C.488.812.484.816.48.816a.27.27 0 0 1-.041.012C.437.852.448.863.456.875.445.871.434.871.422.859a.085.085 0 0 0 .012.02.036.036 0 0 1-.032-.016.03.03 0 0 0 .008.02.063.063 0 0 1-.027-.016C.375.883.363.879.352.859.34.88.328.883.316.883a.063.063 0 0 1-.023 0 .03.03 0 0 0 .008-.02A.036.036 0 0 1 .27.88.085.085 0 0 0 .28.859C.27.871.258.871.246.875.254.863.266.852.27.84A.27.27 0 0 1 .234.816C.219.816.215.813.21.81A.008.008 0 0 1 .195.797H.191A.095.095 0 0 1 .148.762C.141.754.133.742.118.738.127.73.14.73.151.73A.063.063 0 0 0 .137.703c.011 0 .02 0 .031.012a.105.105 0 0 0 .027.031L.2.742c.015.008.023.016.03.02h.008C.242.75.25.734.25.722.254.7.246.704.242.704A.03.03 0 0 0 .258.688H.25C.258.68.27.671.273.663.266.672.25.68.238.676S.218.68.215.672c-.016 0-.027 0-.027-.008C.171.66.16.652.16.648.148.641.145.637.145.628.129.626.12.619.12.61.105.598.101.59.101.58S.09.565.095.55C.086.543.086.535.09.527.082.52.078.507.086.497.078.483.078.472.082.468.078.453.082.44.086.438.086.425.082.413.094.41.098.395.094.383.105.375.11.363.11.352.117.352.121.344.125.328.133.328A.066.066 0 0 1 .156.305c-.011.054.02.097.078.129h.004A.085.085 0 0 1 .273.46c.008.008.008.016.012.027L.297.48.305.465.297.457h.008c0-.012.008-.012.012-.016L.308.434C.285.434.277.43.277.418c.012 0 .02.004.02 0L.301.41A.023.023 0 0 0 .27.414C.27.402.273.391.293.391.289.371.289.371.297.371L.309.363c.015 0 .023 0 .035.004S.375.371.39.355v.016C.39.387.387.39.383.395c.004.007.004.011.008.02.011.015.007.015.004.02C.402.45.406.45.41.45l.004.011C.41.477.41.484.406.493zM.324.382zm.04.259h.003V.637h.004V.633h.004V.629L.379.625V.617L.383.613v-.02h.05V.63L.43.633v.004L.426.64v.011L.422.656V.66L.406.676V.68L.402.684H.398L.387.695H.383L.379.7H.375L.371.703H.363L.36.707H.352V.648L.355.645H.36zM.382.562h-.03V.504h.082V.59H.383zm-.063 0V.59H.27V.504h.082v.058zm0 .043v.008l.004.004v.008l.004.004v.004h.004v.004h.004V.64H.34l.004.004h.004l.004.003v.059H.344L.34.703H.332L.328.7H.324L.32.695H.316L.305.684H.3L.297.68V.676L.28.66V.656L.277.652V.641L.273.637V.633L.27.629V.594h.05zM.148.711A.129.129 0 0 1 .191.75C.184.754.18.762.176.77l.012.022A.172.172 0 0 1 .145.75L.133.738a.033.033 0 0 1 .027 0A.042.042 0 0 0 .148.711zm.079.055C.219.758.21.754.207.75.191.754.187.762.184.766l.011.019.02-.012zM.19.789.18.777H.176C.19.794.19.794.194.794zM.555.711A.141.141 0 0 0 .512.75C.52.754.523.762.527.77L.516.793A.3.3 0 0 0 .56.75L.57.738a.033.033 0 0 0-.027 0c0-.008.004-.02.012-.027zM.477.766C.484.758.492.754.497.75.512.754.516.762.52.766L.508.785.488.773zm.035.023L.523.777h.004A.054.054 0 0 1 .512.79zm-.29.016a.25.25 0 0 0 .255 0C.473.793.465.785.44.785a.216.216 0 0 1-.183 0 .041.041 0 0 0-.035.02zM.415.789.391.723V.699a.05.05 0 0 1 .004.024.03.03 0 0 1 .015.016C.43.738.438.75.445.766L.43.785zM.29.793l.024-.07v-.02C.308.707.308.715.308.723a.03.03 0 0 0-.016.016.215.215 0 0 0-.034.027l.015.019" fill="#fff"/><g fill="#d35400"><path d="M.32.605c.004.02.012.036.032.043v.059A.115.115 0 0 1 .289.668.13.13 0 0 1 .27.605V.594h.05zm0-.042V.59H.27V.504h.082v.058zm0 0"/><path d="M.383.563H.352v-.06h.082V.59H.383zM.363.64a.041.041 0 0 0 .02-.035V.594h.05c0 .015 0 .027-.003.043a.111.111 0 0 1-.075.07H.352V.648"/></g><g fill="#fff"><path d="M.148.71c.028.021.036.03.043.041C.184.754.18.762.176.77l.012.022A.172.172 0 0 1 .145.75L.133.738a.033.033 0 0 1 .027 0A.042.042 0 0 0 .148.711zm.079.056C.219.758.21.754.207.75.191.754.187.762.184.766l.011.019.02-.012zM.19.789.18.777H.176C.19.794.19.794.194.794zM.555.711A.141.141 0 0 0 .512.75C.52.754.523.762.527.77L.516.793A.3.3 0 0 0 .56.75L.57.738a.033.033 0 0 0-.027 0c0-.008.004-.02.012-.027zM.477.766C.484.758.492.754.497.75.512.754.516.762.52.766L.508.785.488.773zm.035.023L.523.777h.004A.054.054 0 0 1 .512.79zm-.29.016a.25.25 0 0 0 .255 0C.473.793.465.785.44.785a.216.216 0 0 1-.183 0 .041.041 0 0 0-.035.02M.383.676zM.363.66v.004V.66zM.367.656l.004.008L.367.656zM.371.652zm0-.004h.004v.008L.371.648zM.375.645l.004.003L.375.645zM.379.637.383.64v.004H.379V.637zM.383.633v.004-.004zM.387.629v.008-.004zm0-.004L.39.633.387.625zM.37.665zm0 .007v.004H.367V.672zm.008 0H.371.38zm.008 0H.379h.008zM.39.668zM.395.664H.387h.008zM.398.66H.391L.395.656zM.402.656H.395L.398.652zM.406.652H.398h.004zM.41.645.406.648H.402L.41.645zm0-.004zM.414.637H.406L.41.633zM.418.629.41.633.418.629zm0-.004v.004-.004zm0-.008v.004H.414V.617h.004zM.414.613v.004H.41zM.41.61v.004L.406.613.41.61zM.402.613l.004.008L.402.613zm-.004 0zM.395.617l.003.008L.395.621V.617zM.39.621l.004.008L.39.625V.621zM.37.668h.004v.004h.004L.387.664.395.652.402.645V.64L.406.637V.633L.41.617.402.621v.004H.398v.004H.395L.387.637v.008H.383v.003L.375.66H.371v.008zM.387.621H.39V.617h.004V.613h.003V.61h.008L.41.605l.012.017V.63L.418.633.414.64v.004L.406.656H.402V.66C.391.676.391.676.387.676L.383.68h-.02L.36.672.363.668V.664L.367.652.371.645h.004V.64h.004L.383.625h.004V.621M.379.527H.39L.394.54c0-.012-.02-.016-.02 0zM.406.523C.418.527.418.54.418.54.414.523.41.523.406.523zM.402.52zm.016.058H.41L.402.56H.41C.426.555.426.555.426.547.422.531.418.531.418.527L.395.516C.375.523.375.523.371.527v.004L.367.548c.02.012.02.012.02.008L.39.559.386.566.39.57v.008h.027M.324.523c.004.016.004.016 0 .02.004-.004.004-.008 0-.02zm-.02.051C.297.566.293.563.293.555.285.543.281.539.285.53.3.539.3.539.305.539.316.52.32.516.328.516c.004.021 0 .026-.004.03C.32.562.316.566.312.57zM.29.524.285.542c0-.004 0-.008.004-.02m.043.146L.324.664l.004.012h.004-.008V.668L.316.664v.008L.32.676.316.664.31.656v.012h.004L.31.656.305.652.3.66l.004.004L.3.648V.641L.297.648v.004L.301.64V.633L.293.637v.008-.008L.297.633.3.625.293.629.289.633.297.625.3.617H.293v.004-.004L.297.613V.605L.289.61l.004.008-.004.004V.617L.285.613v.008L.29.625v.008-.004L.281.625l.004.008.004.004V.64.637L.281.633l.004.012h.008v.007-.004H.285L.29.656h.008-.001L.289.66l.008.008.008-.004v.004L.297.672l.012.004.004-.004H.312L.31.68h.007L.324.676h.004-.004L.316.684h.012L.332.676H.34.336zm0 0"/><path d="M.328.648v.004H.324v.004h.004V.652zm.008.004v.004H.332zM.316.61H.312V.605L.31.61V.605.61h.004zM.312.617H.31zm0 .012L.309.621v.004L.305.621v.004zm0 .004L.31.629v.004zM.317.64.312.637V.64H.31v.004zm.008.004H.316v.007zM.312.617.317.61H.312V.605H.31L.305.61v.024l.004.012.007.003v.004H.32L.324.66H.34L.332.652.324.648v.004-.007H.32V.64L.316.633H.312V.625H.31L.313.617"/></g><path d="m.352.57.007.02h.02L.363.605l.004.02L.352.613.336.625.34.605.324.59h.02Zm0 0" fill="#b38f00"/><path d="M.352.57v.032L.359.59h.02L.352.602l.011.003.004.02L.352.602v.011L.336.625.352.602.34.605.324.59l.028.012L.344.59zm0 0" fill="#fc0"/></g></svg>