<svg xmlns="http://www.w3.org/2000/svg" width="1.6" height="1.6" viewBox="0 0 1.2 1.2"><style>.B{fill:#0077b3}.C{fill-rule:evenodd}.D{fill:#fff}</style><defs><clipPath id="A"><path d="M0 0h1v1.199H0zm0 0"/></clipPath><clipPath id="B"><path d="M0 0h1.199v1.199H0zm0 0"/></clipPath></defs><g clip-path="url(#A)" class="B C"><path d="M.703.133v.922L0 .945V.254zm0 0"/></g><g clip-path="url(#B)" class="B C"><path d="M.785.09C.801.203.754.285.836.367c.094.094.168.039.277.059a14.61 14.61 0 0 1 0 .586c0 .063-.035.098-.094.102H.422c-.148 0-.187-.004-.195-.109L.172 1 .152.996H.145v.055c.012.07.07.129.145.141.047.008.469.004.555.004.16 0 .355.039.352-.211L1.201.63V.563L1.195.426C1.191.336 1.133.297 1.09.254L.949.113C.898.059.863.008.773.004s-.187 0-.277 0C.34.004.148-.035.145.203L.227.188C.223.188.23.148.238.133.266.086.32.09.391.09zm-.02.211H.762c.012.031.039.074.066.082H.766C.742.383.723.363.723.344S.742.301.766.301zm.016.547H1c.023 0 .043.02.043.043S1.023.93 1 .93H.781C.762.93.742.914.742.891S.762.848.781.848zm0-.176H1c.023 0 .043.02.043.043S1.023.758 1 .758H.781C.762.758.742.738.742.715S.762.672.781.672zm0-.18H1c.023 0 .043.02.043.039S1.023.574 1 .574H.781C.762.574.742.555.742.531S.762.492.781.492"/></g><g class="D"><path d="M.352.902C.125.816.109.695.105.598c-.004-.07 0-.141 0-.215C.16.375.172.344.176.309a.89.89 0 0 1 .352 0c.004.035.016.066.07.074v.215C.594.695.578.816.352.902zM.254.551C.242.563.227.559.223.586.254.578.242.563.254.551zM.121.398v.199c.004.027.004.055.012.078s.012.047.027.07C.18.78.211.808.242.827a.57.57 0 0 0 .109.055c.04-.015.075-.03.11-.054S.523.781.543.746C.559.723.566.699.57.676L.582.598v-.2C.559.391.543.383.531.367S.512.34.512.32C.5.316.488.316.477.316L.441.313.43.348h.023a.049.049 0 0 0 .023.004H.48v.004c0 .008.004.012.008.02l.016.016.035.023h.004v.163c0 .008 0 .02-.004.031s0 .02-.004.027l.027.008-.016.02.012.012C.555.684.555.691.551.699L.539.695l.008.02C.543.719.539.727.535.734L.523.727l.004.02-.011.019L.504.758v.02L.488.793.453.762A.116.116 0 0 0 .488.723.188.188 0 0 0 .516.645H.52C.523.625.527.617.527.605s0-.02.004-.027v-.14C.523.418.516.414.512.41S.5.402.492.398.484.387.48.379C.461.363.453.359.449.359H.426L.398.441l.07.043h.004L.48.516V.52H.254C.25.523.246.531.227.531.223.543.223.547.223.555.227.535.242.535.254.527.242.539.25.551.223.559v.055C.227.59.242.59.254.578.242.59.254.605.223.617c.004.008.004.016.004.024C.23.617.246.617.254.605.246.617.258.633.23.645v.02C.195.641.199.625.184.613c.015.012.031.004.039.028C.223.633.219.625.219.617.188.613.191.598.18.586c.012.012.031 0 .039.031V.59C.188.578.195.563.184.551c.011.012.027.008.035.027C.191.547.195.531.184.52c.011.011.031.007.035.031C.195.52.203.504.191.492.203.504.219.5.223.52.203.488.211.473.203.461.211.473.23.473.23.496.211.465.223.453.215.438.223.453.242.449.234.48L.246.457C.227.441.238.434.234.418.238.43.254.434.25.449.254.414.273.41.277.398.273.41.285.422.262.438.27.441.281.445.293.441.277.445.281.465.25.461c.004.004.012.004.023.004l.04-.024L.281.355C.273.359.266.359.258.359S.242.363.234.363L.211.398.191.41.172.422V.508c0 .023 0 .047.004.07v.027c0 .012.004.02.004.031l.008.008a.196.196 0 0 0 .027.078c.008.016.02.027.031.039L.215.793C.207.789.203.781.199.777L.207.77.188.766.176.746.188.742.164.734a.03.03 0 0 0-.008-.02L.168.707.152.699C.148.691.148.684.145.676h.012L.145.664.168.645C.164.629.164.617.164.609S.16.586.16.578V.414h.004l.02-.012.031-.027C.219.367.223.363.223.355L.227.352H.23c.008 0 .016 0 .023-.004H.28L.266.309C.254.313.242.313.23.316S.203.316.191.32c0 .02-.008.035-.02.047S.145.391.121.398zM.234.52H.227v.008zM.238.484.242.48zM.117.445a.24.24 0 0 1 .004-.05C.141.391.156.379.168.367S.188.34.191.32V.316C.203.316.215.313.23.313S.254.309.266.309H.27l.012.039C.273.352.262.352.254.352S.238.352.23.355H.227C.223.363.219.371.215.375.199.398.191.402.188.406L.164.418v.16c0 .008 0 .02.004.031s0 .02.004.027L.18.641C.176.629.172.617.172.605V.578C.172.555.168.531.168.508s0-.047.004-.066V.434C.18.418.184.414.191.41L.207.395C.215.391.219.383.223.379A.03.03 0 0 0 .23.359h.004c.008 0 .016 0 .023-.004h.027l.031.086-.039.023L.284.46C.273.469.273.484.246.48L.242.484.238.492C.254.484.262.492.277.488.262.492.258.508.234.504L.23.516h.008C.246.508.258.512.266.504l.211.012L.469.484.395.441.422.355h.027l.023.004c.004.008.004.016.008.02l.016.016.016.016a.087.087 0 0 1 .02.012h.004V.509c0 .023 0 .047-.004.07v.027c0 .012-.004.023-.004.031l.004.004C.535.629.535.617.539.609V.438C.531.414.523.41.52.406S.508.398.5.391A.124.124 0 0 1 .477.355H.473C.445.352.438.352.426.352V.348L.441.309c.012 0 .023 0 .035.004S.5.316.512.316V.32c.004.02.012.035.023.047S.562.39.582.394a.24.24 0 0 1 .004.051L.582.598c0 .027 0 .055-.008.078S.563.727.547.75C.527.781.496.809.461.832S.391.871.352.887C.313.871.273.855.242.832S.18.781.156.75A.316.316 0 0 1 .121.598C.117.547.117.496.117.445zM.352.391.316.406.324.371.297.348.336.344.352.313l.02.031.039.004L.38.371l.012.035zm0 0" class="C"/><path d="M.348.906C.234.863.172.813.141.758S.102.648.098.598V.379h.004A.09.09 0 0 0 .156.352.136.136 0 0 0 .172.305V.301h.004A.841.841 0 0 1 .352.285a.84.84 0 0 1 .176.016h.004v.004a.13.13 0 0 0 .016.047.09.09 0 0 0 .055.027h.004v.219C.602.648.598.703.563.758.555.777.539.793.52.813L.516.816.508.82a.54.54 0 0 1-.152.086zm-.2-.152a.39.39 0 0 0 .203.141A.572.572 0 0 0 .492.82L.5.813h.004A.34.34 0 0 0 .555.754C.586.699.59.648.594.598V.391C.566.383.551.371.539.359S.523.328.52.313C.469.301.41.297.352.297S.234.301.184.313a.12.12 0 0 1-.02.047.126.126 0 0 1-.055.031v.207C.113.649.117.7.148.754"/></g><path d="m.426.41.023.004L.438.402V.398zM.418.414c0-.012.004-.016.008-.02.023 0 .027.004.027.004-.004.02-.004.02-.008.02-.02.008-.02.004-.023.004" class="B"/><g class="C"><path d="M.422.41c.02.012.02.008.02.004C.434.395.43.395.426.398" class="D"/><path d="M.453.402c-.016.012-.02.012-.02.02s.008.012.02.008c.004 0 .012.012.016.016C.457.426.457.426.461.422s0-.016-.008-.02" class="B"/></g><path d="m.441.426.02.008L.457.418.445.426zM.438.43C.441.414.441.414.445.41l.023.004c.008.02.004.023 0 .023C.453.445.449.445.445.441zm.031.008L.438.43zm0-.004v.004zM.477.422.469.434zm-.004 0h.004" class="B"/><g class="C"><path d="M.441.426c.016.016.02.012.02.012.012-.02.004-.023 0-.02C.441.414.438.422.441.426" class="D"/><path d="M.477.426C.453.434.449.434.453.438a.079.079 0 0 1 .024.035C.473.449.473.449.477.445" class="B"/></g><path d="m.461.449.016.008V.441zM.453.453C.457.438.461.434.465.434c.02.004.02.004.023.008C.484.461.48.461.48.461.457.465.453.461.453.457" class="B"/><g class="C"><path d="M.457.449c.016.016.02.012.02.012C.492.457.492.453.492.445.477.438.469.434.465.438" class="D"/><path d="M.492.449C.469.457.469.457.469.461.484.477.488.492.488.5c0-.027 0-.023.004-.027S.496.457.492.45" class="B"/></g><path d="m.477.473.012.012v.004C.496.469.492.469.492.465zM.469.477C.477.461.48.461.484.461c.02.008.02.012.023.012C.504.492.5.492.496.492c-.02 0-.023 0-.027-.004" class="B"/><g class="C"><path d="M.473.473c-.004.016 0 .02.008.02C.504.492.508.488.508.48.496.465.492.461.484.461" class="D"/><path d="M.508.484c-.023 0-.027 0-.031.004-.008.012 0 .016.008.02s.004.02 0 .023C.492.52.492.516.492.512.508.5.508.492.508.484" class="B"/></g><path d="M.477.504c.004.02.008.02.008.02L.492.52C.5.5.496.5.496.5zM.469.508C.48.492.484.492.488.492l.023.016C.504.527.5.527.496.527.477.527.473.523.469.523" class="B"/><g class="C"><path d="M.477.504c.008.02.012.02.012.02C.504.523.512.52.512.516.5.5.496.496.488.492" class="D"/><path d="M.512.516c-.016 0-.02 0-.023-.004-.02.02-.012.023-.004.027s0 .023 0 .027C.492.555.492.551.492.547c.02-.012.02-.02.02-.031" class="B"/></g><path d="m.473.535.008.02.008-.004C.508.543.508.543.504.539L.496.535zM.465.539C.48.523.484.523.488.523c.016.012.02.012.02.016C.504.559.5.559.496.559c-.023 0-.027 0-.031-.004" class="B"/><g class="C"><path d="M.473.535C.465.551.469.555.477.559.504.559.508.555.508.547.5.527.492.523.488.523" class="D"/><path d="M.508.547c-.023 0-.031 0-.031.008C.465.563.473.57.484.574c.004.004 0 .02-.004.028C.488.59.488.586.488.578.508.566.512.559.508.547" class="B"/></g><path d="M.508.563c.004.016.004.02 0 .023L.484.59C.465.582.461.582.461.574l.016-.02C.492.551.496.551.5.555zm0 .008L.5.566C.484.555.484.555.48.559L.477.566c.008.02.008.02.008.016h.004c.02 0 .02-.004.02-.008" class="B"/><g class="C"><path d="M.504.566C.512.582.504.59.496.59.469.59.465.582.465.574.477.559.48.555.488.555" class="D"/><path d="M.465.578c.012 0 .02 0 .023-.004.012.004.02.008.023.004 0 .02-.008.023-.02.027S.488.629.488.637C.484.621.484.617.48.613.465.598.461.59.465.578" class="B"/></g><path d="M.504.602c.008.016.004.02.004.023-.023.004-.023 0-.023 0C.461.621.457.617.457.613.465.602.469.602.473.598.492.59.496.59.5.594zm0 .008C.492.594.488.594.488.594L.473.602C.465.617.465.617.465.621h.02c.02 0 .023-.004.023-.008" class="B"/><g class="C"><path d="M.5.605C.508.621.504.629.492.629.469.625.461.621.461.613.473.598.48.594.488.594" class="D"/><path d="M.461.617c.016 0 .02 0 .023-.004.016.004.02.008.023.004 0 .02-.012.023-.02.027S.484.668.484.672C.477.66.477.656.477.652.457.637.457.625.461.617M.309.793l.027.004.012.027a.022.022 0 0 1-.02.012L.301.832C.293.828.285.82.285.813L.289.801c0-.004.012-.012.02-.008zm0 .008L.297.816l.031.008.008-.015zm0 0" class="B"/></g><path d="m.309.789.027.008.012.027C.336.836.332.836.324.836L.301.832C.285.82.285.816.285.813L.289.801C.301.789.305.789.309.789zm.023.008L.309.793C.293.797.289.801.289.801v.012l.039.02.02-.02C.344.801.34.797.332.797zM.305.805.301.816l.027.008.008-.015zM.309.801l.023.004.004.016H.301V.805zm.023.02L.309.801" class="B"/><path d="m.258.773.02.008C.286.789.29.797.286.804L.277.813C.273.82.262.82.254.816L.23.805.234.773C.238.77.246.766.258.773zM.25.781.234.789l.027.02.012-.012zm0 0" class="B C"/><path d="m.258.77.02.012C.29.798.29.802.286.805L.277.813C.262.82.258.82.254.816L.23.805V.773C.246.77.254.77.258.77zm.02.016L.254.773.227.785c0 .012.004.016.008.02l.02.012c.016 0 .02 0 .023-.004L.285.801zM.25.781.238.793l.024.016.011-.012zm0 0 .023.012L.27.809.238.797.242.781" class="B"/><path d="m.273.793.031.012H.27" class="B C"/><path d="m.273.793.031.012-.039.004zm.031.012L.273.797.3.817" class="B"/><path d="M.395.793.367.797C.359.797.352.805.352.813l.004.012c0 .008.012.012.02.012L.402.832C.41.828.418.82.414.813V.801C.41.797.402.789.395.793zm0 .008.008.016-.027.008L.367.809zm0 0" class="B C"/><path d="M.395.793.367.797.355.824c.012.008.016.012.02.008L.402.828.41.801zM.367.797.395.789c.016.008.02.008.02.012l.004.012C.41.828.406.832.402.832L.375.836C.359.832.355.828.355.824L.352.813C.359.797.363.797.367.797zm.027.004.008.016-.027.008L.363.809zm0 .004L.371.809.367.82h.031V.805zM.367.82.395.805" class="B"/><path d="m.445.773-.02.008C.414.789.414.797.418.805l.008.008C.43.82.438.82.449.816l.02-.012C.477.801.48.793.477.785L.469.773C.465.77.453.766.445.773zm.008.008.012.008-.023.02L.426.797zm0 0" class="B C"/><path d="m.445.773-.02.012v.027L.469.805C.477.793.477.789.477.785L.469.777C.453.77.449.77.445.773zM.422.781.445.77c.02 0 .023.004.023.004l.008.012c0 .016-.004.02-.008.02l-.02.012C.43.82.426.816.422.813L.418.805c0-.016 0-.02.004-.023zm.031 0L.43.793l.008.016.023-.012L.457.781zm0 0 .012.008-.023.02L.426.797zm0 0" class="B"/><path d="M.43.793.395.805h.039" class="B C"/><path d="M.43.797.395.805h.039zM.395.805.43.793.402.816" class="B"/><path d="M.332.809h.035L.332.82" class="B C"/><path d="M.332.809h.035L.332.82zm.035 0H.332L.367.82" class="B"/><path d="M.332.602.277.559A.22.22 0 0 0 .352.441a.22.22 0 0 0 .074.118L.371.602.359.598zm0 0" class="C D"/><g class="B"><path d="M.332.602.273.563V.559C.293.547.305.531.32.512S.344.469.352.441c.012.027.02.051.031.07S.41.547.43.559v.004L.371.602.426.559A.22.22 0 0 1 .352.445C.344.473.332.492.32.512S.293.547.277.559zm0 0"/><path d="M.277.559C.301.551.316.535.328.516S.348.469.352.441c.004.027.012.055.023.074S.406.551.43.559L.426.563C.402.551.387.535.375.516S.355.473.352.449C.348.473.34.496.328.516S.301.551.277.563zM.297.566c.012.004.02.012.031.02l.008.012C.316.578.309.574.297.566zm.109 0C.395.57.387.578.379.586L.367.598C.387.578.395.574.406.566zm-.02 0C.375.57.371.578.363.59L.387.566zM.344.598C.332.578.328.57.316.563l.02.027zm0 0"/></g><path d="M.504.641a.15.15 0 0 1-.051.098L.426.715A.096.096 0 0 0 .453.652V.625L.48.664zM.25.629v.023c0 .023.012.043.023.063l-.02.023a.13.13 0 0 1-.05-.101V.629L.227.66zm0 0" class="C D"/><path d="M.504.641C.504.66.496.68.488.695S.469.727.453.738L.426.715C.434.707.441.695.445.684S.453.664.453.652V.625L.48.66.5.641zm-.016.05A.088.088 0 0 0 .5.645l-.016.02H.48L.453.629v.023c0 .012 0 .023-.004.035S.438.707.43.715l.023.023A.21.21 0 0 0 .488.691zM.254.629v.023c0 .012 0 .023.004.031a.07.07 0 0 0 .02.027v.004L.254.738v.004L.25.738C.234.727.223.711.215.691S.199.656.199.637V.629h.004L.227.66.25.629zM.25.652v-.02L.227.66v.004L.223.66.203.633v.004a.123.123 0 0 0 .051.102l.02-.023C.266.703.262.695.258.684S.25.664.25.652" class="B"/><path d="m.23.695.023.043.035-.016zm0 0" class="C D"/><path d="m.23.699.023.039.031-.016zm.02.039L.227.695H.23l.059.023v.004L.254.738v.004zm0 0" class="B"/><path d="m.473.695-.02.043L.43.727zm0 0" class="C D"/><path d="m.473.695-.02.043L.43.727V.723zm-.02.043L.469.699.434.727zm0 0" class="B"/><path d="M.473.695C.449.734.402.762.352.762S.254.734.23.695L.27.68c.016.027.047.047.082.047S.418.707.434.68zm0 0" class="C D"/><path d="M.473.695a.13.13 0 0 1-.121.067C.325.762.301.758.281.746S.242.715.227.695H.23L.27.68a.1.1 0 0 0 .082.043C.368.723.383.719.398.711S.426.695.434.68h.004l.035.016h.004zM.422.742A.15.15 0 0 0 .473.695L.438.684C.426.695.414.707.398.715S.367.727.352.727.316.723.305.715.277.695.27.684L.23.695c.012.02.031.035.051.047s.047.02.07.02.047-.008.07-.02" class="B"/><path d="M.352.66C.328.66.313.637.301.613.316.609.332.602.348.598c.023.004.039.011.054.015C.391.637.375.66.352.66" class="C D"/><g class="B"><path d="M.352.66A.045.045 0 0 1 .32.648L.297.613h.004L.344.598l.058.015h.004L.383.648A.045.045 0 0 1 .352.66zM.324.645C.332.652.34.66.352.66S.371.652.379.645.395.625.402.613L.355.598.301.613a.313.313 0 0 0 .023.031"/><path d="M.348.605.309.617c.004.008.012.016.016.02s.012.012.02.016zM.309.617.348.602v.055C.336.652.328.645.324.641S.313.625.309.617zM.395.617.355.605v.047C.367.648.371.645.379.637S.391.625.395.617"/></g></svg>