<svg xmlns="http://www.w3.org/2000/svg" width="1.6" height="1.6" viewBox="0 0 1.2 1.2" fill="#db421c" fill-rule="evenodd" xmlns:v="https://vecta.io/nano"><path d="M.579.186v.826L.001.946V.254zM.167.655L.206.651C.207.667.212.68.218.69s.017.018.031.024.03.009.048.009S.326.721.338.716.359.705.365.697.374.68.374.67.371.652.365.645.35.632.337.627.311.618.282.612a.28.28 0 0 1-.06-.019C.208.585.197.575.19.564S.179.539.179.525.183.495.192.481.214.457.231.45.267.439.288.439.331.443.348.45.379.469.389.483.403.514.404.532L.365.535C.363.515.356.501.343.491S.313.476.289.476.246.48.235.489.218.509.218.522.222.543.23.55.259.564.292.572s.056.014.069.02C.378.6.392.61.4.623S.413.65.413.667.409.699.399.714.376.739.358.747.321.759.299.759C.271.759.248.755.229.747S.195.727.184.71.168.676.167.655"/><path d="M.784.09c.017.112-.03.197.052.278.095.093.167.038.277.057.006.072.004.478.001.587-.001.061-.034.098-.094.101H.424c-.15 0-.189-.003-.197-.108L.173.998.154.997.144.995l.003.056c.012.071.07.13.141.142.049.008.469.003.556.003.162 0 .354.04.353-.212L1.196.427C1.191.334 1.132.298 1.089.255L.948.112C.899.06.863.01.775.005H.497c-.158 0-.347-.039-.353.2l.01-.002.019-.002.054-.006A.15.15 0 0 1 .239.134C.265.087.321.088.39.088zM.656.304h.091c.007.022.02.042.04.063.008.008.015.014.023.02H.656C.633.387.614.368.614.345S.633.304.656.304zm0 .187h.345c.023 0 .042.019.042.042s-.019.041-.042.041H.656C.633.574.614.555.614.533S.633.491.656.491zm0 .183h.345c.023 0 .042.018.042.041s-.019.041-.042.041H.656C.633.757.614.738.614.715S.633.674.656.674zm.008.174h.337c.023 0 .042.019.042.041s-.019.042-.042.042H.664C.641.931.622.913.622.89S.641.848.664.848"/></svg>