<svg xmlns="http://www.w3.org/2000/svg" width="1.6" height="1.6" viewBox="0 0 1.2 1.2" xmlns:v="https://vecta.io/nano"><path d="M1.2.619c0 .412-.188.581-.6.581S0 1.031 0 .619.188 0 .6 0s.6.207.6.619zM.892.345l-.107.54S.77.923.729.905L.576.788.478.877C.462.88.455.879.446.85L.391.672.24.621S.217.613.214.595.241.567.241.567L.842.331s.05-.022.05.014zm-.41.366L.767.454C.776.428.755.441.755.441L.412.659.413.661.414.664v.003l.001.003.001.002.001.003.001.003V.68l.001.003.001.002.047.154z" fill="#27ae60" fill-rule="evenodd"/></svg>