<svg xmlns="http://www.w3.org/2000/svg" width="1.6" height="1.6" viewBox="0 0 1.2 1.2"><path d="M0 0h.37v.074H.074V.37H0Zm.074.83v.296H.37V1.2H0V.83ZM.829 0h.37v.37h-.073V.074H.829Zm.37.83v.37H.83v-.074h.297V.83ZM.278.247l-.04.04.088.125A.04.04 0 0 0 .36.43h.003c.011 0 .021.005.029.012L.499.55.393.657A.122.122 0 1 0 .475.74L.583.633l.039.04L.61.708A.04.04 0 0 0 .62.75l.132.132a.04.04 0 0 0 .057 0L.873.82a.04.04 0 0 0 0-.057L.741.629A.04.04 0 0 0 .7.62L.663.633.622.593l.11-.107a.122.122 0 0 0 .15-.149L.793.424.723.409.708.338.795.25A.122.122 0 0 0 .646.4L.54.508.431.4A.04.04 0 0 1 .42.372V.37A.04.04 0 0 0 .403.336ZM.81.8A.021.021 0 0 1 .825.794.02.02 0 0 1 .839.8l.118.12a.02.02 0 0 1-.029.029L.81.828A.02.02 0 0 1 .804.815.02.02 0 0 1 .81.801ZM.36.694l.019.01H.4l.012.019.018.011.001.022.01.019-.01.019L.43.815.41.826.399.844.378.845l-.02.01L.34.845.318.844.306.826.29.814.287.793l-.01-.02.01-.018L.29.733.306.722.318.704.34.702Z" data-name="Layer 1" fill-rule="evenodd"/></svg>