<svg xmlns="http://www.w3.org/2000/svg" width="1.6" height="1.6" viewBox="0 0 1.2 1.2" xmlns:v="https://vecta.io/nano"><path d="M1.2.619c0 .412-.188.581-.6.581S0 1.031 0 .619.188 0 .6 0s.6.207.6.619zM.478.867A.38.38 0 0 0 .861.484L.928.397C.904.407.878.414.851.418.879.401.9.375.91.343.884.359.855.37.824.376.8.35.765.333.726.333.652.333.591.394.591.468c0 .01.001.021.004.031A.38.38 0 0 1 .318.358C.306.378.299.401.299.426c0 .047.024.088.06.112A.13.13 0 0 1 .298.521v.002c0 .065.046.12.108.132C.395.658.383.659.371.659A.15.15 0 0 1 .345.657C.363.71.412.75.471.751.425.787.367.808.304.808.293.808.282.808.272.806a.38.38 0 0 0 .206.061" fill="#27ae60" fill-rule="evenodd"/></svg>