<svg xmlns="http://www.w3.org/2000/svg" width="1.6" height="1.6" viewBox="0 0 1.2 1.2" fill="#27ae60" fill-rule="evenodd" xmlns:v="https://vecta.io/nano"><path d="M1.2.619c0 .412-.188.581-.6.581S0 1.031 0 .619.188 0 .6 0s.6.207.6.619zM.948.458S.941.409.92.387C.893.359.862.359.848.357L.6.35H.6L.351.357C.337.359.307.359.28.387.259.409.252.458.252.458S.245.516.245.573v.054c0 .057.007.115.007.115S.259.791.28.812c.027.028.062.027.078.03C.415.848.6.85.6.85L.848.843C.862.841.893.841.92.812.941.791.948.742.948.742S.955.684.955.627V.573C.955.516.948.458.948.458"/><path d="M.48.749L.765.601.48.452z"/></svg>