<svg xmlns="http://www.w3.org/2000/svg" width="1.6" height="1.6" viewBox="0 0 1.2 1.2" fill-rule="evenodd" xmlns:v="https://vecta.io/nano"><path d="M1.2.619c0 .412-.188.581-.6.581S0 1.031 0 .619.188 0 .6 0s.6.207.6.619" fill="#27ae60"/><g fill="#fff"><path d="M.601.908h0A.31.31 0 0 1 .443.865L.431.858.314.889.345.774.338.763A.31.31 0 0 1 .29.597C.29.425.43.286.601.286a.31.31 0 0 1 .22.091.31.31 0 0 1 .091.22c0 .172-.14.311-.311.311zM.866.332C.795.262.701.222.601.222.395.222.227.39.227.597c0 .066.017.13.05.187L.224.978.422.926a.37.37 0 0 0 .179.046h0C.808.971.976.804.976.597c0-.1-.039-.194-.11-.265"/><path d="M.771.675L.707.645C.698.642.692.64.685.649S.661.68.656.686.645.693.636.688.596.674.56.642A.29.29 0 0 1 .508.577C.517.554.522.547.526.541.539.52.537.514.535.509S.514.459.506.44.491.424.485.424C.461.424.451.426.442.435S.41.467.41.513A.18.18 0 0 0 .448.61c.005.006.066.101.16.141.022.01.04.015.053.019.022.007.043.006.059.004S.775.752.783.73.791.69.788.686.78.68.771.675"/></g></svg>