<svg xmlns="http://www.w3.org/2000/svg" width="1.6" height="1.6" viewBox="0 0 1.2 1.2" fill="#facc14" fill-rule="evenodd" xmlns:v="https://vecta.io/nano"><path d="M.579.186v.826L.001.946V.254zM.233.258c0 .012.001.03.019.025S.258.264.267.257.292.258.303.252.31.231.3.226H.242C.231.233.233.241.233.258zM.28.761C.317.746.331.805.3.817S.244.776.28.761zM.203.827c.002.013.011.024.022.028A.45.45 0 0 0 .359.853C.385.839.376.81.371.78L.356.695C.352.666.337.646.311.642.28.636.25.644.236.662S.221.713.216.741C.213.758.201.813.203.827zM.215.611c.003.019.019.02.04.02h.059c.02 0 .04.003.048-.012A.16.16 0 0 0 .365.562C.362.542.345.541.325.542s-.039 0-.059 0S.227.538.218.553C.213.562.213.599.215.611zM.242.463C.232.467.233.475.233.487s-.002.023.004.03S.257.521.26.514.26.495.273.493.294.495.303.489.312.473.304.466.251.46.242.463zm0-.079C.232.388.233.395.233.408s-.002.024.004.03S.257.442.26.435.26.416.273.413.295.415.303.411.311.393.304.387A.14.14 0 0 0 .242.384zM.326.236C.316.241.321.251.316.258S.297.264.287.264c-.02.001-.026.03.007.03h.032C.337.294.345.293.347.281S.35.225.326.236zM.243.305c-.01.004-.01.011-.01.023s-.002.024.004.03.018.005.022-.002S.259.338.272.335.293.336.301.332.312.316.304.308.246.304.243.305zM.29.452h.039C.351.452.347.438.347.412.347.398.338.388.325.395S.322.417.308.422.28.419.273.429.276.452.29.452zm.017.079c.042 0 .04.003.04-.039C.347.467.328.472.323.476.313.485.325.501.3.502.286.503.269.501.272.519s.021.013.035.013zM.29.373h.039c.02 0 .018-.013.018-.03S.347.312.331.314.323.334.312.341.284.34.275.348.274.373.29.373"/><path d="M.784.09c.017.112-.03.197.052.278.095.093.167.038.277.057.006.072.004.478.001.587-.001.061-.034.098-.094.101H.424c-.15 0-.189-.003-.197-.108L.173.998.154.997.144.995l.003.056c.012.071.07.13.141.142.049.008.469.003.556.003.162 0 .354.04.353-.212L1.196.427C1.191.334 1.132.298 1.089.255L.948.112C.899.06.863.01.775.005H.497c-.158 0-.347-.039-.353.2l.01-.002.019-.002.054-.006C.228.171.231.149.239.134.265.087.321.088.39.088zM.656.304h.091c.007.022.02.042.04.063.008.008.015.014.023.02H.656C.633.387.614.368.614.345S.633.304.656.304zm0 .187h.345c.023 0 .042.019.042.042s-.019.041-.042.041H.656C.633.574.614.555.614.533S.633.491.656.491zm0 .183h.345c.023 0 .042.018.042.041s-.019.041-.042.041H.656C.633.757.614.738.614.715S.633.674.656.674zm.008.174h.337c.023 0 .042.019.042.041s-.019.042-.042.042H.664C.641.931.622.913.622.89S.641.848.664.848"/></svg>